<mxfile host="app.diagrams.net" modified="2022-12-21T07:02:17.569Z" agent="5.0 (Windows NT 10.0; Win64; x64) AppleWebKit/537.36 (KHTML, like Gecko) Chrome/108.0.0.0 Safari/537.36 Edg/108.0.1462.54" etag="DmebA03paROMpeqfoEyv" version="20.7.4" type="github">
  <diagram id="__30J9onzf_HsP4nKNnb" name="第 1 页">
    <mxGraphModel dx="2704" dy="1558" grid="1" gridSize="10" guides="1" tooltips="1" connect="1" arrows="1" fold="1" page="1" pageScale="1" pageWidth="827" pageHeight="1169" math="0" shadow="0">
      <root>
        <mxCell id="0" />
        <mxCell id="1" parent="0" />
        <mxCell id="PsIKEqwVILS5Xcvsca47-1" value="" style="shape=image;verticalLabelPosition=bottom;labelBackgroundColor=default;verticalAlign=top;aspect=fixed;imageAspect=0;image=data:image/png,iVBORw0KGgoAAAANSUhEUgAAAJcAAACxCAYAAADJai9SAAAgAElEQVR4nO2dabBl11Xff2vtc+7whp7UgyzLtoQtLMuTEOABUoFAhVQllQAphxSBADHGgyxL6m5LFrJly/KgyVJbxrZkYjtJURAIRYWQSlVSJCm+pJiM8YAnbMBCY8/Dm+695+y98mGfc+659933enzdfbvPv+v0u8O5Z0//vfbaa6+9trzxDfuMBmtATvKdAIYQEHqILID0ATBaBJsHayMIwgD0BEIfMIw2FjbHv8XzZCRNi5+vl4WLHElm117oPEwplLTVJR/0cDbA6QHQ50AOkKQJy705Arsw20FiKSqHEZ5BkkOAYWEHZteQhx0EEQxBTSqKQUEvm96+nwQ2X+g8TCmE/sAhGE6XQI/xoY/cQrt7hKXlZTS5mjt+9bdwyQxhAKpH+fBHb0PdfsAIYRd33fk7iG4ihHlcMo/lHiySK/4ppNeUQm56/f+e5vxfOAikacpg8Pe0Wt/i/gd+AZ9/i3s/eDudziy37r6PtPu93PWej7J5Zob73r8blee59/27AeGDH3yULN/BPff8BoPsBmDXyMONimdTS7AECRc6D1MKYzAYoOLBMiws0Jk5SpC/JWeGzsxx1OWkSUYIT6PueVxYRMkBRWWFdnqIRPcTeCk+BJBIqEisQoJhFcmmDcn09osLCxVBUJTNaP+lfOA9n+H+j7+Kjz36NoIIfrDIXXsep203YNmXCZkn0TbiZwGH+i6IogZqSjAHYoARKoKVqU1nGyUXOgPTCrNAlg3opkAA8wEJRshzAooYzM3PcfTwgNnZNuoSCFn56+KS2gWTp4bCtJJLRwt4sV2ni41+/hAGpGmLwALS+ls+fP87ENvMR+/9be7/wH8Bv4Vf/cAv4Ob+nn5YJGhK0AxzS5g7QXDLBIWAI6hhanEIRBATxBQ1h5hDLIEpvJK1K3k6e8uIgrIuf86ufAJk2YBWCqZKFlokYQdZ70qwBPPbWeoFBrmjo1fh/S5EMrw4BE+gjQ+7yG0XnjYmpSQbWrzMQEQYfjNdkJve8Idr1HIpui9eSJG9kk9ioxJpfSPkycsn62rSBnhEeogcR/VJPnL/T+P0edQgD7u4657fJ/e7aLs2vZXv8tDHfhbnno/k8lfyvvf+N3y4BrN5LLRimsVMcViuaaRVxKVNrpNKrlMh13qS3RNn2wZyEE2+hdNDOIwQriALr8CH7ZCDuiNI8k3UHUYJmN+OD6/CbOfwkWE0P9M6SywxtQq9AUHja7FRCmx8o5QJOAwFDLMdWD6HJ0cIGA4fUpIkQVKH2XZCuIkQsoLTKcjMyNOmnUzjmFpywaQ5VrFKV+gpcelko1qsNnwB0AE2EwkXMMtQGRBCwELAB0ea7IzfG0BAyAC/Qfm78JhacglxRBpO1I1QDHVihUhD1/j12aK+qBwXrsEglB96pLBZmQkiQpooZoO4iF2JKD981iWI6SWXgdZ0LhNFArTbGT58FzMjhCsx5s552pMnCoYUZClXPeKQGfU2M6tkXTUbvGRpFbFRXfu8wIrlkiAKkqJ0sOwQneSPePD+H0XlwPBeO/1lrmopZuwaJZZgaLzE4kWkWkmlWM3lJdV9lzqmVnJZOR5KDtJHxePE4/gmD9z/TwnyBVSfJvidhc+UIzZ59YRTS+gkJBgSyGr2KFnj6UZdXl1i+vsqTC25AAKGhWVEnqXVOobjEHOz38DpMqpzJO67eLsKYxcWuiCuYEOoOeadzJY16VNZ83sbe16kWdTJ6sOgXPLUmvJhEYR2usRHP/STpO5/cf8Db+RDH/lHdLp/T5Ic4MMf+RVUn8fCUvULGxvSTndp6CSWsZFLRkg4vC59WkVMteQSA7FnmZ/5Pzz80HWY/jaSLGH0cG4zps+BPIfKi4uZXPXLU1pSWZtIZ6YvXQ7Sqo6pJVepCil9nOyn2zlKbh5vM2T5NowXEcIVBGaBBFWHWV3nOd8NfXkRC6aUXGYBROM6nHUx/wKWFq4nDzvxNofhyP1LuPue/0sIr8bYAmYoHswKI2tpJmiwUZhKcolEVTGu7m1h4L+Pe+95gjxcjbd5ALx9Bx9uwGwnJg6EaNDkctJ6LiymcuHaIBolxSEs4vRpTHKCbcXoRDsmaZRqpFhBRi2HxcLIKWO7bcZTOVsj5+VO4UTXNS5evOQCCD7HJXPAy/C5EegCaaGPeVRyCoMFMNTTAlGljwve66ntDbnOBkl7mhchVCF4EEhFMXKGC8GljXy10XKo0k9tyacCyWY31F+mEyPONqwuyST5cbnLlPODZFM+AKaZXA0uViS79NL1J2pwYZHsyBcvdB4aXKJIrnRHLnQeGlyiSDbLkxc6Dw0uUSTOvn2h89DgEkWSa0OuBhuDZO7K/ELnocElimSpvbzqQ5viaHYNLh4kh7tXjHxgZg25GpwTJEd3/dCqxRCRZnmkwdlDtl79xpGVa5W4iVO0IViDs0Oy7SX/6mS7pxo0OCMkz+0vN8MP0cisBucCic+XYgxOiUMiSCHJGoo1ODsk3STFa20/n5VboBpyNTg7JDt3XI2X+mbRhlgNzg2S/c88s4pc5e6aBg3OBgkhBx0q9CIaNy+INt6pDc4KiWcBz3C3u6IxNGcZ+4pmI0ODM0PygmtnMDdKn+GWq3pgxoZgDU4PgvvHkTV1i7yNhTuLAUbPf+4aTDWSmRe/roqgB8VccURyWWPBb3BGSMRmRz4oyRXRsKrBmSNZFULR4l5lqX3aUKzBmSBGuZnAniYSTIOzRWMtbbBhaMjVYMOgrBNCSUUKT4kGDU4fCuufy3WpHXbU4PwhsWCIi29EC0ll8QBZH8LY2UzFLLLZwNHgFKDC8OiSbqfLwtISrXaL61/5aqxupS8w6VWDBpMg3avvM1PBJQkWhtvKTMZ3AZVn2ICM6GnNuNlgMqrZoorQ6XToZwM6nQ7Xfs/LUNHCt2vMgbBR8hucArSUVKrKsRPHmZuZ5UUvuZZvfP1rjJ64VcZuL32iG4/VButDfQioKEmSsmlujsXlJQ4dPMBMp0uwUOhjjmjMF0Tia8FddseNNDg9RFOEKNu27yRNW3Q7bY4eOUTAE2xAsBwzBVpEkilCAqQ0kqvBetAQPHPzm9i560q8z+l2W6QtELdCLofJ5QhelvHSw+sypn2s8lttyNVgbWi7leKznL/+xte5/pWvZPuuK8g5QSb7Sef2c/dH/x15+jy5O4B3B/DuCEFXMHyNZA0arIbOdDfx4mtfyqtecyNZlvHia3bRmTtBOvMsN9/xz1jMv8L89sOE1pO42f38wtv+OV5OYNKvznJu0GASZMs1j5k5w8gRzXnl9+/kB36kzdYXLLD/2LeYnd9Cv7+NT+77LG+7+RY68gI++dH/TpLvRK2N2FSeTdXgPEC9F/LMM8gG+OD56lf+DNMj9PKn2bKthWeBwCF+6W0/xezmjMceei9In/Jo3QYN1oJ67/EhEMxYXDhBCIEnHv80Pk+wfCvk21hayNi29QpOHFvEdTcj1kJIkMZjp8E6UCMDAirCzOwcS0sZt73rPkL/Sh689zfZ1H4VV17xGh578D8y17qau+58AAkziLVYyx2sMa82AFCTHiYx6K6qY+v81Zw4uJ1H7/kDZOWVPPS+3+PIU9uwpWv4+Id/l4NPCRo2IdaO3hNjGF+NbHD5QtovfL+pa2NA4sC1Agsrh5iZadPrB/LlJbpbZ1g5fghUmdv0AnxvLpJrZK928cBTSLTR1C4PJCoJGKgKZoGQC91kG74f0ACd2U2EQaDVnUWAvO9QhEnEgnL7//oQGoJdDkhEFFFBpDj+sogEJwgqIKarhzqDScQqcSoEq2M9T9gG0ws1GT3LudyvGP0hpNh9Xdsse4otvt5tpxois9HZphtJdAi0Yp+ixAg3Barh6wxFyOn8bJxIjdSafjSGqgYbhotm7aaRVJceLrjkOlXdrMH04aKQXA2JLk1ccMnV4NJFQ64GG4aGXA02DA25GmwYGnI12DBcFLPFBiWk9nf6w7M35DofkLVpEh0B6jvYy8HEiJ4n00uwZO3l4WbZ+JygRqyhg0CIDprSAwwJbQSHiYElCB3EHNO+T0FlVbCRoZNyE3T3DFEc1GVjxDKBIJ6gGUGPkydP8o69P4l3h/B6FK/7CXoIyLgUOrdaPEZq4tXgzDBR1ohhMiDoIrkc4Mpr4Pa734TOPEUmT5K758j1Od5x278l0FvrKVOFZrZ4HmAoRiDIMsEd4M4P/gw/9fM3kCXfJJl/hnff+zPMbDnI7Xf+PDPzOUafade3oFHozwPGVA3p4/UArn0kSjHr4VrCW299ExKO859/83+AbsFCXvP6nU5U8bkabCQESBDrQmjz2KOP0Ol0SGSewYrw3HNPYnICdAHTRUxXMMliLI4p1k5UmiiB5wHxwBuxFLUZ3vKWvfQWujyx7/fYPPMKXvaS1/O5x3+HkHf52X/zZrLFlQud4XOCRufacBgQMELc9GIzJP5qHnvgD+gf/x7uf+/vc/jpqzjx/FXs+8h/xfkX0e5eVexq16keFmXmmgemOPsXKUZMEMSZYvHOZIWgx4AcrIvgiMp7DpIh1kLDFah1iQdQTG/zNAr9RqDYW1cSa/ghBXm2Fq8T4uAR94CaeMQUzGH4aVa3gIZcG4b6xt9R2ZOgFuPLVuEQpJBQ1SGq9V9NL8Uacm04BKm27jHy/2jwvHhf3JA8/Gya0ZDrvOBU415PN5nG0cwWG2wYGsm1gYjnKk36Zlyfmn79ahIacm0UDJByOLSRL4ZUspFv5bRDuFycKM/obMi1gVgdKqowR4xJqtH3kWDTRrFJh7425NoQFPIqDGeDVoQIWk22ujuzFLQqwlhN0dKcqhLCaFitRqE/TyhtqeMumTL2r37vxY7Xv/GHJ34uEjtGI7k2BJPZIWue6Tw9EmocZoaIVOd0BjMww6k25Dp/mF4CrYU//eP/V72ujlYUwRfDYzMsNjgrmAV+4PVvJBQSrCSWSHNKwXmArXGd7L6LG8NDYB0LJ04A4JIEHzxmgVa73ZDr/GAyccodQrn5uHVxSogFhWQSodVq8fyzzwDwspdfT+IScu85dORQo3NtLEY9HErlN0IQc5FOwRcKymp718WASTasYFYNhYsLUXIlLiHLM9IkJXGuIddGQWqSKh7nHGdQYPiQ0z94mB3Xvpa03eHAwSeZ6XRYWVkqfh0YJdj4MtH5RTBbRTCnSj8b0KbNq2+8iVarxRf+9I9pp63iDm2GxY2AjJFARXAqpEnK8uJxtmyexW3pcPjo39BfeYbULbGyfBDImUSg0bOULgzBfAjVBXFYnOnO4POcLM8QEW563Ru47vobmN+0ubFzbQRWO/tRbDEWfB6YnZ2jt3yYdus47ZkBh499lfnuNmCWYFsI1qnWGFc7HNbfnd8hs7RlmQVEHOocZoGbfvD1HD9+nC9+4U/p9/skLiFttWh3Og25NgqVU6CVw2PAOUd/sETijvOBD/4iu65e4kP33cNTf/s087OvYKXXihszin0ZZlKEWrh4sGnTFl50zTVs2bKFEydOsLC4wN/89TcJIaDqAMizjGwwaMh17lHIG9PCbRkgQ/AsLC7SaS+DPEN39jv08y9y9z2vo3/8Ot5/9+/hbHOc4lu529qBDBe37QIq+iqCN2Nh4QRf+8qX8CFw3ctfwaH9+wnFeZ0qUlnotbFznVtobSYYhzWHmIvnJ1kgLB+hlfawcJBu+xCbNx2g3XqSrZuWOXrwOzhbwVmOWkBtOCGIW9OseuqFglNldnaW3Hte94Yf4tD+/fRWloFh2bUwUUBjoT8pJu1Ir1dg/TOIw1j83qGkqJSn6sLOK7cRsqO0kwEtzegvncB5T76ywK6tsyRhGRdWSILhTIikyovzMIexIy4EvUQElzjMjBtv+gH+4s/+hOWlxVWeEHU0w+KakGLLhAcZUJ6oC4JJCoCRF/e1EWlh1cJ0JIKKQyTj6Ilnme0uIOEQW644zsrykywvP8W2OYflfforTzE39xyDpEO/f5jcd8FmcNIm0AbawAwwD7QvyHwxyzPIYTDI+PpXv0LiTk6dZlPsBKgIZoJKm36+yJZtRm9wkEG+GDex2iyCkLZyujObOXYIWm4LZg4sEKyPmKLWRuQEL3ppn7e/80cY5H/J1S8MWHaUQe9Zup0T+HwZCW3UZslWOsx1r6TXS3n/vfvo5Zt54KH/wOLyPO++8xPk/hqMrSNxv04Na9nJzs5+VulYa6CRXBMQLOo3wTKQPsu9IywuPUl7roj6EOYxlOPLxzHdgclWkDkwx1Ar8sCAYAus9A+y3PsbZuefJdgyaiukuoAfLKCyTJIcQ8xYGhyjteXFGAnve++P4+2F3HXHT+Ja12F+B8JVU7I4FNGQaw0EyxBdQdwC77tvL0EOMDOfoRogdAkhpd/PcGzmnjsfI9gymItKvAgqHgtLiCyxZfMcV+26iv7Kk7zn1scYnIBff+Kn0GSZbHCIMMhptzpsms1ROU4rbbFj+yzPPHecjz18H8eXtnPb7s8ibm39Zn2sRcmzo+p6Ugsacq0BQxREAqpw1217kZk+aasfN7JaG6GNz5V8JWVu9iVY7kZsnKE0HIQEP+iQ9TaT2NU8+uB9SLZA3j+M5gOc65A4CB5mZlKCJQxy8GGGTVuvIdgW+oMZct8hPQU952JCo3OtQrnInCNqqHoGfom4NAPgwFoIaSGpUlrJLCFE/UMsDoeCoeaAHt4fwIen2brlCHtv/9dc8+LNpG6JEI5joYcPOUIAyTGEQEqweRYX57j3g59jpbeLdvdlLC3PE5g7A53rwqAh1yqU5ArRfimGD77YZp8ASfHXFbEeBKcOM49JjooH86gIEhwicGLxIC9/2Qs4fPjr9FaeopUuEfwimI+kwjDLQXy0aokjhJQtW6/i/R/4BFm+k5vfcRebtryQQDI1jjkNuSbCavat6NUApao+GoYSGFmiid9Y1foqCa1kNlrdbQXnBsASvd4CSkoIQAhYkYYhqEtBPWgPwyGyFWQGVAkWbW/T0GjTNYifN8jYu9KBJlrLI2pOf1b+RtEi7LqoIBLvX+ot01vps2luM8t9odPu4tIrCF7jc8WKHT+CGYhLUedx7R553gfr4pI2uR+A+akgFjTkWhP1HS0iOvR2WNM8Xi5SR1U+rt4Y4NHEMTOv5CwgqTEofLt6PkMQVLV6tCEM6EEISM8Xi8FGnvXj0LuhpT63uKiWf0LwvObGmwjBF451FxrjTXkSH3gprvIeMZAQg+fKoLgyTAIeH00LzhMkI0iGl4wgg/gej6EE0+p500QsuIgk1/gaXn238ah78HnLEaP+U7aO1BrDSXa1mgXMQHXSAwvHekpdzgp70rRR6yIiF8TK/MqXvoiqI/e+9vmF9CWvSaFTvv8sk5v44cXhT386uBjGnhGplfscp8prbryp8Hw0QvATvRM2GuW29Kic62lflzvOj+Qa73RjPCklkxVOZi5JUFVarZTllRXSJD0v2Vwbq+PVnBLW3L5/eeAMu9eonWe920prcqB2wJvUbhif9ovS7/f5wp//CQCv/b7vP7MsnjMUBaiOITuNa0LYkVO7Lg0kscmVMizsyTH0hRy63Q7jBJh4gg2K71NMAiY9YpD/BLEEtTS6rlBUp+jQUFk44okIWZbT7c6cy/KeJs6FW/HpSrzxtKaXbIrkRG9nN8GFdjzATxXkh1GHW0M0XkafoEfx7ihBe+SyyK5rlJvv/Je05o7h9ThBBiBWkCgKz8r4WNiIvvf6V/La7/tB/urLX8JpEVr7vGLUZflMLpEz0dWkprPJWF6mC8WwOGmqO0qkcbEtUnutoBL3EqgzAivc9u5foT27iHdP89TBP0Jmv8O/+LnX4Ft/R3AHMV3GxFdpgVQEa3e6OJcQQuC6l9/ADa9+7QWq3rMd2s4k15NIPZ1QLMFKX+1qaaNOrElYv9AGmC5z850/DfpF3nnXj5O3/4Lujq9x2/t+jN3vexOSHiFYr3rO7Nw8S8uLzMzOcv0Nr0JU+MZffYVvfu2rfO0rXzpX5T2POFPJV//tdEOj8BqVXOsTK6JuGrBg+BDIvSf3HlHl0X33gzvEO9/7iwzsOQ4f/zbz23J6+fP0s4O4ZAASEFHMjBe+6MX8g3/447zqNTei6vi773y7Mp5OU/jGUVz2Cr1VyvW5XGAQAiID2m3HwomcmfZOsuU5Unbwucf/E4sLW+mqREVfhG9/8+u02m1eet3L+eqX/7LaXbPe7pIGFzdUhEKBjP7fUHk0rXFF1G1TokLiHK00pZ2mBO/ZvftX6S3M8IkHfofvuerHYPlafv3j/5PZ9Hu59V33keh8sTtGKuX1hle/lq9/9cs41QnS6tLq1ZcD1FtWBJioH5lucRNmoaRPuqh9H9e/PCHEK1FB/SZ+6zNfID94I0vPvpbPfeiP0cUbefCe3+XgsynKZoIJZjGQxQ++4Yf5yz//M4oNuzU3ltrsq/k3Xf+6137AIB4caWOHdk+KyzQuPaxmHhUVgvUwPQ448NuAlCDLiOQgcZu74CDE3chmCig+2CpPiNXSa/oWby9nJOYywBeKdaC+UL92U8rYHYUbnVmhpM/Ee1wOBKRmIEUMCz6aLEJeWbLTVPF+qF/JSfbENbj4kbj2YvVGCvfZSpk+zcYtKTeUeP34vngXzI/cJ0ZlRC3jOZ3NzHB6Z5WXJhJrP1+9GZdHZ9pUa1FS6q4rFsfl4Zf1ycQazz1dsp8l2S6EJ8alhES7B4qXp1+Ra1V+vVFHG7jwqLRyve70Gv98y6VGDp4dEmk9z1quuyfruSer/MkKef3M1NNrvkaSTBcSzwGGO1pGIRPdcE8dozrbuK3s9C3SYY18rgU9S4e90lPjXD3vdNMbx7Sln4guRCv4hDYelxOTTRMTflDcVt5e+oDHqCihimUVquFx+Pz1JhGnq0KdrZwbT2+j5eapVu9pPXPsR+v5L57r9BNCFr25QqFg1/chWMxdac80fJU5Kw2oJZGseG+rM1FNFIp7rLipPmsEkCAkJiO/qQol0aZWVY6cRWMLIz8u7MBFBMDxxeNCTxRAQi0vxbe18p9xdsrymxTpS5Wn8vADEyuO1WOkDerdc2IepPhchvW4Ot2yDmL6Mla5a+XBJjyrjkStDQE0OMQrqaZY7hkGijVQIWggqCeojw6AGlb1AitdTccaXsr/pCBYKV3LxweNBtUBpJqixEZWkcoJNGggkMc84DENiEKI2RumP5JoLZ3xyi0JVpIqJNhASLQ9lr4V5fXkZFX5kUDQkzduqJNYh++FIt8j5RdSaaEVyWP6se5zgsujM6YGgkAoGliKtEuSjAwg5WfRfj1CyPI3ZfrOu8gDU1LXJuS+IlRQH7e+qSeoFR09drqSvDo2qibtbA7LDRcc73zrLVhmQyaHABoLEdTzxOcejw+X2MjSgiAeM18UoOjl440LkcDFGqJ6AVMsAwmKkiBeueVtt2KZkYgj5L6KXhcKcj3+2U/HtCWSnMQwDVVH8MFHEolVZ0tbrdLrjS+mKGmM52AOyZVb3nYbllE1rpSi2BlePE989tMEzbGio2XkkWjFCoWWHYi6RCtimYoiProISNHttYyXWnTsW952GwwMNUEseoug4CWm98TnP110rpzgPD4JBA0IhtTUCSk7Uk28CoL6YbtIUCQTWq5DyAwXlJvfcguJJThcrPSCqp6AV8/jn/1UQbJY/6FIv5yklXkopZs88OkHjGBFJLzo9WwBnLpi13EgYAQJmHh8UaFec/7gD38fX/Umz1PPfhfTvGJ0yeq4N9SRSAsJDofD+ZS3/NxbSWmRuhQ/CCSSQhB8Fmilw00ZsbFi+jEfsbCf+Y3P4F2OJwYBGVgPU48VPQuJZdEgSEjQEEkspjif8I43v5OUlMSl5INAKgmEcmWs5gkqUXoFKaR2kf4nP/treOcx8bHczmMa80hZBwHUBLUkSoWQ4EKC+oS3/tLbSaVFqi3CwJOU6Vc8KVzPpah/ZwSJ677eZXzq85/Au6ySrEHL9IeySwqixrRLMisupLzrl29FMiURFyW1F1KX0lvp02q1sWBFZymHxFDUv5Frzqc+/2tF+4eiw5VcKKwC+/Y9Gru5xQp1roXP43JQXCss2Ihh5JWV3ZwnSwZFhULQnE/9+0/gNa8aoIRaLNjb33wzGhxqsXCzOkvoG+YDnc4MK8t9EpcSvNFut8mzvGrfag2z0Hu8egaaxd4jHq+eJz73yUKyBsqdz5HcUdy//c3vLNKPQ8CsmyX046kQ3U6XleUVEpeMuBnHRfRy/PSFXDa8ejIdjKT/+Gc/WTVweexw5GZM/+ZfuQX1CYm1SCxFvYNcILeR9KP0ieNdqKkndX0vaM7ArZBrhqkV5f80QQuVpSJXJJMGx9t/+R24ov7TkJLmbVxQBAg+4Io48oX4ZwQy5AFl/bseXnOCFOl//vGh2iSGPLbvUbNgReQUqSpVRGPPq0V7sSI00Kg0CVWi9QcPZU45BAyHgbJHaaXAVoJ1KC0YP+TEquG3cvcRK/SOeq8qFb9Rm1pMTwulXYv8aFWJdTKMmElsODyYFUOQyEgvtlKylO+Lnj5cjSiGYXNRv8HVlPcyPWrpT0aldBP94Ib1DUECXkMh2cqb65Irllertoiki+pMKNZyQ838tHrqWAZLKfW6YZmpCBYqpd9IqsqtP8GYEPTCKsU5ziggBj9LigawQmIM7x/9eZSMo0fxWo2I47Cx8lmUKEY1m1GLOowV+S6lSqnJyohZoz4bHpJ4vIzrva7CgROHeRWtqTW1WWVZtnoZyolDQVipflPP/5o1USNWqUNq1F0ZKulB6ukXZS7KW5JZKIfdmmQtD1LQ0bZZjZJW8VnOHOCq9JOCWGVJkiBRuS6yVxWgfH45Da3LEVuVVHnfONuHca7KqDGhIEkptssxPb4z6lyrz3yqJ5baqsShsiZHV03XVs1mjaEppP7sclq1ygwy+swqSpdJYRMa3ik21DFLyb3mk3AAAAXbSURBVFHO0qo7iy/HJ6xlGiXxxstQfSKlBjP0vavqkdoMsMx6rRxlvoZSLaoYsTbqo8do2nVIUd/xGZNGGRtpw6T8ouBjFVhMigeU08xyt4+ZVbVSHTZUy0T9PEGzAMWkoNxNbeX0baLkqFW0SFQoywO6a41pDHNdf716WBv9BBk29iRJIcKEDFGlYyM3SD271SdWf1ccUaJWO1ilRpbYneNsd1i+oXSxotdOMnxWtq56IctcWa0Gqu+GbBsREzLs2iNfTkiz1PdGbhypr9HOk0Q+ekSI27l8zWGwjC5TEqmWqqgQSl3NQhVjajQzCmYEo3JdFgwLAaliUq0emOrlKskabU5F2qukZNlzR2tm1bPGfjZaf6ulbi0TNboy7HTFz+qpl/eZgJdILBcEZzUDZAjViKCF3hjlsEdFoy6IROGiRRilSQSr8jPW5KVwt7KuynvHmaMTPhutkbGutDoTozkZeZeU7sxmhiuOOSsfKzYMgIbVRLwKeT6MoZW2WgwGA1qtVjRd+OJcvorpJSmi7cg5LWakoy1dFaTuVaFRguW5H+3ypwIZq5yT/u7UE5Cxv+MIGMGBC56Zfk7bFyaLmp41nAxEaiEegqEkBG3Rcx3i+onVTucYzeFaOa1UlVU3jH2w1npQfTg/Q1SBSESE3qAXz61Rx+7du2klKf2sz75H9rF7zx4efeRR9uyNf999x14+vu/j7N2zl3379vGe99wZjZjAvkf28e479uLU8dDDD3PXe+7ioYceJITAnr17ePjhj+FUV8XdqprWCvGqwk/8xE+QZRntdvssinkqWEdyncavIEp0JOBlwGxvmc/dcSebsj5BM9Baq5XKr0rUZywHMzJvHKPLy//Jmxhoa5UudPY41d55dkjqM4ayoXOfIyLc/+AD7N2zhyRNMYzde3dXPxSEPXv2xKxaVNI/vu+Rke8feOBBxCDPM+64404effTRmGjioj5Vx4TyisSQjiJR0k0LgoFoPKZFs2W2kbGVFcz6KFG/0uJI4iwfkA9yBKMlUcUYeCPpOBLzG0Cs84dKURr3larP8nq9Hvse2Qcw/LtvHyJSEcYskCYpt+++HQuxR959991keYYRK2337tvjvWE4iyxjcK2FMn6CS1yMkzUFl0scSaK0U0c3VQZLx8gXj5AvHWawsJ/sxH76x56jf+w5/OIh0nyZdr5C1/fp5H22poob9Ipj8aYXI1p4mqbVUJWkaRVtxqny7jvejVPHnr17EI0RaMphEMAHT5Znlc+PU8cjjzxCmqR0Wh0+9vDHCCGeG9hut4e2lXV2VIsoIXja7TaqjiRJcS65+K/E4ZyLFm9RpDuDzcxCdxbpzCGd2Xh1Z5HuHFnSIUu7LEubvuuy6B3amY9Sa2QmMV0YIVe/368Uc5/n3Hnne6rlCB88Dz/0cJRCwUjKyivg1LF3794Rh7Nbb3sXuc+rrf4PP/wxtIi/FaP1rV9rIXjy3FeRBcuZ6cV+Be/x3hM89CXlaGuWA+3NHG5t5WhnO8c62zne3c6x7nb2J5vZn2xhf/sKnu/u5ODsVexPd3JY5ulLQhmffhoh+/Z93OpD0yoFu5DM6jTGKs2y+N1JvFSDD8VwltDrrYycz6duyOlVulcNufe0WilZlpMkjuAv/oquGymVnLbPmMsy2j5D8agUBunSXqqKiWOQe8TiZMDh6GvKYrtLX9OxcEq1tE4i0U5thrxxSEZsGRNmbiWCD1XjlsRajxjls3yekybD4fa0MudcsaCqWLgQEZ1PH8MsKmIJXpWlNGUlsYmtHU2/Cq3aMxCCCJkVFu+1ErO1CXYx1FQCVKHTTzVD65HqssfQsgkoXpTgShKtVcOT7GsGpzAkno0H7EbjvIUKH4krf5mQc7hmd/I7V6P0UImvpxEXVRz6BuOYTlKVaIKlN9gwNJJrFdZaXzxdKXJ5DP3r4TIl13oEqpNotQvP6T3v8ibYpU+u9daj634zNk6g05VUdYKV0++zINclcPrG/wf6x+l7FFg/5wAAAABJRU5ErkJggg==;fontSize=30;" parent="1" vertex="1">
          <mxGeometry x="90" y="370" width="151" height="177" as="geometry" />
        </mxCell>
        <mxCell id="PsIKEqwVILS5Xcvsca47-2" value="" style="shape=image;verticalLabelPosition=bottom;labelBackgroundColor=default;verticalAlign=top;aspect=fixed;imageAspect=0;image=data:image/png,iVBORw0KGgoAAAANSUhEUgAAAJcAAACxCAYAAADJai9SAAAgAElEQVR4nO2dabBl11Xff2vtc+7whp7UgyzLtoQtLMuTEOABUoFAhVQllQAphxSBADHGgyxL6m5LFrJly/KgyVJbxrZkYjtJURAIRYWQSlVSJCm+pJiM8YAnbMBCY8/Dm+695+y98mGfc+659933enzdfbvPv+v0u8O5Z0//vfbaa6+9trzxDfuMBmtATvKdAIYQEHqILID0ATBaBJsHayMIwgD0BEIfMIw2FjbHv8XzZCRNi5+vl4WLHElm117oPEwplLTVJR/0cDbA6QHQ50AOkKQJy705Arsw20FiKSqHEZ5BkkOAYWEHZteQhx0EEQxBTSqKQUEvm96+nwQ2X+g8TCmE/sAhGE6XQI/xoY/cQrt7hKXlZTS5mjt+9bdwyQxhAKpH+fBHb0PdfsAIYRd33fk7iG4ihHlcMo/lHiySK/4ppNeUQm56/f+e5vxfOAikacpg8Pe0Wt/i/gd+AZ9/i3s/eDudziy37r6PtPu93PWej7J5Zob73r8blee59/27AeGDH3yULN/BPff8BoPsBmDXyMONimdTS7AECRc6D1MKYzAYoOLBMiws0Jk5SpC/JWeGzsxx1OWkSUYIT6PueVxYRMkBRWWFdnqIRPcTeCk+BJBIqEisQoJhFcmmDcn09osLCxVBUJTNaP+lfOA9n+H+j7+Kjz36NoIIfrDIXXsep203YNmXCZkn0TbiZwGH+i6IogZqSjAHYoARKoKVqU1nGyUXOgPTCrNAlg3opkAA8wEJRshzAooYzM3PcfTwgNnZNuoSCFn56+KS2gWTp4bCtJJLRwt4sV2ni41+/hAGpGmLwALS+ls+fP87ENvMR+/9be7/wH8Bv4Vf/cAv4Ob+nn5YJGhK0AxzS5g7QXDLBIWAI6hhanEIRBATxBQ1h5hDLIEpvJK1K3k6e8uIgrIuf86ufAJk2YBWCqZKFlokYQdZ70qwBPPbWeoFBrmjo1fh/S5EMrw4BE+gjQ+7yG0XnjYmpSQbWrzMQEQYfjNdkJve8Idr1HIpui9eSJG9kk9ioxJpfSPkycsn62rSBnhEeogcR/VJPnL/T+P0edQgD7u4657fJ/e7aLs2vZXv8tDHfhbnno/k8lfyvvf+N3y4BrN5LLRimsVMcViuaaRVxKVNrpNKrlMh13qS3RNn2wZyEE2+hdNDOIwQriALr8CH7ZCDuiNI8k3UHUYJmN+OD6/CbOfwkWE0P9M6SywxtQq9AUHja7FRCmx8o5QJOAwFDLMdWD6HJ0cIGA4fUpIkQVKH2XZCuIkQsoLTKcjMyNOmnUzjmFpywaQ5VrFKV+gpcelko1qsNnwB0AE2EwkXMMtQGRBCwELAB0ea7IzfG0BAyAC/Qfm78JhacglxRBpO1I1QDHVihUhD1/j12aK+qBwXrsEglB96pLBZmQkiQpooZoO4iF2JKD981iWI6SWXgdZ0LhNFArTbGT58FzMjhCsx5s552pMnCoYUZClXPeKQGfU2M6tkXTUbvGRpFbFRXfu8wIrlkiAKkqJ0sOwQneSPePD+H0XlwPBeO/1lrmopZuwaJZZgaLzE4kWkWkmlWM3lJdV9lzqmVnJZOR5KDtJHxePE4/gmD9z/TwnyBVSfJvidhc+UIzZ59YRTS+gkJBgSyGr2KFnj6UZdXl1i+vsqTC25AAKGhWVEnqXVOobjEHOz38DpMqpzJO67eLsKYxcWuiCuYEOoOeadzJY16VNZ83sbe16kWdTJ6sOgXPLUmvJhEYR2usRHP/STpO5/cf8Db+RDH/lHdLp/T5Ic4MMf+RVUn8fCUvULGxvSTndp6CSWsZFLRkg4vC59WkVMteQSA7FnmZ/5Pzz80HWY/jaSLGH0cG4zps+BPIfKi4uZXPXLU1pSWZtIZ6YvXQ7Sqo6pJVepCil9nOyn2zlKbh5vM2T5NowXEcIVBGaBBFWHWV3nOd8NfXkRC6aUXGYBROM6nHUx/wKWFq4nDzvxNofhyP1LuPue/0sIr8bYAmYoHswKI2tpJmiwUZhKcolEVTGu7m1h4L+Pe+95gjxcjbd5ALx9Bx9uwGwnJg6EaNDkctJ6LiymcuHaIBolxSEs4vRpTHKCbcXoRDsmaZRqpFhBRi2HxcLIKWO7bcZTOVsj5+VO4UTXNS5evOQCCD7HJXPAy/C5EegCaaGPeVRyCoMFMNTTAlGljwve66ntDbnOBkl7mhchVCF4EEhFMXKGC8GljXy10XKo0k9tyacCyWY31F+mEyPONqwuyST5cbnLlPODZFM+AKaZXA0uViS79NL1J2pwYZHsyBcvdB4aXKJIrnRHLnQeGlyiSDbLkxc6Dw0uUSTOvn2h89DgEkWSa0OuBhuDZO7K/ELnocElimSpvbzqQ5viaHYNLh4kh7tXjHxgZg25GpwTJEd3/dCqxRCRZnmkwdlDtl79xpGVa5W4iVO0IViDs0Oy7SX/6mS7pxo0OCMkz+0vN8MP0cisBucCic+XYgxOiUMiSCHJGoo1ODsk3STFa20/n5VboBpyNTg7JDt3XI2X+mbRhlgNzg2S/c88s4pc5e6aBg3OBgkhBx0q9CIaNy+INt6pDc4KiWcBz3C3u6IxNGcZ+4pmI0ODM0PygmtnMDdKn+GWq3pgxoZgDU4PgvvHkTV1i7yNhTuLAUbPf+4aTDWSmRe/roqgB8VccURyWWPBb3BGSMRmRz4oyRXRsKrBmSNZFULR4l5lqX3aUKzBmSBGuZnAniYSTIOzRWMtbbBhaMjVYMOgrBNCSUUKT4kGDU4fCuufy3WpHXbU4PwhsWCIi29EC0ll8QBZH8LY2UzFLLLZwNHgFKDC8OiSbqfLwtISrXaL61/5aqxupS8w6VWDBpMg3avvM1PBJQkWhtvKTMZ3AZVn2ICM6GnNuNlgMqrZoorQ6XToZwM6nQ7Xfs/LUNHCt2vMgbBR8hucArSUVKrKsRPHmZuZ5UUvuZZvfP1rjJ64VcZuL32iG4/VButDfQioKEmSsmlujsXlJQ4dPMBMp0uwUOhjjmjMF0Tia8FddseNNDg9RFOEKNu27yRNW3Q7bY4eOUTAE2xAsBwzBVpEkilCAqQ0kqvBetAQPHPzm9i560q8z+l2W6QtELdCLofJ5QhelvHSw+sypn2s8lttyNVgbWi7leKznL/+xte5/pWvZPuuK8g5QSb7Sef2c/dH/x15+jy5O4B3B/DuCEFXMHyNZA0arIbOdDfx4mtfyqtecyNZlvHia3bRmTtBOvMsN9/xz1jMv8L89sOE1pO42f38wtv+OV5OYNKvznJu0GASZMs1j5k5w8gRzXnl9+/kB36kzdYXLLD/2LeYnd9Cv7+NT+77LG+7+RY68gI++dH/TpLvRK2N2FSeTdXgPEC9F/LMM8gG+OD56lf+DNMj9PKn2bKthWeBwCF+6W0/xezmjMceei9In/Jo3QYN1oJ67/EhEMxYXDhBCIEnHv80Pk+wfCvk21hayNi29QpOHFvEdTcj1kJIkMZjp8E6UCMDAirCzOwcS0sZt73rPkL/Sh689zfZ1H4VV17xGh578D8y17qau+58AAkziLVYyx2sMa82AFCTHiYx6K6qY+v81Zw4uJ1H7/kDZOWVPPS+3+PIU9uwpWv4+Id/l4NPCRo2IdaO3hNjGF+NbHD5QtovfL+pa2NA4sC1Agsrh5iZadPrB/LlJbpbZ1g5fghUmdv0AnxvLpJrZK928cBTSLTR1C4PJCoJGKgKZoGQC91kG74f0ACd2U2EQaDVnUWAvO9QhEnEgnL7//oQGoJdDkhEFFFBpDj+sogEJwgqIKarhzqDScQqcSoEq2M9T9gG0ws1GT3LudyvGP0hpNh9Xdsse4otvt5tpxois9HZphtJdAi0Yp+ixAg3Barh6wxFyOn8bJxIjdSafjSGqgYbhotm7aaRVJceLrjkOlXdrMH04aKQXA2JLk1ccMnV4NJFQ64GG4aGXA02DA25GmwYGnI12DBcFLPFBiWk9nf6w7M35DofkLVpEh0B6jvYy8HEiJ4n00uwZO3l4WbZ+JygRqyhg0CIDprSAwwJbQSHiYElCB3EHNO+T0FlVbCRoZNyE3T3DFEc1GVjxDKBIJ6gGUGPkydP8o69P4l3h/B6FK/7CXoIyLgUOrdaPEZq4tXgzDBR1ohhMiDoIrkc4Mpr4Pa734TOPEUmT5K758j1Od5x278l0FvrKVOFZrZ4HmAoRiDIMsEd4M4P/gw/9fM3kCXfJJl/hnff+zPMbDnI7Xf+PDPzOUafade3oFHozwPGVA3p4/UArn0kSjHr4VrCW299ExKO859/83+AbsFCXvP6nU5U8bkabCQESBDrQmjz2KOP0Ol0SGSewYrw3HNPYnICdAHTRUxXMMliLI4p1k5UmiiB5wHxwBuxFLUZ3vKWvfQWujyx7/fYPPMKXvaS1/O5x3+HkHf52X/zZrLFlQud4XOCRufacBgQMELc9GIzJP5qHnvgD+gf/x7uf+/vc/jpqzjx/FXs+8h/xfkX0e5eVexq16keFmXmmgemOPsXKUZMEMSZYvHOZIWgx4AcrIvgiMp7DpIh1kLDFah1iQdQTG/zNAr9RqDYW1cSa/ghBXm2Fq8T4uAR94CaeMQUzGH4aVa3gIZcG4b6xt9R2ZOgFuPLVuEQpJBQ1SGq9V9NL8Uacm04BKm27jHy/2jwvHhf3JA8/Gya0ZDrvOBU415PN5nG0cwWG2wYGsm1gYjnKk36Zlyfmn79ahIacm0UDJByOLSRL4ZUspFv5bRDuFycKM/obMi1gVgdKqowR4xJqtH3kWDTRrFJh7425NoQFPIqDGeDVoQIWk22ujuzFLQqwlhN0dKcqhLCaFitRqE/TyhtqeMumTL2r37vxY7Xv/GHJ34uEjtGI7k2BJPZIWue6Tw9EmocZoaIVOd0BjMww6k25Dp/mF4CrYU//eP/V72ujlYUwRfDYzMsNjgrmAV+4PVvJBQSrCSWSHNKwXmArXGd7L6LG8NDYB0LJ04A4JIEHzxmgVa73ZDr/GAyccodQrn5uHVxSogFhWQSodVq8fyzzwDwspdfT+IScu85dORQo3NtLEY9HErlN0IQc5FOwRcKymp718WASTasYFYNhYsLUXIlLiHLM9IkJXGuIddGQWqSKh7nHGdQYPiQ0z94mB3Xvpa03eHAwSeZ6XRYWVkqfh0YJdj4MtH5RTBbRTCnSj8b0KbNq2+8iVarxRf+9I9pp63iDm2GxY2AjJFARXAqpEnK8uJxtmyexW3pcPjo39BfeYbULbGyfBDImUSg0bOULgzBfAjVBXFYnOnO4POcLM8QEW563Ru47vobmN+0ubFzbQRWO/tRbDEWfB6YnZ2jt3yYdus47ZkBh499lfnuNmCWYFsI1qnWGFc7HNbfnd8hs7RlmQVEHOocZoGbfvD1HD9+nC9+4U/p9/skLiFttWh3Og25NgqVU6CVw2PAOUd/sETijvOBD/4iu65e4kP33cNTf/s087OvYKXXihszin0ZZlKEWrh4sGnTFl50zTVs2bKFEydOsLC4wN/89TcJIaDqAMizjGwwaMh17lHIG9PCbRkgQ/AsLC7SaS+DPEN39jv08y9y9z2vo3/8Ot5/9+/hbHOc4lu529qBDBe37QIq+iqCN2Nh4QRf+8qX8CFw3ctfwaH9+wnFeZ0qUlnotbFznVtobSYYhzWHmIvnJ1kgLB+hlfawcJBu+xCbNx2g3XqSrZuWOXrwOzhbwVmOWkBtOCGIW9OseuqFglNldnaW3Hte94Yf4tD+/fRWloFh2bUwUUBjoT8pJu1Ir1dg/TOIw1j83qGkqJSn6sLOK7cRsqO0kwEtzegvncB5T76ywK6tsyRhGRdWSILhTIikyovzMIexIy4EvUQElzjMjBtv+gH+4s/+hOWlxVWeEHU0w+KakGLLhAcZUJ6oC4JJCoCRF/e1EWlh1cJ0JIKKQyTj6Ilnme0uIOEQW644zsrykywvP8W2OYflfforTzE39xyDpEO/f5jcd8FmcNIm0AbawAwwD7QvyHwxyzPIYTDI+PpXv0LiTk6dZlPsBKgIZoJKm36+yJZtRm9wkEG+GDex2iyCkLZyujObOXYIWm4LZg4sEKyPmKLWRuQEL3ppn7e/80cY5H/J1S8MWHaUQe9Zup0T+HwZCW3UZslWOsx1r6TXS3n/vfvo5Zt54KH/wOLyPO++8xPk/hqMrSNxv04Na9nJzs5+VulYa6CRXBMQLOo3wTKQPsu9IywuPUl7roj6EOYxlOPLxzHdgclWkDkwx1Ar8sCAYAus9A+y3PsbZuefJdgyaiukuoAfLKCyTJIcQ8xYGhyjteXFGAnve++P4+2F3HXHT+Ja12F+B8JVU7I4FNGQaw0EyxBdQdwC77tvL0EOMDOfoRogdAkhpd/PcGzmnjsfI9gymItKvAgqHgtLiCyxZfMcV+26iv7Kk7zn1scYnIBff+Kn0GSZbHCIMMhptzpsms1ROU4rbbFj+yzPPHecjz18H8eXtnPb7s8ibm39Zn2sRcmzo+p6Ugsacq0BQxREAqpw1217kZk+aasfN7JaG6GNz5V8JWVu9iVY7kZsnKE0HIQEP+iQ9TaT2NU8+uB9SLZA3j+M5gOc65A4CB5mZlKCJQxy8GGGTVuvIdgW+oMZct8hPQU952JCo3OtQrnInCNqqHoGfom4NAPgwFoIaSGpUlrJLCFE/UMsDoeCoeaAHt4fwIen2brlCHtv/9dc8+LNpG6JEI5joYcPOUIAyTGEQEqweRYX57j3g59jpbeLdvdlLC3PE5g7A53rwqAh1yqU5ArRfimGD77YZp8ASfHXFbEeBKcOM49JjooH86gIEhwicGLxIC9/2Qs4fPjr9FaeopUuEfwimI+kwjDLQXy0aokjhJQtW6/i/R/4BFm+k5vfcRebtryQQDI1jjkNuSbCavat6NUApao+GoYSGFmiid9Y1foqCa1kNlrdbQXnBsASvd4CSkoIQAhYkYYhqEtBPWgPwyGyFWQGVAkWbW/T0GjTNYifN8jYu9KBJlrLI2pOf1b+RtEi7LqoIBLvX+ot01vps2luM8t9odPu4tIrCF7jc8WKHT+CGYhLUedx7R553gfr4pI2uR+A+akgFjTkWhP1HS0iOvR2WNM8Xi5SR1U+rt4Y4NHEMTOv5CwgqTEofLt6PkMQVLV6tCEM6EEISM8Xi8FGnvXj0LuhpT63uKiWf0LwvObGmwjBF451FxrjTXkSH3gprvIeMZAQg+fKoLgyTAIeH00LzhMkI0iGl4wgg/gej6EE0+p500QsuIgk1/gaXn238ah78HnLEaP+U7aO1BrDSXa1mgXMQHXSAwvHekpdzgp70rRR6yIiF8TK/MqXvoiqI/e+9vmF9CWvSaFTvv8sk5v44cXhT386uBjGnhGplfscp8prbryp8Hw0QvATvRM2GuW29Kic62lflzvOj+Qa73RjPCklkxVOZi5JUFVarZTllRXSJD0v2Vwbq+PVnBLW3L5/eeAMu9eonWe920prcqB2wJvUbhif9ovS7/f5wp//CQCv/b7vP7MsnjMUBaiOITuNa0LYkVO7Lg0kscmVMizsyTH0hRy63Q7jBJh4gg2K71NMAiY9YpD/BLEEtTS6rlBUp+jQUFk44okIWZbT7c6cy/KeJs6FW/HpSrzxtKaXbIrkRG9nN8GFdjzATxXkh1GHW0M0XkafoEfx7ihBe+SyyK5rlJvv/Je05o7h9ThBBiBWkCgKz8r4WNiIvvf6V/La7/tB/urLX8JpEVr7vGLUZflMLpEz0dWkprPJWF6mC8WwOGmqO0qkcbEtUnutoBL3EqgzAivc9u5foT27iHdP89TBP0Jmv8O/+LnX4Ft/R3AHMV3GxFdpgVQEa3e6OJcQQuC6l9/ADa9+7QWq3rMd2s4k15NIPZ1QLMFKX+1qaaNOrElYv9AGmC5z850/DfpF3nnXj5O3/4Lujq9x2/t+jN3vexOSHiFYr3rO7Nw8S8uLzMzOcv0Nr0JU+MZffYVvfu2rfO0rXzpX5T2POFPJV//tdEOj8BqVXOsTK6JuGrBg+BDIvSf3HlHl0X33gzvEO9/7iwzsOQ4f/zbz23J6+fP0s4O4ZAASEFHMjBe+6MX8g3/447zqNTei6vi773y7Mp5OU/jGUVz2Cr1VyvW5XGAQAiID2m3HwomcmfZOsuU5Unbwucf/E4sLW+mqREVfhG9/8+u02m1eet3L+eqX/7LaXbPe7pIGFzdUhEKBjP7fUHk0rXFF1G1TokLiHK00pZ2mBO/ZvftX6S3M8IkHfofvuerHYPlafv3j/5PZ9Hu59V33keh8sTtGKuX1hle/lq9/9cs41QnS6tLq1ZcD1FtWBJioH5lucRNmoaRPuqh9H9e/PCHEK1FB/SZ+6zNfID94I0vPvpbPfeiP0cUbefCe3+XgsynKZoIJZjGQxQ++4Yf5yz//M4oNuzU3ltrsq/k3Xf+6137AIB4caWOHdk+KyzQuPaxmHhUVgvUwPQ448NuAlCDLiOQgcZu74CDE3chmCig+2CpPiNXSa/oWby9nJOYywBeKdaC+UL92U8rYHYUbnVmhpM/Ee1wOBKRmIEUMCz6aLEJeWbLTVPF+qF/JSfbENbj4kbj2YvVGCvfZSpk+zcYtKTeUeP34vngXzI/cJ0ZlRC3jOZ3NzHB6Z5WXJhJrP1+9GZdHZ9pUa1FS6q4rFsfl4Zf1ycQazz1dsp8l2S6EJ8alhES7B4qXp1+Ra1V+vVFHG7jwqLRyve70Gv98y6VGDp4dEmk9z1quuyfruSer/MkKef3M1NNrvkaSTBcSzwGGO1pGIRPdcE8dozrbuK3s9C3SYY18rgU9S4e90lPjXD3vdNMbx7Sln4guRCv4hDYelxOTTRMTflDcVt5e+oDHqCihimUVquFx+Pz1JhGnq0KdrZwbT2+j5eapVu9pPXPsR+v5L57r9BNCFr25QqFg1/chWMxdac80fJU5Kw2oJZGseG+rM1FNFIp7rLipPmsEkCAkJiO/qQol0aZWVY6cRWMLIz8u7MBFBMDxxeNCTxRAQi0vxbe18p9xdsrymxTpS5Wn8vADEyuO1WOkDerdc2IepPhchvW4Ot2yDmL6Mla5a+XBJjyrjkStDQE0OMQrqaZY7hkGijVQIWggqCeojw6AGlb1AitdTccaXsr/pCBYKV3LxweNBtUBpJqixEZWkcoJNGggkMc84DENiEKI2RumP5JoLZ3xyi0JVpIqJNhASLQ9lr4V5fXkZFX5kUDQkzduqJNYh++FIt8j5RdSaaEVyWP6se5zgsujM6YGgkAoGliKtEuSjAwg5WfRfj1CyPI3ZfrOu8gDU1LXJuS+IlRQH7e+qSeoFR09drqSvDo2qibtbA7LDRcc73zrLVhmQyaHABoLEdTzxOcejw+X2MjSgiAeM18UoOjl440LkcDFGqJ6AVMsAwmKkiBeueVtt2KZkYgj5L6KXhcKcj3+2U/HtCWSnMQwDVVH8MFHEolVZ0tbrdLrjS+mKGmM52AOyZVb3nYbllE1rpSi2BlePE989tMEzbGio2XkkWjFCoWWHYi6RCtimYoiProISNHttYyXWnTsW952GwwMNUEseoug4CWm98TnP110rpzgPD4JBA0IhtTUCSk7Uk28CoL6YbtIUCQTWq5DyAwXlJvfcguJJThcrPSCqp6AV8/jn/1UQbJY/6FIv5yklXkopZs88OkHjGBFJLzo9WwBnLpi13EgYAQJmHh8UaFec/7gD38fX/Umz1PPfhfTvGJ0yeq4N9SRSAsJDofD+ZS3/NxbSWmRuhQ/CCSSQhB8Fmilw00ZsbFi+jEfsbCf+Y3P4F2OJwYBGVgPU48VPQuJZdEgSEjQEEkspjif8I43v5OUlMSl5INAKgmEcmWs5gkqUXoFKaR2kf4nP/treOcx8bHczmMa80hZBwHUBLUkSoWQ4EKC+oS3/tLbSaVFqi3CwJOU6Vc8KVzPpah/ZwSJ677eZXzq85/Au6ySrEHL9IeySwqixrRLMisupLzrl29FMiURFyW1F1KX0lvp02q1sWBFZymHxFDUv5Frzqc+/2tF+4eiw5VcKKwC+/Y9Gru5xQp1roXP43JQXCss2Ihh5JWV3ZwnSwZFhULQnE/9+0/gNa8aoIRaLNjb33wzGhxqsXCzOkvoG+YDnc4MK8t9EpcSvNFut8mzvGrfag2z0Hu8egaaxd4jHq+eJz73yUKyBsqdz5HcUdy//c3vLNKPQ8CsmyX046kQ3U6XleUVEpeMuBnHRfRy/PSFXDa8ejIdjKT/+Gc/WTVweexw5GZM/+ZfuQX1CYm1SCxFvYNcILeR9KP0ieNdqKkndX0vaM7ArZBrhqkV5f80QQuVpSJXJJMGx9t/+R24ov7TkJLmbVxQBAg+4Io48oX4ZwQy5AFl/bseXnOCFOl//vGh2iSGPLbvUbNgReQUqSpVRGPPq0V7sSI00Kg0CVWi9QcPZU45BAyHgbJHaaXAVoJ1KC0YP+TEquG3cvcRK/SOeq8qFb9Rm1pMTwulXYv8aFWJdTKMmElsODyYFUOQyEgvtlKylO+Lnj5cjSiGYXNRv8HVlPcyPWrpT0aldBP94Ib1DUECXkMh2cqb65Irllertoiki+pMKNZyQ838tHrqWAZLKfW6YZmpCBYqpd9IqsqtP8GYEPTCKsU5ziggBj9LigawQmIM7x/9eZSMo0fxWo2I47Cx8lmUKEY1m1GLOowV+S6lSqnJyohZoz4bHpJ4vIzrva7CgROHeRWtqTW1WWVZtnoZyolDQVipflPP/5o1USNWqUNq1F0ZKulB6ukXZS7KW5JZKIfdmmQtD1LQ0bZZjZJW8VnOHOCq9JOCWGVJkiBRuS6yVxWgfH45Da3LEVuVVHnfONuHca7KqDGhIEkptssxPb4z6lyrz3yqJ5baqsShsiZHV03XVs1mjaEppP7sclq1ygwy+swqSpdJYRMa3ik21DFLyb3mk3AAAAXbSURBVFHO0qo7iy/HJ6xlGiXxxstQfSKlBjP0vavqkdoMsMx6rRxlvoZSLaoYsTbqo8do2nVIUd/xGZNGGRtpw6T8ouBjFVhMigeU08xyt4+ZVbVSHTZUy0T9PEGzAMWkoNxNbeX0baLkqFW0SFQoywO6a41pDHNdf716WBv9BBk29iRJIcKEDFGlYyM3SD271SdWf1ccUaJWO1ilRpbYneNsd1i+oXSxotdOMnxWtq56IctcWa0Gqu+GbBsREzLs2iNfTkiz1PdGbhypr9HOk0Q+ekSI27l8zWGwjC5TEqmWqqgQSl3NQhVjajQzCmYEo3JdFgwLAaliUq0emOrlKskabU5F2qukZNlzR2tm1bPGfjZaf6ulbi0TNboy7HTFz+qpl/eZgJdILBcEZzUDZAjViKCF3hjlsEdFoy6IROGiRRilSQSr8jPW5KVwt7KuynvHmaMTPhutkbGutDoTozkZeZeU7sxmhiuOOSsfKzYMgIbVRLwKeT6MoZW2WgwGA1qtVjRd+OJcvorpJSmi7cg5LWakoy1dFaTuVaFRguW5H+3ypwIZq5yT/u7UE5Cxv+MIGMGBC56Zfk7bFyaLmp41nAxEaiEegqEkBG3Rcx3i+onVTucYzeFaOa1UlVU3jH2w1npQfTg/Q1SBSESE3qAXz61Rx+7du2klKf2sz75H9rF7zx4efeRR9uyNf999x14+vu/j7N2zl3379vGe99wZjZjAvkf28e479uLU8dDDD3PXe+7ioYceJITAnr17ePjhj+FUV8XdqprWCvGqwk/8xE+QZRntdvssinkqWEdyncavIEp0JOBlwGxvmc/dcSebsj5BM9Baq5XKr0rUZywHMzJvHKPLy//Jmxhoa5UudPY41d55dkjqM4ayoXOfIyLc/+AD7N2zhyRNMYzde3dXPxSEPXv2xKxaVNI/vu+Rke8feOBBxCDPM+64404effTRmGjioj5Vx4TyisSQjiJR0k0LgoFoPKZFs2W2kbGVFcz6KFG/0uJI4iwfkA9yBKMlUcUYeCPpOBLzG0Cs84dKURr3larP8nq9Hvse2Qcw/LtvHyJSEcYskCYpt+++HQuxR959991keYYRK2337tvjvWE4iyxjcK2FMn6CS1yMkzUFl0scSaK0U0c3VQZLx8gXj5AvHWawsJ/sxH76x56jf+w5/OIh0nyZdr5C1/fp5H22poob9Ipj8aYXI1p4mqbVUJWkaRVtxqny7jvejVPHnr17EI0RaMphEMAHT5Znlc+PU8cjjzxCmqR0Wh0+9vDHCCGeG9hut4e2lXV2VIsoIXja7TaqjiRJcS65+K/E4ZyLFm9RpDuDzcxCdxbpzCGd2Xh1Z5HuHFnSIUu7LEubvuuy6B3amY9Sa2QmMV0YIVe/368Uc5/n3Hnne6rlCB88Dz/0cJRCwUjKyivg1LF3794Rh7Nbb3sXuc+rrf4PP/wxtIi/FaP1rV9rIXjy3FeRBcuZ6cV+Be/x3hM89CXlaGuWA+3NHG5t5WhnO8c62zne3c6x7nb2J5vZn2xhf/sKnu/u5ODsVexPd3JY5ulLQhmffhoh+/Z93OpD0yoFu5DM6jTGKs2y+N1JvFSDD8VwltDrrYycz6duyOlVulcNufe0WilZlpMkjuAv/oquGymVnLbPmMsy2j5D8agUBunSXqqKiWOQe8TiZMDh6GvKYrtLX9OxcEq1tE4i0U5thrxxSEZsGRNmbiWCD1XjlsRajxjls3yekybD4fa0MudcsaCqWLgQEZ1PH8MsKmIJXpWlNGUlsYmtHU2/Cq3aMxCCCJkVFu+1ErO1CXYx1FQCVKHTTzVD65HqssfQsgkoXpTgShKtVcOT7GsGpzAkno0H7EbjvIUKH4krf5mQc7hmd/I7V6P0UImvpxEXVRz6BuOYTlKVaIKlN9gwNJJrFdZaXzxdKXJ5DP3r4TIl13oEqpNotQvP6T3v8ibYpU+u9daj634zNk6g05VUdYKV0++zINclcPrG/wf6x+l7FFg/5wAAAABJRU5ErkJggg==;fontSize=30;" parent="1" vertex="1">
          <mxGeometry x="100" y="380" width="151" height="177" as="geometry" />
        </mxCell>
        <mxCell id="PsIKEqwVILS5Xcvsca47-3" value="" style="shape=image;verticalLabelPosition=bottom;labelBackgroundColor=default;verticalAlign=top;aspect=fixed;imageAspect=0;image=data:image/png,iVBORw0KGgoAAAANSUhEUgAAAJcAAACxCAYAAADJai9SAAAgAElEQVR4nO2dabBl11Xff2vtc+7whp7UgyzLtoQtLMuTEOABUoFAhVQllQAphxSBADHGgyxL6m5LFrJly/KgyVJbxrZkYjtJURAIRYWQSlVSJCm+pJiM8YAnbMBCY8/Dm+695+y98mGfc+659933enzdfbvPv+v0u8O5Z0//vfbaa6+9trzxDfuMBmtATvKdAIYQEHqILID0ATBaBJsHayMIwgD0BEIfMIw2FjbHv8XzZCRNi5+vl4WLHElm117oPEwplLTVJR/0cDbA6QHQ50AOkKQJy705Arsw20FiKSqHEZ5BkkOAYWEHZteQhx0EEQxBTSqKQUEvm96+nwQ2X+g8TCmE/sAhGE6XQI/xoY/cQrt7hKXlZTS5mjt+9bdwyQxhAKpH+fBHb0PdfsAIYRd33fk7iG4ihHlcMo/lHiySK/4ppNeUQm56/f+e5vxfOAikacpg8Pe0Wt/i/gd+AZ9/i3s/eDudziy37r6PtPu93PWej7J5Zob73r8blee59/27AeGDH3yULN/BPff8BoPsBmDXyMONimdTS7AECRc6D1MKYzAYoOLBMiws0Jk5SpC/JWeGzsxx1OWkSUYIT6PueVxYRMkBRWWFdnqIRPcTeCk+BJBIqEisQoJhFcmmDcn09osLCxVBUJTNaP+lfOA9n+H+j7+Kjz36NoIIfrDIXXsep203YNmXCZkn0TbiZwGH+i6IogZqSjAHYoARKoKVqU1nGyUXOgPTCrNAlg3opkAA8wEJRshzAooYzM3PcfTwgNnZNuoSCFn56+KS2gWTp4bCtJJLRwt4sV2ni41+/hAGpGmLwALS+ls+fP87ENvMR+/9be7/wH8Bv4Vf/cAv4Ob+nn5YJGhK0AxzS5g7QXDLBIWAI6hhanEIRBATxBQ1h5hDLIEpvJK1K3k6e8uIgrIuf86ufAJk2YBWCqZKFlokYQdZ70qwBPPbWeoFBrmjo1fh/S5EMrw4BE+gjQ+7yG0XnjYmpSQbWrzMQEQYfjNdkJve8Idr1HIpui9eSJG9kk9ioxJpfSPkycsn62rSBnhEeogcR/VJPnL/T+P0edQgD7u4657fJ/e7aLs2vZXv8tDHfhbnno/k8lfyvvf+N3y4BrN5LLRimsVMcViuaaRVxKVNrpNKrlMh13qS3RNn2wZyEE2+hdNDOIwQriALr8CH7ZCDuiNI8k3UHUYJmN+OD6/CbOfwkWE0P9M6SywxtQq9AUHja7FRCmx8o5QJOAwFDLMdWD6HJ0cIGA4fUpIkQVKH2XZCuIkQsoLTKcjMyNOmnUzjmFpywaQ5VrFKV+gpcelko1qsNnwB0AE2EwkXMMtQGRBCwELAB0ea7IzfG0BAyAC/Qfm78JhacglxRBpO1I1QDHVihUhD1/j12aK+qBwXrsEglB96pLBZmQkiQpooZoO4iF2JKD981iWI6SWXgdZ0LhNFArTbGT58FzMjhCsx5s552pMnCoYUZClXPeKQGfU2M6tkXTUbvGRpFbFRXfu8wIrlkiAKkqJ0sOwQneSPePD+H0XlwPBeO/1lrmopZuwaJZZgaLzE4kWkWkmlWM3lJdV9lzqmVnJZOR5KDtJHxePE4/gmD9z/TwnyBVSfJvidhc+UIzZ59YRTS+gkJBgSyGr2KFnj6UZdXl1i+vsqTC25AAKGhWVEnqXVOobjEHOz38DpMqpzJO67eLsKYxcWuiCuYEOoOeadzJY16VNZ83sbe16kWdTJ6sOgXPLUmvJhEYR2usRHP/STpO5/cf8Db+RDH/lHdLp/T5Ic4MMf+RVUn8fCUvULGxvSTndp6CSWsZFLRkg4vC59WkVMteQSA7FnmZ/5Pzz80HWY/jaSLGH0cG4zps+BPIfKi4uZXPXLU1pSWZtIZ6YvXQ7Sqo6pJVepCil9nOyn2zlKbh5vM2T5NowXEcIVBGaBBFWHWV3nOd8NfXkRC6aUXGYBROM6nHUx/wKWFq4nDzvxNofhyP1LuPue/0sIr8bYAmYoHswKI2tpJmiwUZhKcolEVTGu7m1h4L+Pe+95gjxcjbd5ALx9Bx9uwGwnJg6EaNDkctJ6LiymcuHaIBolxSEs4vRpTHKCbcXoRDsmaZRqpFhBRi2HxcLIKWO7bcZTOVsj5+VO4UTXNS5evOQCCD7HJXPAy/C5EegCaaGPeVRyCoMFMNTTAlGljwve66ntDbnOBkl7mhchVCF4EEhFMXKGC8GljXy10XKo0k9tyacCyWY31F+mEyPONqwuyST5cbnLlPODZFM+AKaZXA0uViS79NL1J2pwYZHsyBcvdB4aXKJIrnRHLnQeGlyiSDbLkxc6Dw0uUSTOvn2h89DgEkWSa0OuBhuDZO7K/ELnocElimSpvbzqQ5viaHYNLh4kh7tXjHxgZg25GpwTJEd3/dCqxRCRZnmkwdlDtl79xpGVa5W4iVO0IViDs0Oy7SX/6mS7pxo0OCMkz+0vN8MP0cisBucCic+XYgxOiUMiSCHJGoo1ODsk3STFa20/n5VboBpyNTg7JDt3XI2X+mbRhlgNzg2S/c88s4pc5e6aBg3OBgkhBx0q9CIaNy+INt6pDc4KiWcBz3C3u6IxNGcZ+4pmI0ODM0PygmtnMDdKn+GWq3pgxoZgDU4PgvvHkTV1i7yNhTuLAUbPf+4aTDWSmRe/roqgB8VccURyWWPBb3BGSMRmRz4oyRXRsKrBmSNZFULR4l5lqX3aUKzBmSBGuZnAniYSTIOzRWMtbbBhaMjVYMOgrBNCSUUKT4kGDU4fCuufy3WpHXbU4PwhsWCIi29EC0ll8QBZH8LY2UzFLLLZwNHgFKDC8OiSbqfLwtISrXaL61/5aqxupS8w6VWDBpMg3avvM1PBJQkWhtvKTMZ3AZVn2ICM6GnNuNlgMqrZoorQ6XToZwM6nQ7Xfs/LUNHCt2vMgbBR8hucArSUVKrKsRPHmZuZ5UUvuZZvfP1rjJ64VcZuL32iG4/VButDfQioKEmSsmlujsXlJQ4dPMBMp0uwUOhjjmjMF0Tia8FddseNNDg9RFOEKNu27yRNW3Q7bY4eOUTAE2xAsBwzBVpEkilCAqQ0kqvBetAQPHPzm9i560q8z+l2W6QtELdCLofJ5QhelvHSw+sypn2s8lttyNVgbWi7leKznL/+xte5/pWvZPuuK8g5QSb7Sef2c/dH/x15+jy5O4B3B/DuCEFXMHyNZA0arIbOdDfx4mtfyqtecyNZlvHia3bRmTtBOvMsN9/xz1jMv8L89sOE1pO42f38wtv+OV5OYNKvznJu0GASZMs1j5k5w8gRzXnl9+/kB36kzdYXLLD/2LeYnd9Cv7+NT+77LG+7+RY68gI++dH/TpLvRK2N2FSeTdXgPEC9F/LMM8gG+OD56lf+DNMj9PKn2bKthWeBwCF+6W0/xezmjMceei9In/Jo3QYN1oJ67/EhEMxYXDhBCIEnHv80Pk+wfCvk21hayNi29QpOHFvEdTcj1kJIkMZjp8E6UCMDAirCzOwcS0sZt73rPkL/Sh689zfZ1H4VV17xGh578D8y17qau+58AAkziLVYyx2sMa82AFCTHiYx6K6qY+v81Zw4uJ1H7/kDZOWVPPS+3+PIU9uwpWv4+Id/l4NPCRo2IdaO3hNjGF+NbHD5QtovfL+pa2NA4sC1Agsrh5iZadPrB/LlJbpbZ1g5fghUmdv0AnxvLpJrZK928cBTSLTR1C4PJCoJGKgKZoGQC91kG74f0ACd2U2EQaDVnUWAvO9QhEnEgnL7//oQGoJdDkhEFFFBpDj+sogEJwgqIKarhzqDScQqcSoEq2M9T9gG0ws1GT3LudyvGP0hpNh9Xdsse4otvt5tpxois9HZphtJdAi0Yp+ixAg3Barh6wxFyOn8bJxIjdSafjSGqgYbhotm7aaRVJceLrjkOlXdrMH04aKQXA2JLk1ccMnV4NJFQ64GG4aGXA02DA25GmwYGnI12DBcFLPFBiWk9nf6w7M35DofkLVpEh0B6jvYy8HEiJ4n00uwZO3l4WbZ+JygRqyhg0CIDprSAwwJbQSHiYElCB3EHNO+T0FlVbCRoZNyE3T3DFEc1GVjxDKBIJ6gGUGPkydP8o69P4l3h/B6FK/7CXoIyLgUOrdaPEZq4tXgzDBR1ohhMiDoIrkc4Mpr4Pa734TOPEUmT5K758j1Od5x278l0FvrKVOFZrZ4HmAoRiDIMsEd4M4P/gw/9fM3kCXfJJl/hnff+zPMbDnI7Xf+PDPzOUafade3oFHozwPGVA3p4/UArn0kSjHr4VrCW299ExKO859/83+AbsFCXvP6nU5U8bkabCQESBDrQmjz2KOP0Ol0SGSewYrw3HNPYnICdAHTRUxXMMliLI4p1k5UmiiB5wHxwBuxFLUZ3vKWvfQWujyx7/fYPPMKXvaS1/O5x3+HkHf52X/zZrLFlQud4XOCRufacBgQMELc9GIzJP5qHnvgD+gf/x7uf+/vc/jpqzjx/FXs+8h/xfkX0e5eVexq16keFmXmmgemOPsXKUZMEMSZYvHOZIWgx4AcrIvgiMp7DpIh1kLDFah1iQdQTG/zNAr9RqDYW1cSa/ghBXm2Fq8T4uAR94CaeMQUzGH4aVa3gIZcG4b6xt9R2ZOgFuPLVuEQpJBQ1SGq9V9NL8Uacm04BKm27jHy/2jwvHhf3JA8/Gya0ZDrvOBU415PN5nG0cwWG2wYGsm1gYjnKk36Zlyfmn79ahIacm0UDJByOLSRL4ZUspFv5bRDuFycKM/obMi1gVgdKqowR4xJqtH3kWDTRrFJh7425NoQFPIqDGeDVoQIWk22ujuzFLQqwlhN0dKcqhLCaFitRqE/TyhtqeMumTL2r37vxY7Xv/GHJ34uEjtGI7k2BJPZIWue6Tw9EmocZoaIVOd0BjMww6k25Dp/mF4CrYU//eP/V72ujlYUwRfDYzMsNjgrmAV+4PVvJBQSrCSWSHNKwXmArXGd7L6LG8NDYB0LJ04A4JIEHzxmgVa73ZDr/GAyccodQrn5uHVxSogFhWQSodVq8fyzzwDwspdfT+IScu85dORQo3NtLEY9HErlN0IQc5FOwRcKymp718WASTasYFYNhYsLUXIlLiHLM9IkJXGuIddGQWqSKh7nHGdQYPiQ0z94mB3Xvpa03eHAwSeZ6XRYWVkqfh0YJdj4MtH5RTBbRTCnSj8b0KbNq2+8iVarxRf+9I9pp63iDm2GxY2AjJFARXAqpEnK8uJxtmyexW3pcPjo39BfeYbULbGyfBDImUSg0bOULgzBfAjVBXFYnOnO4POcLM8QEW563Ru47vobmN+0ubFzbQRWO/tRbDEWfB6YnZ2jt3yYdus47ZkBh499lfnuNmCWYFsI1qnWGFc7HNbfnd8hs7RlmQVEHOocZoGbfvD1HD9+nC9+4U/p9/skLiFttWh3Og25NgqVU6CVw2PAOUd/sETijvOBD/4iu65e4kP33cNTf/s087OvYKXXihszin0ZZlKEWrh4sGnTFl50zTVs2bKFEydOsLC4wN/89TcJIaDqAMizjGwwaMh17lHIG9PCbRkgQ/AsLC7SaS+DPEN39jv08y9y9z2vo3/8Ot5/9+/hbHOc4lu529qBDBe37QIq+iqCN2Nh4QRf+8qX8CFw3ctfwaH9+wnFeZ0qUlnotbFznVtobSYYhzWHmIvnJ1kgLB+hlfawcJBu+xCbNx2g3XqSrZuWOXrwOzhbwVmOWkBtOCGIW9OseuqFglNldnaW3Hte94Yf4tD+/fRWloFh2bUwUUBjoT8pJu1Ir1dg/TOIw1j83qGkqJSn6sLOK7cRsqO0kwEtzegvncB5T76ywK6tsyRhGRdWSILhTIikyovzMIexIy4EvUQElzjMjBtv+gH+4s/+hOWlxVWeEHU0w+KakGLLhAcZUJ6oC4JJCoCRF/e1EWlh1cJ0JIKKQyTj6Ilnme0uIOEQW644zsrykywvP8W2OYflfforTzE39xyDpEO/f5jcd8FmcNIm0AbawAwwD7QvyHwxyzPIYTDI+PpXv0LiTk6dZlPsBKgIZoJKm36+yJZtRm9wkEG+GDex2iyCkLZyujObOXYIWm4LZg4sEKyPmKLWRuQEL3ppn7e/80cY5H/J1S8MWHaUQe9Zup0T+HwZCW3UZslWOsx1r6TXS3n/vfvo5Zt54KH/wOLyPO++8xPk/hqMrSNxv04Na9nJzs5+VulYa6CRXBMQLOo3wTKQPsu9IywuPUl7roj6EOYxlOPLxzHdgclWkDkwx1Ar8sCAYAus9A+y3PsbZuefJdgyaiukuoAfLKCyTJIcQ8xYGhyjteXFGAnve++P4+2F3HXHT+Ja12F+B8JVU7I4FNGQaw0EyxBdQdwC77tvL0EOMDOfoRogdAkhpd/PcGzmnjsfI9gymItKvAgqHgtLiCyxZfMcV+26iv7Kk7zn1scYnIBff+Kn0GSZbHCIMMhptzpsms1ROU4rbbFj+yzPPHecjz18H8eXtnPb7s8ibm39Zn2sRcmzo+p6Ugsacq0BQxREAqpw1217kZk+aasfN7JaG6GNz5V8JWVu9iVY7kZsnKE0HIQEP+iQ9TaT2NU8+uB9SLZA3j+M5gOc65A4CB5mZlKCJQxy8GGGTVuvIdgW+oMZct8hPQU952JCo3OtQrnInCNqqHoGfom4NAPgwFoIaSGpUlrJLCFE/UMsDoeCoeaAHt4fwIen2brlCHtv/9dc8+LNpG6JEI5joYcPOUIAyTGEQEqweRYX57j3g59jpbeLdvdlLC3PE5g7A53rwqAh1yqU5ArRfimGD77YZp8ASfHXFbEeBKcOM49JjooH86gIEhwicGLxIC9/2Qs4fPjr9FaeopUuEfwimI+kwjDLQXy0aokjhJQtW6/i/R/4BFm+k5vfcRebtryQQDI1jjkNuSbCavat6NUApao+GoYSGFmiid9Y1foqCa1kNlrdbQXnBsASvd4CSkoIQAhYkYYhqEtBPWgPwyGyFWQGVAkWbW/T0GjTNYifN8jYu9KBJlrLI2pOf1b+RtEi7LqoIBLvX+ot01vps2luM8t9odPu4tIrCF7jc8WKHT+CGYhLUedx7R553gfr4pI2uR+A+akgFjTkWhP1HS0iOvR2WNM8Xi5SR1U+rt4Y4NHEMTOv5CwgqTEofLt6PkMQVLV6tCEM6EEISM8Xi8FGnvXj0LuhpT63uKiWf0LwvObGmwjBF451FxrjTXkSH3gprvIeMZAQg+fKoLgyTAIeH00LzhMkI0iGl4wgg/gej6EE0+p500QsuIgk1/gaXn238ah78HnLEaP+U7aO1BrDSXa1mgXMQHXSAwvHekpdzgp70rRR6yIiF8TK/MqXvoiqI/e+9vmF9CWvSaFTvv8sk5v44cXhT386uBjGnhGplfscp8prbryp8Hw0QvATvRM2GuW29Kic62lflzvOj+Qa73RjPCklkxVOZi5JUFVarZTllRXSJD0v2Vwbq+PVnBLW3L5/eeAMu9eonWe920prcqB2wJvUbhif9ovS7/f5wp//CQCv/b7vP7MsnjMUBaiOITuNa0LYkVO7Lg0kscmVMizsyTH0hRy63Q7jBJh4gg2K71NMAiY9YpD/BLEEtTS6rlBUp+jQUFk44okIWZbT7c6cy/KeJs6FW/HpSrzxtKaXbIrkRG9nN8GFdjzATxXkh1GHW0M0XkafoEfx7ihBe+SyyK5rlJvv/Je05o7h9ThBBiBWkCgKz8r4WNiIvvf6V/La7/tB/urLX8JpEVr7vGLUZflMLpEz0dWkprPJWF6mC8WwOGmqO0qkcbEtUnutoBL3EqgzAivc9u5foT27iHdP89TBP0Jmv8O/+LnX4Ft/R3AHMV3GxFdpgVQEa3e6OJcQQuC6l9/ADa9+7QWq3rMd2s4k15NIPZ1QLMFKX+1qaaNOrElYv9AGmC5z850/DfpF3nnXj5O3/4Lujq9x2/t+jN3vexOSHiFYr3rO7Nw8S8uLzMzOcv0Nr0JU+MZffYVvfu2rfO0rXzpX5T2POFPJV//tdEOj8BqVXOsTK6JuGrBg+BDIvSf3HlHl0X33gzvEO9/7iwzsOQ4f/zbz23J6+fP0s4O4ZAASEFHMjBe+6MX8g3/447zqNTei6vi773y7Mp5OU/jGUVz2Cr1VyvW5XGAQAiID2m3HwomcmfZOsuU5Unbwucf/E4sLW+mqREVfhG9/8+u02m1eet3L+eqX/7LaXbPe7pIGFzdUhEKBjP7fUHk0rXFF1G1TokLiHK00pZ2mBO/ZvftX6S3M8IkHfofvuerHYPlafv3j/5PZ9Hu59V33keh8sTtGKuX1hle/lq9/9cs41QnS6tLq1ZcD1FtWBJioH5lucRNmoaRPuqh9H9e/PCHEK1FB/SZ+6zNfID94I0vPvpbPfeiP0cUbefCe3+XgsynKZoIJZjGQxQ++4Yf5yz//M4oNuzU3ltrsq/k3Xf+6137AIB4caWOHdk+KyzQuPaxmHhUVgvUwPQ448NuAlCDLiOQgcZu74CDE3chmCig+2CpPiNXSa/oWby9nJOYywBeKdaC+UL92U8rYHYUbnVmhpM/Ee1wOBKRmIEUMCz6aLEJeWbLTVPF+qF/JSfbENbj4kbj2YvVGCvfZSpk+zcYtKTeUeP34vngXzI/cJ0ZlRC3jOZ3NzHB6Z5WXJhJrP1+9GZdHZ9pUa1FS6q4rFsfl4Zf1ycQazz1dsp8l2S6EJ8alhES7B4qXp1+Ra1V+vVFHG7jwqLRyve70Gv98y6VGDp4dEmk9z1quuyfruSer/MkKef3M1NNrvkaSTBcSzwGGO1pGIRPdcE8dozrbuK3s9C3SYY18rgU9S4e90lPjXD3vdNMbx7Sln4guRCv4hDYelxOTTRMTflDcVt5e+oDHqCihimUVquFx+Pz1JhGnq0KdrZwbT2+j5eapVu9pPXPsR+v5L57r9BNCFr25QqFg1/chWMxdac80fJU5Kw2oJZGseG+rM1FNFIp7rLipPmsEkCAkJiO/qQol0aZWVY6cRWMLIz8u7MBFBMDxxeNCTxRAQi0vxbe18p9xdsrymxTpS5Wn8vADEyuO1WOkDerdc2IepPhchvW4Ot2yDmL6Mla5a+XBJjyrjkStDQE0OMQrqaZY7hkGijVQIWggqCeojw6AGlb1AitdTccaXsr/pCBYKV3LxweNBtUBpJqixEZWkcoJNGggkMc84DENiEKI2RumP5JoLZ3xyi0JVpIqJNhASLQ9lr4V5fXkZFX5kUDQkzduqJNYh++FIt8j5RdSaaEVyWP6se5zgsujM6YGgkAoGliKtEuSjAwg5WfRfj1CyPI3ZfrOu8gDU1LXJuS+IlRQH7e+qSeoFR09drqSvDo2qibtbA7LDRcc73zrLVhmQyaHABoLEdTzxOcejw+X2MjSgiAeM18UoOjl440LkcDFGqJ6AVMsAwmKkiBeueVtt2KZkYgj5L6KXhcKcj3+2U/HtCWSnMQwDVVH8MFHEolVZ0tbrdLrjS+mKGmM52AOyZVb3nYbllE1rpSi2BlePE989tMEzbGio2XkkWjFCoWWHYi6RCtimYoiProISNHttYyXWnTsW952GwwMNUEseoug4CWm98TnP110rpzgPD4JBA0IhtTUCSk7Uk28CoL6YbtIUCQTWq5DyAwXlJvfcguJJThcrPSCqp6AV8/jn/1UQbJY/6FIv5yklXkopZs88OkHjGBFJLzo9WwBnLpi13EgYAQJmHh8UaFec/7gD38fX/Umz1PPfhfTvGJ0yeq4N9SRSAsJDofD+ZS3/NxbSWmRuhQ/CCSSQhB8Fmilw00ZsbFi+jEfsbCf+Y3P4F2OJwYBGVgPU48VPQuJZdEgSEjQEEkspjif8I43v5OUlMSl5INAKgmEcmWs5gkqUXoFKaR2kf4nP/treOcx8bHczmMa80hZBwHUBLUkSoWQ4EKC+oS3/tLbSaVFqi3CwJOU6Vc8KVzPpah/ZwSJ677eZXzq85/Au6ySrEHL9IeySwqixrRLMisupLzrl29FMiURFyW1F1KX0lvp02q1sWBFZymHxFDUv5Frzqc+/2tF+4eiw5VcKKwC+/Y9Gru5xQp1roXP43JQXCss2Ihh5JWV3ZwnSwZFhULQnE/9+0/gNa8aoIRaLNjb33wzGhxqsXCzOkvoG+YDnc4MK8t9EpcSvNFut8mzvGrfag2z0Hu8egaaxd4jHq+eJz73yUKyBsqdz5HcUdy//c3vLNKPQ8CsmyX046kQ3U6XleUVEpeMuBnHRfRy/PSFXDa8ejIdjKT/+Gc/WTVweexw5GZM/+ZfuQX1CYm1SCxFvYNcILeR9KP0ieNdqKkndX0vaM7ArZBrhqkV5f80QQuVpSJXJJMGx9t/+R24ov7TkJLmbVxQBAg+4Io48oX4ZwQy5AFl/bseXnOCFOl//vGh2iSGPLbvUbNgReQUqSpVRGPPq0V7sSI00Kg0CVWi9QcPZU45BAyHgbJHaaXAVoJ1KC0YP+TEquG3cvcRK/SOeq8qFb9Rm1pMTwulXYv8aFWJdTKMmElsODyYFUOQyEgvtlKylO+Lnj5cjSiGYXNRv8HVlPcyPWrpT0aldBP94Ib1DUECXkMh2cqb65Irllertoiki+pMKNZyQ838tHrqWAZLKfW6YZmpCBYqpd9IqsqtP8GYEPTCKsU5ziggBj9LigawQmIM7x/9eZSMo0fxWo2I47Cx8lmUKEY1m1GLOowV+S6lSqnJyohZoz4bHpJ4vIzrva7CgROHeRWtqTW1WWVZtnoZyolDQVipflPP/5o1USNWqUNq1F0ZKulB6ukXZS7KW5JZKIfdmmQtD1LQ0bZZjZJW8VnOHOCq9JOCWGVJkiBRuS6yVxWgfH45Da3LEVuVVHnfONuHca7KqDGhIEkptssxPb4z6lyrz3yqJ5baqsShsiZHV03XVs1mjaEppP7sclq1ygwy+swqSpdJYRMa3ik21DFLyb3mk3AAAAXbSURBVFHO0qo7iy/HJ6xlGiXxxstQfSKlBjP0vavqkdoMsMx6rRxlvoZSLaoYsTbqo8do2nVIUd/xGZNGGRtpw6T8ouBjFVhMigeU08xyt4+ZVbVSHTZUy0T9PEGzAMWkoNxNbeX0baLkqFW0SFQoywO6a41pDHNdf716WBv9BBk29iRJIcKEDFGlYyM3SD271SdWf1ccUaJWO1ilRpbYneNsd1i+oXSxotdOMnxWtq56IctcWa0Gqu+GbBsREzLs2iNfTkiz1PdGbhypr9HOk0Q+ekSI27l8zWGwjC5TEqmWqqgQSl3NQhVjajQzCmYEo3JdFgwLAaliUq0emOrlKskabU5F2qukZNlzR2tm1bPGfjZaf6ulbi0TNboy7HTFz+qpl/eZgJdILBcEZzUDZAjViKCF3hjlsEdFoy6IROGiRRilSQSr8jPW5KVwt7KuynvHmaMTPhutkbGutDoTozkZeZeU7sxmhiuOOSsfKzYMgIbVRLwKeT6MoZW2WgwGA1qtVjRd+OJcvorpJSmi7cg5LWakoy1dFaTuVaFRguW5H+3ypwIZq5yT/u7UE5Cxv+MIGMGBC56Zfk7bFyaLmp41nAxEaiEegqEkBG3Rcx3i+onVTucYzeFaOa1UlVU3jH2w1npQfTg/Q1SBSESE3qAXz61Rx+7du2klKf2sz75H9rF7zx4efeRR9uyNf999x14+vu/j7N2zl3379vGe99wZjZjAvkf28e479uLU8dDDD3PXe+7ioYceJITAnr17ePjhj+FUV8XdqprWCvGqwk/8xE+QZRntdvssinkqWEdyncavIEp0JOBlwGxvmc/dcSebsj5BM9Baq5XKr0rUZywHMzJvHKPLy//Jmxhoa5UudPY41d55dkjqM4ayoXOfIyLc/+AD7N2zhyRNMYzde3dXPxSEPXv2xKxaVNI/vu+Rke8feOBBxCDPM+64404effTRmGjioj5Vx4TyisSQjiJR0k0LgoFoPKZFs2W2kbGVFcz6KFG/0uJI4iwfkA9yBKMlUcUYeCPpOBLzG0Cs84dKURr3larP8nq9Hvse2Qcw/LtvHyJSEcYskCYpt+++HQuxR959991keYYRK2337tvjvWE4iyxjcK2FMn6CS1yMkzUFl0scSaK0U0c3VQZLx8gXj5AvHWawsJ/sxH76x56jf+w5/OIh0nyZdr5C1/fp5H22poob9Ipj8aYXI1p4mqbVUJWkaRVtxqny7jvejVPHnr17EI0RaMphEMAHT5Znlc+PU8cjjzxCmqR0Wh0+9vDHCCGeG9hut4e2lXV2VIsoIXja7TaqjiRJcS65+K/E4ZyLFm9RpDuDzcxCdxbpzCGd2Xh1Z5HuHFnSIUu7LEubvuuy6B3amY9Sa2QmMV0YIVe/368Uc5/n3Hnne6rlCB88Dz/0cJRCwUjKyivg1LF3794Rh7Nbb3sXuc+rrf4PP/wxtIi/FaP1rV9rIXjy3FeRBcuZ6cV+Be/x3hM89CXlaGuWA+3NHG5t5WhnO8c62zne3c6x7nb2J5vZn2xhf/sKnu/u5ODsVexPd3JY5ulLQhmffhoh+/Z93OpD0yoFu5DM6jTGKs2y+N1JvFSDD8VwltDrrYycz6duyOlVulcNufe0WilZlpMkjuAv/oquGymVnLbPmMsy2j5D8agUBunSXqqKiWOQe8TiZMDh6GvKYrtLX9OxcEq1tE4i0U5thrxxSEZsGRNmbiWCD1XjlsRajxjls3yekybD4fa0MudcsaCqWLgQEZ1PH8MsKmIJXpWlNGUlsYmtHU2/Cq3aMxCCCJkVFu+1ErO1CXYx1FQCVKHTTzVD65HqssfQsgkoXpTgShKtVcOT7GsGpzAkno0H7EbjvIUKH4krf5mQc7hmd/I7V6P0UImvpxEXVRz6BuOYTlKVaIKlN9gwNJJrFdZaXzxdKXJ5DP3r4TIl13oEqpNotQvP6T3v8ibYpU+u9daj634zNk6g05VUdYKV0++zINclcPrG/wf6x+l7FFg/5wAAAABJRU5ErkJggg==;fontSize=30;" parent="1" vertex="1">
          <mxGeometry x="110" y="390" width="151" height="177" as="geometry" />
        </mxCell>
        <mxCell id="PsIKEqwVILS5Xcvsca47-6" style="edgeStyle=orthogonalEdgeStyle;rounded=1;orthogonalLoop=1;jettySize=auto;html=1;exitX=1;exitY=0.5;exitDx=0;exitDy=0;fontSize=30;strokeColor=#A3A3A3;jumpSize=14;" parent="1" source="PsIKEqwVILS5Xcvsca47-4" target="PsIKEqwVILS5Xcvsca47-5" edge="1">
          <mxGeometry relative="1" as="geometry" />
        </mxCell>
        <mxCell id="PsIKEqwVILS5Xcvsca47-4" value="" style="shape=image;verticalLabelPosition=bottom;labelBackgroundColor=default;verticalAlign=top;aspect=fixed;imageAspect=0;image=data:image/png,iVBORw0KGgoAAAANSUhEUgAAAJcAAACxCAYAAADJai9SAAAgAElEQVR4nO2dabBl11Xff2vtc+7whp7UgyzLtoQtLMuTEOABUoFAhVQllQAphxSBADHGgyxL6m5LFrJly/KgyVJbxrZkYjtJURAIRYWQSlVSJCm+pJiM8YAnbMBCY8/Dm+695+y98mGfc+659933enzdfbvPv+v0u8O5Z0//vfbaa6+9trzxDfuMBmtATvKdAIYQEHqILID0ATBaBJsHayMIwgD0BEIfMIw2FjbHv8XzZCRNi5+vl4WLHElm117oPEwplLTVJR/0cDbA6QHQ50AOkKQJy705Arsw20FiKSqHEZ5BkkOAYWEHZteQhx0EEQxBTSqKQUEvm96+nwQ2X+g8TCmE/sAhGE6XQI/xoY/cQrt7hKXlZTS5mjt+9bdwyQxhAKpH+fBHb0PdfsAIYRd33fk7iG4ihHlcMo/lHiySK/4ppNeUQm56/f+e5vxfOAikacpg8Pe0Wt/i/gd+AZ9/i3s/eDudziy37r6PtPu93PWej7J5Zob73r8blee59/27AeGDH3yULN/BPff8BoPsBmDXyMONimdTS7AECRc6D1MKYzAYoOLBMiws0Jk5SpC/JWeGzsxx1OWkSUYIT6PueVxYRMkBRWWFdnqIRPcTeCk+BJBIqEisQoJhFcmmDcn09osLCxVBUJTNaP+lfOA9n+H+j7+Kjz36NoIIfrDIXXsep203YNmXCZkn0TbiZwGH+i6IogZqSjAHYoARKoKVqU1nGyUXOgPTCrNAlg3opkAA8wEJRshzAooYzM3PcfTwgNnZNuoSCFn56+KS2gWTp4bCtJJLRwt4sV2ni41+/hAGpGmLwALS+ls+fP87ENvMR+/9be7/wH8Bv4Vf/cAv4Ob+nn5YJGhK0AxzS5g7QXDLBIWAI6hhanEIRBATxBQ1h5hDLIEpvJK1K3k6e8uIgrIuf86ufAJk2YBWCqZKFlokYQdZ70qwBPPbWeoFBrmjo1fh/S5EMrw4BE+gjQ+7yG0XnjYmpSQbWrzMQEQYfjNdkJve8Idr1HIpui9eSJG9kk9ioxJpfSPkycsn62rSBnhEeogcR/VJPnL/T+P0edQgD7u4657fJ/e7aLs2vZXv8tDHfhbnno/k8lfyvvf+N3y4BrN5LLRimsVMcViuaaRVxKVNrpNKrlMh13qS3RNn2wZyEE2+hdNDOIwQriALr8CH7ZCDuiNI8k3UHUYJmN+OD6/CbOfwkWE0P9M6SywxtQq9AUHja7FRCmx8o5QJOAwFDLMdWD6HJ0cIGA4fUpIkQVKH2XZCuIkQsoLTKcjMyNOmnUzjmFpywaQ5VrFKV+gpcelko1qsNnwB0AE2EwkXMMtQGRBCwELAB0ea7IzfG0BAyAC/Qfm78JhacglxRBpO1I1QDHVihUhD1/j12aK+qBwXrsEglB96pLBZmQkiQpooZoO4iF2JKD981iWI6SWXgdZ0LhNFArTbGT58FzMjhCsx5s552pMnCoYUZClXPeKQGfU2M6tkXTUbvGRpFbFRXfu8wIrlkiAKkqJ0sOwQneSPePD+H0XlwPBeO/1lrmopZuwaJZZgaLzE4kWkWkmlWM3lJdV9lzqmVnJZOR5KDtJHxePE4/gmD9z/TwnyBVSfJvidhc+UIzZ59YRTS+gkJBgSyGr2KFnj6UZdXl1i+vsqTC25AAKGhWVEnqXVOobjEHOz38DpMqpzJO67eLsKYxcWuiCuYEOoOeadzJY16VNZ83sbe16kWdTJ6sOgXPLUmvJhEYR2usRHP/STpO5/cf8Db+RDH/lHdLp/T5Ic4MMf+RVUn8fCUvULGxvSTndp6CSWsZFLRkg4vC59WkVMteQSA7FnmZ/5Pzz80HWY/jaSLGH0cG4zps+BPIfKi4uZXPXLU1pSWZtIZ6YvXQ7Sqo6pJVepCil9nOyn2zlKbh5vM2T5NowXEcIVBGaBBFWHWV3nOd8NfXkRC6aUXGYBROM6nHUx/wKWFq4nDzvxNofhyP1LuPue/0sIr8bYAmYoHswKI2tpJmiwUZhKcolEVTGu7m1h4L+Pe+95gjxcjbd5ALx9Bx9uwGwnJg6EaNDkctJ6LiymcuHaIBolxSEs4vRpTHKCbcXoRDsmaZRqpFhBRi2HxcLIKWO7bcZTOVsj5+VO4UTXNS5evOQCCD7HJXPAy/C5EegCaaGPeVRyCoMFMNTTAlGljwve66ntDbnOBkl7mhchVCF4EEhFMXKGC8GljXy10XKo0k9tyacCyWY31F+mEyPONqwuyST5cbnLlPODZFM+AKaZXA0uViS79NL1J2pwYZHsyBcvdB4aXKJIrnRHLnQeGlyiSDbLkxc6Dw0uUSTOvn2h89DgEkWSa0OuBhuDZO7K/ELnocElimSpvbzqQ5viaHYNLh4kh7tXjHxgZg25GpwTJEd3/dCqxRCRZnmkwdlDtl79xpGVa5W4iVO0IViDs0Oy7SX/6mS7pxo0OCMkz+0vN8MP0cisBucCic+XYgxOiUMiSCHJGoo1ODsk3STFa20/n5VboBpyNTg7JDt3XI2X+mbRhlgNzg2S/c88s4pc5e6aBg3OBgkhBx0q9CIaNy+INt6pDc4KiWcBz3C3u6IxNGcZ+4pmI0ODM0PygmtnMDdKn+GWq3pgxoZgDU4PgvvHkTV1i7yNhTuLAUbPf+4aTDWSmRe/roqgB8VccURyWWPBb3BGSMRmRz4oyRXRsKrBmSNZFULR4l5lqX3aUKzBmSBGuZnAniYSTIOzRWMtbbBhaMjVYMOgrBNCSUUKT4kGDU4fCuufy3WpHXbU4PwhsWCIi29EC0ll8QBZH8LY2UzFLLLZwNHgFKDC8OiSbqfLwtISrXaL61/5aqxupS8w6VWDBpMg3avvM1PBJQkWhtvKTMZ3AZVn2ICM6GnNuNlgMqrZoorQ6XToZwM6nQ7Xfs/LUNHCt2vMgbBR8hucArSUVKrKsRPHmZuZ5UUvuZZvfP1rjJ64VcZuL32iG4/VButDfQioKEmSsmlujsXlJQ4dPMBMp0uwUOhjjmjMF0Tia8FddseNNDg9RFOEKNu27yRNW3Q7bY4eOUTAE2xAsBwzBVpEkilCAqQ0kqvBetAQPHPzm9i560q8z+l2W6QtELdCLofJ5QhelvHSw+sypn2s8lttyNVgbWi7leKznL/+xte5/pWvZPuuK8g5QSb7Sef2c/dH/x15+jy5O4B3B/DuCEFXMHyNZA0arIbOdDfx4mtfyqtecyNZlvHia3bRmTtBOvMsN9/xz1jMv8L89sOE1pO42f38wtv+OV5OYNKvznJu0GASZMs1j5k5w8gRzXnl9+/kB36kzdYXLLD/2LeYnd9Cv7+NT+77LG+7+RY68gI++dH/TpLvRK2N2FSeTdXgPEC9F/LMM8gG+OD56lf+DNMj9PKn2bKthWeBwCF+6W0/xezmjMceei9In/Jo3QYN1oJ67/EhEMxYXDhBCIEnHv80Pk+wfCvk21hayNi29QpOHFvEdTcj1kJIkMZjp8E6UCMDAirCzOwcS0sZt73rPkL/Sh689zfZ1H4VV17xGh578D8y17qau+58AAkziLVYyx2sMa82AFCTHiYx6K6qY+v81Zw4uJ1H7/kDZOWVPPS+3+PIU9uwpWv4+Id/l4NPCRo2IdaO3hNjGF+NbHD5QtovfL+pa2NA4sC1Agsrh5iZadPrB/LlJbpbZ1g5fghUmdv0AnxvLpJrZK928cBTSLTR1C4PJCoJGKgKZoGQC91kG74f0ACd2U2EQaDVnUWAvO9QhEnEgnL7//oQGoJdDkhEFFFBpDj+sogEJwgqIKarhzqDScQqcSoEq2M9T9gG0ws1GT3LudyvGP0hpNh9Xdsse4otvt5tpxois9HZphtJdAi0Yp+ixAg3Barh6wxFyOn8bJxIjdSafjSGqgYbhotm7aaRVJceLrjkOlXdrMH04aKQXA2JLk1ccMnV4NJFQ64GG4aGXA02DA25GmwYGnI12DBcFLPFBiWk9nf6w7M35DofkLVpEh0B6jvYy8HEiJ4n00uwZO3l4WbZ+JygRqyhg0CIDprSAwwJbQSHiYElCB3EHNO+T0FlVbCRoZNyE3T3DFEc1GVjxDKBIJ6gGUGPkydP8o69P4l3h/B6FK/7CXoIyLgUOrdaPEZq4tXgzDBR1ohhMiDoIrkc4Mpr4Pa734TOPEUmT5K758j1Od5x278l0FvrKVOFZrZ4HmAoRiDIMsEd4M4P/gw/9fM3kCXfJJl/hnff+zPMbDnI7Xf+PDPzOUafade3oFHozwPGVA3p4/UArn0kSjHr4VrCW299ExKO859/83+AbsFCXvP6nU5U8bkabCQESBDrQmjz2KOP0Ol0SGSewYrw3HNPYnICdAHTRUxXMMliLI4p1k5UmiiB5wHxwBuxFLUZ3vKWvfQWujyx7/fYPPMKXvaS1/O5x3+HkHf52X/zZrLFlQud4XOCRufacBgQMELc9GIzJP5qHnvgD+gf/x7uf+/vc/jpqzjx/FXs+8h/xfkX0e5eVexq16keFmXmmgemOPsXKUZMEMSZYvHOZIWgx4AcrIvgiMp7DpIh1kLDFah1iQdQTG/zNAr9RqDYW1cSa/ghBXm2Fq8T4uAR94CaeMQUzGH4aVa3gIZcG4b6xt9R2ZOgFuPLVuEQpJBQ1SGq9V9NL8Uacm04BKm27jHy/2jwvHhf3JA8/Gya0ZDrvOBU415PN5nG0cwWG2wYGsm1gYjnKk36Zlyfmn79ahIacm0UDJByOLSRL4ZUspFv5bRDuFycKM/obMi1gVgdKqowR4xJqtH3kWDTRrFJh7425NoQFPIqDGeDVoQIWk22ujuzFLQqwlhN0dKcqhLCaFitRqE/TyhtqeMumTL2r37vxY7Xv/GHJ34uEjtGI7k2BJPZIWue6Tw9EmocZoaIVOd0BjMww6k25Dp/mF4CrYU//eP/V72ujlYUwRfDYzMsNjgrmAV+4PVvJBQSrCSWSHNKwXmArXGd7L6LG8NDYB0LJ04A4JIEHzxmgVa73ZDr/GAyccodQrn5uHVxSogFhWQSodVq8fyzzwDwspdfT+IScu85dORQo3NtLEY9HErlN0IQc5FOwRcKymp718WASTasYFYNhYsLUXIlLiHLM9IkJXGuIddGQWqSKh7nHGdQYPiQ0z94mB3Xvpa03eHAwSeZ6XRYWVkqfh0YJdj4MtH5RTBbRTCnSj8b0KbNq2+8iVarxRf+9I9pp63iDm2GxY2AjJFARXAqpEnK8uJxtmyexW3pcPjo39BfeYbULbGyfBDImUSg0bOULgzBfAjVBXFYnOnO4POcLM8QEW563Ru47vobmN+0ubFzbQRWO/tRbDEWfB6YnZ2jt3yYdus47ZkBh499lfnuNmCWYFsI1qnWGFc7HNbfnd8hs7RlmQVEHOocZoGbfvD1HD9+nC9+4U/p9/skLiFttWh3Og25NgqVU6CVw2PAOUd/sETijvOBD/4iu65e4kP33cNTf/s087OvYKXXihszin0ZZlKEWrh4sGnTFl50zTVs2bKFEydOsLC4wN/89TcJIaDqAMizjGwwaMh17lHIG9PCbRkgQ/AsLC7SaS+DPEN39jv08y9y9z2vo3/8Ot5/9+/hbHOc4lu529qBDBe37QIq+iqCN2Nh4QRf+8qX8CFw3ctfwaH9+wnFeZ0qUlnotbFznVtobSYYhzWHmIvnJ1kgLB+hlfawcJBu+xCbNx2g3XqSrZuWOXrwOzhbwVmOWkBtOCGIW9OseuqFglNldnaW3Hte94Yf4tD+/fRWloFh2bUwUUBjoT8pJu1Ir1dg/TOIw1j83qGkqJSn6sLOK7cRsqO0kwEtzegvncB5T76ywK6tsyRhGRdWSILhTIikyovzMIexIy4EvUQElzjMjBtv+gH+4s/+hOWlxVWeEHU0w+KakGLLhAcZUJ6oC4JJCoCRF/e1EWlh1cJ0JIKKQyTj6Ilnme0uIOEQW644zsrykywvP8W2OYflfforTzE39xyDpEO/f5jcd8FmcNIm0AbawAwwD7QvyHwxyzPIYTDI+PpXv0LiTk6dZlPsBKgIZoJKm36+yJZtRm9wkEG+GDex2iyCkLZyujObOXYIWm4LZg4sEKyPmKLWRuQEL3ppn7e/80cY5H/J1S8MWHaUQe9Zup0T+HwZCW3UZslWOsx1r6TXS3n/vfvo5Zt54KH/wOLyPO++8xPk/hqMrSNxv04Na9nJzs5+VulYa6CRXBMQLOo3wTKQPsu9IywuPUl7roj6EOYxlOPLxzHdgclWkDkwx1Ar8sCAYAus9A+y3PsbZuefJdgyaiukuoAfLKCyTJIcQ8xYGhyjteXFGAnve++P4+2F3HXHT+Ja12F+B8JVU7I4FNGQaw0EyxBdQdwC77tvL0EOMDOfoRogdAkhpd/PcGzmnjsfI9gymItKvAgqHgtLiCyxZfMcV+26iv7Kk7zn1scYnIBff+Kn0GSZbHCIMMhptzpsms1ROU4rbbFj+yzPPHecjz18H8eXtnPb7s8ibm39Zn2sRcmzo+p6Ugsacq0BQxREAqpw1217kZk+aasfN7JaG6GNz5V8JWVu9iVY7kZsnKE0HIQEP+iQ9TaT2NU8+uB9SLZA3j+M5gOc65A4CB5mZlKCJQxy8GGGTVuvIdgW+oMZct8hPQU952JCo3OtQrnInCNqqHoGfom4NAPgwFoIaSGpUlrJLCFE/UMsDoeCoeaAHt4fwIen2brlCHtv/9dc8+LNpG6JEI5joYcPOUIAyTGEQEqweRYX57j3g59jpbeLdvdlLC3PE5g7A53rwqAh1yqU5ArRfimGD77YZp8ASfHXFbEeBKcOM49JjooH86gIEhwicGLxIC9/2Qs4fPjr9FaeopUuEfwimI+kwjDLQXy0aokjhJQtW6/i/R/4BFm+k5vfcRebtryQQDI1jjkNuSbCavat6NUApao+GoYSGFmiid9Y1foqCa1kNlrdbQXnBsASvd4CSkoIQAhYkYYhqEtBPWgPwyGyFWQGVAkWbW/T0GjTNYifN8jYu9KBJlrLI2pOf1b+RtEi7LqoIBLvX+ot01vps2luM8t9odPu4tIrCF7jc8WKHT+CGYhLUedx7R553gfr4pI2uR+A+akgFjTkWhP1HS0iOvR2WNM8Xi5SR1U+rt4Y4NHEMTOv5CwgqTEofLt6PkMQVLV6tCEM6EEISM8Xi8FGnvXj0LuhpT63uKiWf0LwvObGmwjBF451FxrjTXkSH3gprvIeMZAQg+fKoLgyTAIeH00LzhMkI0iGl4wgg/gej6EE0+p500QsuIgk1/gaXn238ah78HnLEaP+U7aO1BrDSXa1mgXMQHXSAwvHekpdzgp70rRR6yIiF8TK/MqXvoiqI/e+9vmF9CWvSaFTvv8sk5v44cXhT386uBjGnhGplfscp8prbryp8Hw0QvATvRM2GuW29Kic62lflzvOj+Qa73RjPCklkxVOZi5JUFVarZTllRXSJD0v2Vwbq+PVnBLW3L5/eeAMu9eonWe920prcqB2wJvUbhif9ovS7/f5wp//CQCv/b7vP7MsnjMUBaiOITuNa0LYkVO7Lg0kscmVMizsyTH0hRy63Q7jBJh4gg2K71NMAiY9YpD/BLEEtTS6rlBUp+jQUFk44okIWZbT7c6cy/KeJs6FW/HpSrzxtKaXbIrkRG9nN8GFdjzATxXkh1GHW0M0XkafoEfx7ihBe+SyyK5rlJvv/Je05o7h9ThBBiBWkCgKz8r4WNiIvvf6V/La7/tB/urLX8JpEVr7vGLUZflMLpEz0dWkprPJWF6mC8WwOGmqO0qkcbEtUnutoBL3EqgzAivc9u5foT27iHdP89TBP0Jmv8O/+LnX4Ft/R3AHMV3GxFdpgVQEa3e6OJcQQuC6l9/ADa9+7QWq3rMd2s4k15NIPZ1QLMFKX+1qaaNOrElYv9AGmC5z850/DfpF3nnXj5O3/4Lujq9x2/t+jN3vexOSHiFYr3rO7Nw8S8uLzMzOcv0Nr0JU+MZffYVvfu2rfO0rXzpX5T2POFPJV//tdEOj8BqVXOsTK6JuGrBg+BDIvSf3HlHl0X33gzvEO9/7iwzsOQ4f/zbz23J6+fP0s4O4ZAASEFHMjBe+6MX8g3/447zqNTei6vi773y7Mp5OU/jGUVz2Cr1VyvW5XGAQAiID2m3HwomcmfZOsuU5Unbwucf/E4sLW+mqREVfhG9/8+u02m1eet3L+eqX/7LaXbPe7pIGFzdUhEKBjP7fUHk0rXFF1G1TokLiHK00pZ2mBO/ZvftX6S3M8IkHfofvuerHYPlafv3j/5PZ9Hu59V33keh8sTtGKuX1hle/lq9/9cs41QnS6tLq1ZcD1FtWBJioH5lucRNmoaRPuqh9H9e/PCHEK1FB/SZ+6zNfID94I0vPvpbPfeiP0cUbefCe3+XgsynKZoIJZjGQxQ++4Yf5yz//M4oNuzU3ltrsq/k3Xf+6137AIB4caWOHdk+KyzQuPaxmHhUVgvUwPQ448NuAlCDLiOQgcZu74CDE3chmCig+2CpPiNXSa/oWby9nJOYywBeKdaC+UL92U8rYHYUbnVmhpM/Ee1wOBKRmIEUMCz6aLEJeWbLTVPF+qF/JSfbENbj4kbj2YvVGCvfZSpk+zcYtKTeUeP34vngXzI/cJ0ZlRC3jOZ3NzHB6Z5WXJhJrP1+9GZdHZ9pUa1FS6q4rFsfl4Zf1ycQazz1dsp8l2S6EJ8alhES7B4qXp1+Ra1V+vVFHG7jwqLRyve70Gv98y6VGDp4dEmk9z1quuyfruSer/MkKef3M1NNrvkaSTBcSzwGGO1pGIRPdcE8dozrbuK3s9C3SYY18rgU9S4e90lPjXD3vdNMbx7Sln4guRCv4hDYelxOTTRMTflDcVt5e+oDHqCihimUVquFx+Pz1JhGnq0KdrZwbT2+j5eapVu9pPXPsR+v5L57r9BNCFr25QqFg1/chWMxdac80fJU5Kw2oJZGseG+rM1FNFIp7rLipPmsEkCAkJiO/qQol0aZWVY6cRWMLIz8u7MBFBMDxxeNCTxRAQi0vxbe18p9xdsrymxTpS5Wn8vADEyuO1WOkDerdc2IepPhchvW4Ot2yDmL6Mla5a+XBJjyrjkStDQE0OMQrqaZY7hkGijVQIWggqCeojw6AGlb1AitdTccaXsr/pCBYKV3LxweNBtUBpJqixEZWkcoJNGggkMc84DENiEKI2RumP5JoLZ3xyi0JVpIqJNhASLQ9lr4V5fXkZFX5kUDQkzduqJNYh++FIt8j5RdSaaEVyWP6se5zgsujM6YGgkAoGliKtEuSjAwg5WfRfj1CyPI3ZfrOu8gDU1LXJuS+IlRQH7e+qSeoFR09drqSvDo2qibtbA7LDRcc73zrLVhmQyaHABoLEdTzxOcejw+X2MjSgiAeM18UoOjl440LkcDFGqJ6AVMsAwmKkiBeueVtt2KZkYgj5L6KXhcKcj3+2U/HtCWSnMQwDVVH8MFHEolVZ0tbrdLrjS+mKGmM52AOyZVb3nYbllE1rpSi2BlePE989tMEzbGio2XkkWjFCoWWHYi6RCtimYoiProISNHttYyXWnTsW952GwwMNUEseoug4CWm98TnP110rpzgPD4JBA0IhtTUCSk7Uk28CoL6YbtIUCQTWq5DyAwXlJvfcguJJThcrPSCqp6AV8/jn/1UQbJY/6FIv5yklXkopZs88OkHjGBFJLzo9WwBnLpi13EgYAQJmHh8UaFec/7gD38fX/Umz1PPfhfTvGJ0yeq4N9SRSAsJDofD+ZS3/NxbSWmRuhQ/CCSSQhB8Fmilw00ZsbFi+jEfsbCf+Y3P4F2OJwYBGVgPU48VPQuJZdEgSEjQEEkspjif8I43v5OUlMSl5INAKgmEcmWs5gkqUXoFKaR2kf4nP/treOcx8bHczmMa80hZBwHUBLUkSoWQ4EKC+oS3/tLbSaVFqi3CwJOU6Vc8KVzPpah/ZwSJ677eZXzq85/Au6ySrEHL9IeySwqixrRLMisupLzrl29FMiURFyW1F1KX0lvp02q1sWBFZymHxFDUv5Frzqc+/2tF+4eiw5VcKKwC+/Y9Gru5xQp1roXP43JQXCss2Ihh5JWV3ZwnSwZFhULQnE/9+0/gNa8aoIRaLNjb33wzGhxqsXCzOkvoG+YDnc4MK8t9EpcSvNFut8mzvGrfag2z0Hu8egaaxd4jHq+eJz73yUKyBsqdz5HcUdy//c3vLNKPQ8CsmyX046kQ3U6XleUVEpeMuBnHRfRy/PSFXDa8ejIdjKT/+Gc/WTVweexw5GZM/+ZfuQX1CYm1SCxFvYNcILeR9KP0ieNdqKkndX0vaM7ArZBrhqkV5f80QQuVpSJXJJMGx9t/+R24ov7TkJLmbVxQBAg+4Io48oX4ZwQy5AFl/bseXnOCFOl//vGh2iSGPLbvUbNgReQUqSpVRGPPq0V7sSI00Kg0CVWi9QcPZU45BAyHgbJHaaXAVoJ1KC0YP+TEquG3cvcRK/SOeq8qFb9Rm1pMTwulXYv8aFWJdTKMmElsODyYFUOQyEgvtlKylO+Lnj5cjSiGYXNRv8HVlPcyPWrpT0aldBP94Ib1DUECXkMh2cqb65Irllertoiki+pMKNZyQ838tHrqWAZLKfW6YZmpCBYqpd9IqsqtP8GYEPTCKsU5ziggBj9LigawQmIM7x/9eZSMo0fxWo2I47Cx8lmUKEY1m1GLOowV+S6lSqnJyohZoz4bHpJ4vIzrva7CgROHeRWtqTW1WWVZtnoZyolDQVipflPP/5o1USNWqUNq1F0ZKulB6ukXZS7KW5JZKIfdmmQtD1LQ0bZZjZJW8VnOHOCq9JOCWGVJkiBRuS6yVxWgfH45Da3LEVuVVHnfONuHca7KqDGhIEkptssxPb4z6lyrz3yqJ5baqsShsiZHV03XVs1mjaEppP7sclq1ygwy+swqSpdJYRMa3ik21DFLyb3mk3AAAAXbSURBVFHO0qo7iy/HJ6xlGiXxxstQfSKlBjP0vavqkdoMsMx6rRxlvoZSLaoYsTbqo8do2nVIUd/xGZNGGRtpw6T8ouBjFVhMigeU08xyt4+ZVbVSHTZUy0T9PEGzAMWkoNxNbeX0baLkqFW0SFQoywO6a41pDHNdf716WBv9BBk29iRJIcKEDFGlYyM3SD271SdWf1ccUaJWO1ilRpbYneNsd1i+oXSxotdOMnxWtq56IctcWa0Gqu+GbBsREzLs2iNfTkiz1PdGbhypr9HOk0Q+ekSI27l8zWGwjC5TEqmWqqgQSl3NQhVjajQzCmYEo3JdFgwLAaliUq0emOrlKskabU5F2qukZNlzR2tm1bPGfjZaf6ulbi0TNboy7HTFz+qpl/eZgJdILBcEZzUDZAjViKCF3hjlsEdFoy6IROGiRRilSQSr8jPW5KVwt7KuynvHmaMTPhutkbGutDoTozkZeZeU7sxmhiuOOSsfKzYMgIbVRLwKeT6MoZW2WgwGA1qtVjRd+OJcvorpJSmi7cg5LWakoy1dFaTuVaFRguW5H+3ypwIZq5yT/u7UE5Cxv+MIGMGBC56Zfk7bFyaLmp41nAxEaiEegqEkBG3Rcx3i+onVTucYzeFaOa1UlVU3jH2w1npQfTg/Q1SBSESE3qAXz61Rx+7du2klKf2sz75H9rF7zx4efeRR9uyNf999x14+vu/j7N2zl3379vGe99wZjZjAvkf28e479uLU8dDDD3PXe+7ioYceJITAnr17ePjhj+FUV8XdqprWCvGqwk/8xE+QZRntdvssinkqWEdyncavIEp0JOBlwGxvmc/dcSebsj5BM9Baq5XKr0rUZywHMzJvHKPLy//Jmxhoa5UudPY41d55dkjqM4ayoXOfIyLc/+AD7N2zhyRNMYzde3dXPxSEPXv2xKxaVNI/vu+Rke8feOBBxCDPM+64404effTRmGjioj5Vx4TyisSQjiJR0k0LgoFoPKZFs2W2kbGVFcz6KFG/0uJI4iwfkA9yBKMlUcUYeCPpOBLzG0Cs84dKURr3larP8nq9Hvse2Qcw/LtvHyJSEcYskCYpt+++HQuxR959991keYYRK2337tvjvWE4iyxjcK2FMn6CS1yMkzUFl0scSaK0U0c3VQZLx8gXj5AvHWawsJ/sxH76x56jf+w5/OIh0nyZdr5C1/fp5H22poob9Ipj8aYXI1p4mqbVUJWkaRVtxqny7jvejVPHnr17EI0RaMphEMAHT5Znlc+PU8cjjzxCmqR0Wh0+9vDHCCGeG9hut4e2lXV2VIsoIXja7TaqjiRJcS65+K/E4ZyLFm9RpDuDzcxCdxbpzCGd2Xh1Z5HuHFnSIUu7LEubvuuy6B3amY9Sa2QmMV0YIVe/368Uc5/n3Hnne6rlCB88Dz/0cJRCwUjKyivg1LF3794Rh7Nbb3sXuc+rrf4PP/wxtIi/FaP1rV9rIXjy3FeRBcuZ6cV+Be/x3hM89CXlaGuWA+3NHG5t5WhnO8c62zne3c6x7nb2J5vZn2xhf/sKnu/u5ODsVexPd3JY5ulLQhmffhoh+/Z93OpD0yoFu5DM6jTGKs2y+N1JvFSDD8VwltDrrYycz6duyOlVulcNufe0WilZlpMkjuAv/oquGymVnLbPmMsy2j5D8agUBunSXqqKiWOQe8TiZMDh6GvKYrtLX9OxcEq1tE4i0U5thrxxSEZsGRNmbiWCD1XjlsRajxjls3yekybD4fa0MudcsaCqWLgQEZ1PH8MsKmIJXpWlNGUlsYmtHU2/Cq3aMxCCCJkVFu+1ErO1CXYx1FQCVKHTTzVD65HqssfQsgkoXpTgShKtVcOT7GsGpzAkno0H7EbjvIUKH4krf5mQc7hmd/I7V6P0UImvpxEXVRz6BuOYTlKVaIKlN9gwNJJrFdZaXzxdKXJ5DP3r4TIl13oEqpNotQvP6T3v8ibYpU+u9daj634zNk6g05VUdYKV0++zINclcPrG/wf6x+l7FFg/5wAAAABJRU5ErkJggg==;fontSize=30;" parent="1" vertex="1">
          <mxGeometry x="120" y="400" width="151" height="177" as="geometry" />
        </mxCell>
        <mxCell id="PsIKEqwVILS5Xcvsca47-8" style="edgeStyle=orthogonalEdgeStyle;rounded=1;jumpSize=14;orthogonalLoop=1;jettySize=auto;html=1;exitX=0.75;exitY=0;exitDx=0;exitDy=0;entryX=0.711;entryY=1;entryDx=0;entryDy=0;entryPerimeter=0;strokeColor=#A3A3A3;fontSize=30;" parent="1" source="PsIKEqwVILS5Xcvsca47-5" target="PsIKEqwVILS5Xcvsca47-7" edge="1">
          <mxGeometry relative="1" as="geometry" />
        </mxCell>
        <mxCell id="PsIKEqwVILS5Xcvsca47-5" value="&lt;font style=&quot;font-size: 30px;&quot;&gt;agent&lt;/font&gt;" style="rounded=1;whiteSpace=wrap;html=1;fillColor=#f8cecc;strokeColor=none;shadow=1;sketch=0;glass=0;fontSize=30;" parent="1" vertex="1">
          <mxGeometry x="350" y="442.75" width="180" height="91.5" as="geometry" />
        </mxCell>
        <mxCell id="PsIKEqwVILS5Xcvsca47-7" value="teacher" style="rounded=1;whiteSpace=wrap;html=1;shadow=1;glass=0;sketch=0;fontSize=30;fillColor=#dae8fc;strokeColor=none;" parent="1" vertex="1">
          <mxGeometry x="350" y="240" width="190" height="60" as="geometry" />
        </mxCell>
        <mxCell id="PsIKEqwVILS5Xcvsca47-9" value="u&lt;sub style=&quot;font-size: 30px;&quot;&gt;s&lt;/sub&gt; &amp;gt; c" style="text;html=1;align=center;verticalAlign=middle;resizable=0;points=[];autosize=1;strokeColor=none;fillColor=none;fontSize=30;" parent="1" vertex="1">
          <mxGeometry x="490" y="340" width="100" height="60" as="geometry" />
        </mxCell>
        <mxCell id="PsIKEqwVILS5Xcvsca47-14" value="" style="endArrow=classic;html=1;rounded=1;strokeColor=#A3A3A3;fontSize=30;jumpSize=14;exitX=0.25;exitY=1;exitDx=0;exitDy=0;" parent="1" source="PsIKEqwVILS5Xcvsca47-7" edge="1">
          <mxGeometry width="50" height="50" relative="1" as="geometry">
            <mxPoint x="390" y="410" as="sourcePoint" />
            <mxPoint x="398" y="440" as="targetPoint" />
          </mxGeometry>
        </mxCell>
        <mxCell id="PsIKEqwVILS5Xcvsca47-15" value="b &amp;gt; 0" style="text;html=1;align=center;verticalAlign=middle;resizable=0;points=[];autosize=1;strokeColor=none;fillColor=none;fontSize=30;" parent="1" vertex="1">
          <mxGeometry x="300" y="345" width="90" height="50" as="geometry" />
        </mxCell>
        <mxCell id="PsIKEqwVILS5Xcvsca47-16" value="" style="shape=image;verticalLabelPosition=bottom;labelBackgroundColor=default;verticalAlign=top;aspect=fixed;imageAspect=0;image=data:image/png,iVBORw0KGgoAAAANSUhEUgAAAJcAAACxCAYAAADJai9SAAAgAElEQVR4nO2dabBl11Xff2vtc+7whp7UgyzLtoQtLMuTEOABUoFAhVQllQAphxSBADHGgyxL6m5LFrJly/KgyVJbxrZkYjtJURAIRYWQSlVSJCm+pJiM8YAnbMBCY8/Dm+695+y98mGfc+659933enzdfbvPv+v0u8O5Z0//vfbaa6+9trzxDfuMBmtATvKdAIYQEHqILID0ATBaBJsHayMIwgD0BEIfMIw2FjbHv8XzZCRNi5+vl4WLHElm117oPEwplLTVJR/0cDbA6QHQ50AOkKQJy705Arsw20FiKSqHEZ5BkkOAYWEHZteQhx0EEQxBTSqKQUEvm96+nwQ2X+g8TCmE/sAhGE6XQI/xoY/cQrt7hKXlZTS5mjt+9bdwyQxhAKpH+fBHb0PdfsAIYRd33fk7iG4ihHlcMo/lHiySK/4ppNeUQm56/f+e5vxfOAikacpg8Pe0Wt/i/gd+AZ9/i3s/eDudziy37r6PtPu93PWej7J5Zob73r8blee59/27AeGDH3yULN/BPff8BoPsBmDXyMONimdTS7AECRc6D1MKYzAYoOLBMiws0Jk5SpC/JWeGzsxx1OWkSUYIT6PueVxYRMkBRWWFdnqIRPcTeCk+BJBIqEisQoJhFcmmDcn09osLCxVBUJTNaP+lfOA9n+H+j7+Kjz36NoIIfrDIXXsep203YNmXCZkn0TbiZwGH+i6IogZqSjAHYoARKoKVqU1nGyUXOgPTCrNAlg3opkAA8wEJRshzAooYzM3PcfTwgNnZNuoSCFn56+KS2gWTp4bCtJJLRwt4sV2ni41+/hAGpGmLwALS+ls+fP87ENvMR+/9be7/wH8Bv4Vf/cAv4Ob+nn5YJGhK0AxzS5g7QXDLBIWAI6hhanEIRBATxBQ1h5hDLIEpvJK1K3k6e8uIgrIuf86ufAJk2YBWCqZKFlokYQdZ70qwBPPbWeoFBrmjo1fh/S5EMrw4BE+gjQ+7yG0XnjYmpSQbWrzMQEQYfjNdkJve8Idr1HIpui9eSJG9kk9ioxJpfSPkycsn62rSBnhEeogcR/VJPnL/T+P0edQgD7u4657fJ/e7aLs2vZXv8tDHfhbnno/k8lfyvvf+N3y4BrN5LLRimsVMcViuaaRVxKVNrpNKrlMh13qS3RNn2wZyEE2+hdNDOIwQriALr8CH7ZCDuiNI8k3UHUYJmN+OD6/CbOfwkWE0P9M6SywxtQq9AUHja7FRCmx8o5QJOAwFDLMdWD6HJ0cIGA4fUpIkQVKH2XZCuIkQsoLTKcjMyNOmnUzjmFpywaQ5VrFKV+gpcelko1qsNnwB0AE2EwkXMMtQGRBCwELAB0ea7IzfG0BAyAC/Qfm78JhacglxRBpO1I1QDHVihUhD1/j12aK+qBwXrsEglB96pLBZmQkiQpooZoO4iF2JKD981iWI6SWXgdZ0LhNFArTbGT58FzMjhCsx5s552pMnCoYUZClXPeKQGfU2M6tkXTUbvGRpFbFRXfu8wIrlkiAKkqJ0sOwQneSPePD+H0XlwPBeO/1lrmopZuwaJZZgaLzE4kWkWkmlWM3lJdV9lzqmVnJZOR5KDtJHxePE4/gmD9z/TwnyBVSfJvidhc+UIzZ59YRTS+gkJBgSyGr2KFnj6UZdXl1i+vsqTC25AAKGhWVEnqXVOobjEHOz38DpMqpzJO67eLsKYxcWuiCuYEOoOeadzJY16VNZ83sbe16kWdTJ6sOgXPLUmvJhEYR2usRHP/STpO5/cf8Db+RDH/lHdLp/T5Ic4MMf+RVUn8fCUvULGxvSTndp6CSWsZFLRkg4vC59WkVMteQSA7FnmZ/5Pzz80HWY/jaSLGH0cG4zps+BPIfKi4uZXPXLU1pSWZtIZ6YvXQ7Sqo6pJVepCil9nOyn2zlKbh5vM2T5NowXEcIVBGaBBFWHWV3nOd8NfXkRC6aUXGYBROM6nHUx/wKWFq4nDzvxNofhyP1LuPue/0sIr8bYAmYoHswKI2tpJmiwUZhKcolEVTGu7m1h4L+Pe+95gjxcjbd5ALx9Bx9uwGwnJg6EaNDkctJ6LiymcuHaIBolxSEs4vRpTHKCbcXoRDsmaZRqpFhBRi2HxcLIKWO7bcZTOVsj5+VO4UTXNS5evOQCCD7HJXPAy/C5EegCaaGPeVRyCoMFMNTTAlGljwve66ntDbnOBkl7mhchVCF4EEhFMXKGC8GljXy10XKo0k9tyacCyWY31F+mEyPONqwuyST5cbnLlPODZFM+AKaZXA0uViS79NL1J2pwYZHsyBcvdB4aXKJIrnRHLnQeGlyiSDbLkxc6Dw0uUSTOvn2h89DgEkWSa0OuBhuDZO7K/ELnocElimSpvbzqQ5viaHYNLh4kh7tXjHxgZg25GpwTJEd3/dCqxRCRZnmkwdlDtl79xpGVa5W4iVO0IViDs0Oy7SX/6mS7pxo0OCMkz+0vN8MP0cisBucCic+XYgxOiUMiSCHJGoo1ODsk3STFa20/n5VboBpyNTg7JDt3XI2X+mbRhlgNzg2S/c88s4pc5e6aBg3OBgkhBx0q9CIaNy+INt6pDc4KiWcBz3C3u6IxNGcZ+4pmI0ODM0PygmtnMDdKn+GWq3pgxoZgDU4PgvvHkTV1i7yNhTuLAUbPf+4aTDWSmRe/roqgB8VccURyWWPBb3BGSMRmRz4oyRXRsKrBmSNZFULR4l5lqX3aUKzBmSBGuZnAniYSTIOzRWMtbbBhaMjVYMOgrBNCSUUKT4kGDU4fCuufy3WpHXbU4PwhsWCIi29EC0ll8QBZH8LY2UzFLLLZwNHgFKDC8OiSbqfLwtISrXaL61/5aqxupS8w6VWDBpMg3avvM1PBJQkWhtvKTMZ3AZVn2ICM6GnNuNlgMqrZoorQ6XToZwM6nQ7Xfs/LUNHCt2vMgbBR8hucArSUVKrKsRPHmZuZ5UUvuZZvfP1rjJ64VcZuL32iG4/VButDfQioKEmSsmlujsXlJQ4dPMBMp0uwUOhjjmjMF0Tia8FddseNNDg9RFOEKNu27yRNW3Q7bY4eOUTAE2xAsBwzBVpEkilCAqQ0kqvBetAQPHPzm9i560q8z+l2W6QtELdCLofJ5QhelvHSw+sypn2s8lttyNVgbWi7leKznL/+xte5/pWvZPuuK8g5QSb7Sef2c/dH/x15+jy5O4B3B/DuCEFXMHyNZA0arIbOdDfx4mtfyqtecyNZlvHia3bRmTtBOvMsN9/xz1jMv8L89sOE1pO42f38wtv+OV5OYNKvznJu0GASZMs1j5k5w8gRzXnl9+/kB36kzdYXLLD/2LeYnd9Cv7+NT+77LG+7+RY68gI++dH/TpLvRK2N2FSeTdXgPEC9F/LMM8gG+OD56lf+DNMj9PKn2bKthWeBwCF+6W0/xezmjMceei9In/Jo3QYN1oJ67/EhEMxYXDhBCIEnHv80Pk+wfCvk21hayNi29QpOHFvEdTcj1kJIkMZjp8E6UCMDAirCzOwcS0sZt73rPkL/Sh689zfZ1H4VV17xGh578D8y17qau+58AAkziLVYyx2sMa82AFCTHiYx6K6qY+v81Zw4uJ1H7/kDZOWVPPS+3+PIU9uwpWv4+Id/l4NPCRo2IdaO3hNjGF+NbHD5QtovfL+pa2NA4sC1Agsrh5iZadPrB/LlJbpbZ1g5fghUmdv0AnxvLpJrZK928cBTSLTR1C4PJCoJGKgKZoGQC91kG74f0ACd2U2EQaDVnUWAvO9QhEnEgnL7//oQGoJdDkhEFFFBpDj+sogEJwgqIKarhzqDScQqcSoEq2M9T9gG0ws1GT3LudyvGP0hpNh9Xdsse4otvt5tpxois9HZphtJdAi0Yp+ixAg3Barh6wxFyOn8bJxIjdSafjSGqgYbhotm7aaRVJceLrjkOlXdrMH04aKQXA2JLk1ccMnV4NJFQ64GG4aGXA02DA25GmwYGnI12DBcFLPFBiWk9nf6w7M35DofkLVpEh0B6jvYy8HEiJ4n00uwZO3l4WbZ+JygRqyhg0CIDprSAwwJbQSHiYElCB3EHNO+T0FlVbCRoZNyE3T3DFEc1GVjxDKBIJ6gGUGPkydP8o69P4l3h/B6FK/7CXoIyLgUOrdaPEZq4tXgzDBR1ohhMiDoIrkc4Mpr4Pa734TOPEUmT5K758j1Od5x278l0FvrKVOFZrZ4HmAoRiDIMsEd4M4P/gw/9fM3kCXfJJl/hnff+zPMbDnI7Xf+PDPzOUafade3oFHozwPGVA3p4/UArn0kSjHr4VrCW299ExKO859/83+AbsFCXvP6nU5U8bkabCQESBDrQmjz2KOP0Ol0SGSewYrw3HNPYnICdAHTRUxXMMliLI4p1k5UmiiB5wHxwBuxFLUZ3vKWvfQWujyx7/fYPPMKXvaS1/O5x3+HkHf52X/zZrLFlQud4XOCRufacBgQMELc9GIzJP5qHnvgD+gf/x7uf+/vc/jpqzjx/FXs+8h/xfkX0e5eVexq16keFmXmmgemOPsXKUZMEMSZYvHOZIWgx4AcrIvgiMp7DpIh1kLDFah1iQdQTG/zNAr9RqDYW1cSa/ghBXm2Fq8T4uAR94CaeMQUzGH4aVa3gIZcG4b6xt9R2ZOgFuPLVuEQpJBQ1SGq9V9NL8Uacm04BKm27jHy/2jwvHhf3JA8/Gya0ZDrvOBU415PN5nG0cwWG2wYGsm1gYjnKk36Zlyfmn79ahIacm0UDJByOLSRL4ZUspFv5bRDuFycKM/obMi1gVgdKqowR4xJqtH3kWDTRrFJh7425NoQFPIqDGeDVoQIWk22ujuzFLQqwlhN0dKcqhLCaFitRqE/TyhtqeMumTL2r37vxY7Xv/GHJ34uEjtGI7k2BJPZIWue6Tw9EmocZoaIVOd0BjMww6k25Dp/mF4CrYU//eP/V72ujlYUwRfDYzMsNjgrmAV+4PVvJBQSrCSWSHNKwXmArXGd7L6LG8NDYB0LJ04A4JIEHzxmgVa73ZDr/GAyccodQrn5uHVxSogFhWQSodVq8fyzzwDwspdfT+IScu85dORQo3NtLEY9HErlN0IQc5FOwRcKymp718WASTasYFYNhYsLUXIlLiHLM9IkJXGuIddGQWqSKh7nHGdQYPiQ0z94mB3Xvpa03eHAwSeZ6XRYWVkqfh0YJdj4MtH5RTBbRTCnSj8b0KbNq2+8iVarxRf+9I9pp63iDm2GxY2AjJFARXAqpEnK8uJxtmyexW3pcPjo39BfeYbULbGyfBDImUSg0bOULgzBfAjVBXFYnOnO4POcLM8QEW563Ru47vobmN+0ubFzbQRWO/tRbDEWfB6YnZ2jt3yYdus47ZkBh499lfnuNmCWYFsI1qnWGFc7HNbfnd8hs7RlmQVEHOocZoGbfvD1HD9+nC9+4U/p9/skLiFttWh3Og25NgqVU6CVw2PAOUd/sETijvOBD/4iu65e4kP33cNTf/s087OvYKXXihszin0ZZlKEWrh4sGnTFl50zTVs2bKFEydOsLC4wN/89TcJIaDqAMizjGwwaMh17lHIG9PCbRkgQ/AsLC7SaS+DPEN39jv08y9y9z2vo3/8Ot5/9+/hbHOc4lu529qBDBe37QIq+iqCN2Nh4QRf+8qX8CFw3ctfwaH9+wnFeZ0qUlnotbFznVtobSYYhzWHmIvnJ1kgLB+hlfawcJBu+xCbNx2g3XqSrZuWOXrwOzhbwVmOWkBtOCGIW9OseuqFglNldnaW3Hte94Yf4tD+/fRWloFh2bUwUUBjoT8pJu1Ir1dg/TOIw1j83qGkqJSn6sLOK7cRsqO0kwEtzegvncB5T76ywK6tsyRhGRdWSILhTIikyovzMIexIy4EvUQElzjMjBtv+gH+4s/+hOWlxVWeEHU0w+KakGLLhAcZUJ6oC4JJCoCRF/e1EWlh1cJ0JIKKQyTj6Ilnme0uIOEQW644zsrykywvP8W2OYflfforTzE39xyDpEO/f5jcd8FmcNIm0AbawAwwD7QvyHwxyzPIYTDI+PpXv0LiTk6dZlPsBKgIZoJKm36+yJZtRm9wkEG+GDex2iyCkLZyujObOXYIWm4LZg4sEKyPmKLWRuQEL3ppn7e/80cY5H/J1S8MWHaUQe9Zup0T+HwZCW3UZslWOsx1r6TXS3n/vfvo5Zt54KH/wOLyPO++8xPk/hqMrSNxv04Na9nJzs5+VulYa6CRXBMQLOo3wTKQPsu9IywuPUl7roj6EOYxlOPLxzHdgclWkDkwx1Ar8sCAYAus9A+y3PsbZuefJdgyaiukuoAfLKCyTJIcQ8xYGhyjteXFGAnve++P4+2F3HXHT+Ja12F+B8JVU7I4FNGQaw0EyxBdQdwC77tvL0EOMDOfoRogdAkhpd/PcGzmnjsfI9gymItKvAgqHgtLiCyxZfMcV+26iv7Kk7zn1scYnIBff+Kn0GSZbHCIMMhptzpsms1ROU4rbbFj+yzPPHecjz18H8eXtnPb7s8ibm39Zn2sRcmzo+p6Ugsacq0BQxREAqpw1217kZk+aasfN7JaG6GNz5V8JWVu9iVY7kZsnKE0HIQEP+iQ9TaT2NU8+uB9SLZA3j+M5gOc65A4CB5mZlKCJQxy8GGGTVuvIdgW+oMZct8hPQU952JCo3OtQrnInCNqqHoGfom4NAPgwFoIaSGpUlrJLCFE/UMsDoeCoeaAHt4fwIen2brlCHtv/9dc8+LNpG6JEI5joYcPOUIAyTGEQEqweRYX57j3g59jpbeLdvdlLC3PE5g7A53rwqAh1yqU5ArRfimGD77YZp8ASfHXFbEeBKcOM49JjooH86gIEhwicGLxIC9/2Qs4fPjr9FaeopUuEfwimI+kwjDLQXy0aokjhJQtW6/i/R/4BFm+k5vfcRebtryQQDI1jjkNuSbCavat6NUApao+GoYSGFmiid9Y1foqCa1kNlrdbQXnBsASvd4CSkoIQAhYkYYhqEtBPWgPwyGyFWQGVAkWbW/T0GjTNYifN8jYu9KBJlrLI2pOf1b+RtEi7LqoIBLvX+ot01vps2luM8t9odPu4tIrCF7jc8WKHT+CGYhLUedx7R553gfr4pI2uR+A+akgFjTkWhP1HS0iOvR2WNM8Xi5SR1U+rt4Y4NHEMTOv5CwgqTEofLt6PkMQVLV6tCEM6EEISM8Xi8FGnvXj0LuhpT63uKiWf0LwvObGmwjBF451FxrjTXkSH3gprvIeMZAQg+fKoLgyTAIeH00LzhMkI0iGl4wgg/gej6EE0+p500QsuIgk1/gaXn238ah78HnLEaP+U7aO1BrDSXa1mgXMQHXSAwvHekpdzgp70rRR6yIiF8TK/MqXvoiqI/e+9vmF9CWvSaFTvv8sk5v44cXhT386uBjGnhGplfscp8prbryp8Hw0QvATvRM2GuW29Kic62lflzvOj+Qa73RjPCklkxVOZi5JUFVarZTllRXSJD0v2Vwbq+PVnBLW3L5/eeAMu9eonWe920prcqB2wJvUbhif9ovS7/f5wp//CQCv/b7vP7MsnjMUBaiOITuNa0LYkVO7Lg0kscmVMizsyTH0hRy63Q7jBJh4gg2K71NMAiY9YpD/BLEEtTS6rlBUp+jQUFk44okIWZbT7c6cy/KeJs6FW/HpSrzxtKaXbIrkRG9nN8GFdjzATxXkh1GHW0M0XkafoEfx7ihBe+SyyK5rlJvv/Je05o7h9ThBBiBWkCgKz8r4WNiIvvf6V/La7/tB/urLX8JpEVr7vGLUZflMLpEz0dWkprPJWF6mC8WwOGmqO0qkcbEtUnutoBL3EqgzAivc9u5foT27iHdP89TBP0Jmv8O/+LnX4Ft/R3AHMV3GxFdpgVQEa3e6OJcQQuC6l9/ADa9+7QWq3rMd2s4k15NIPZ1QLMFKX+1qaaNOrElYv9AGmC5z850/DfpF3nnXj5O3/4Lujq9x2/t+jN3vexOSHiFYr3rO7Nw8S8uLzMzOcv0Nr0JU+MZffYVvfu2rfO0rXzpX5T2POFPJV//tdEOj8BqVXOsTK6JuGrBg+BDIvSf3HlHl0X33gzvEO9/7iwzsOQ4f/zbz23J6+fP0s4O4ZAASEFHMjBe+6MX8g3/447zqNTei6vi773y7Mp5OU/jGUVz2Cr1VyvW5XGAQAiID2m3HwomcmfZOsuU5Unbwucf/E4sLW+mqREVfhG9/8+u02m1eet3L+eqX/7LaXbPe7pIGFzdUhEKBjP7fUHk0rXFF1G1TokLiHK00pZ2mBO/ZvftX6S3M8IkHfofvuerHYPlafv3j/5PZ9Hu59V33keh8sTtGKuX1hle/lq9/9cs41QnS6tLq1ZcD1FtWBJioH5lucRNmoaRPuqh9H9e/PCHEK1FB/SZ+6zNfID94I0vPvpbPfeiP0cUbefCe3+XgsynKZoIJZjGQxQ++4Yf5yz//M4oNuzU3ltrsq/k3Xf+6137AIB4caWOHdk+KyzQuPaxmHhUVgvUwPQ448NuAlCDLiOQgcZu74CDE3chmCig+2CpPiNXSa/oWby9nJOYywBeKdaC+UL92U8rYHYUbnVmhpM/Ee1wOBKRmIEUMCz6aLEJeWbLTVPF+qF/JSfbENbj4kbj2YvVGCvfZSpk+zcYtKTeUeP34vngXzI/cJ0ZlRC3jOZ3NzHB6Z5WXJhJrP1+9GZdHZ9pUa1FS6q4rFsfl4Zf1ycQazz1dsp8l2S6EJ8alhES7B4qXp1+Ra1V+vVFHG7jwqLRyve70Gv98y6VGDp4dEmk9z1quuyfruSer/MkKef3M1NNrvkaSTBcSzwGGO1pGIRPdcE8dozrbuK3s9C3SYY18rgU9S4e90lPjXD3vdNMbx7Sln4guRCv4hDYelxOTTRMTflDcVt5e+oDHqCihimUVquFx+Pz1JhGnq0KdrZwbT2+j5eapVu9pPXPsR+v5L57r9BNCFr25QqFg1/chWMxdac80fJU5Kw2oJZGseG+rM1FNFIp7rLipPmsEkCAkJiO/qQol0aZWVY6cRWMLIz8u7MBFBMDxxeNCTxRAQi0vxbe18p9xdsrymxTpS5Wn8vADEyuO1WOkDerdc2IepPhchvW4Ot2yDmL6Mla5a+XBJjyrjkStDQE0OMQrqaZY7hkGijVQIWggqCeojw6AGlb1AitdTccaXsr/pCBYKV3LxweNBtUBpJqixEZWkcoJNGggkMc84DENiEKI2RumP5JoLZ3xyi0JVpIqJNhASLQ9lr4V5fXkZFX5kUDQkzduqJNYh++FIt8j5RdSaaEVyWP6se5zgsujM6YGgkAoGliKtEuSjAwg5WfRfj1CyPI3ZfrOu8gDU1LXJuS+IlRQH7e+qSeoFR09drqSvDo2qibtbA7LDRcc73zrLVhmQyaHABoLEdTzxOcejw+X2MjSgiAeM18UoOjl440LkcDFGqJ6AVMsAwmKkiBeueVtt2KZkYgj5L6KXhcKcj3+2U/HtCWSnMQwDVVH8MFHEolVZ0tbrdLrjS+mKGmM52AOyZVb3nYbllE1rpSi2BlePE989tMEzbGio2XkkWjFCoWWHYi6RCtimYoiProISNHttYyXWnTsW952GwwMNUEseoug4CWm98TnP110rpzgPD4JBA0IhtTUCSk7Uk28CoL6YbtIUCQTWq5DyAwXlJvfcguJJThcrPSCqp6AV8/jn/1UQbJY/6FIv5yklXkopZs88OkHjGBFJLzo9WwBnLpi13EgYAQJmHh8UaFec/7gD38fX/Umz1PPfhfTvGJ0yeq4N9SRSAsJDofD+ZS3/NxbSWmRuhQ/CCSSQhB8Fmilw00ZsbFi+jEfsbCf+Y3P4F2OJwYBGVgPU48VPQuJZdEgSEjQEEkspjif8I43v5OUlMSl5INAKgmEcmWs5gkqUXoFKaR2kf4nP/treOcx8bHczmMa80hZBwHUBLUkSoWQ4EKC+oS3/tLbSaVFqi3CwJOU6Vc8KVzPpah/ZwSJ677eZXzq85/Au6ySrEHL9IeySwqixrRLMisupLzrl29FMiURFyW1F1KX0lvp02q1sWBFZymHxFDUv5Frzqc+/2tF+4eiw5VcKKwC+/Y9Gru5xQp1roXP43JQXCss2Ihh5JWV3ZwnSwZFhULQnE/9+0/gNa8aoIRaLNjb33wzGhxqsXCzOkvoG+YDnc4MK8t9EpcSvNFut8mzvGrfag2z0Hu8egaaxd4jHq+eJz73yUKyBsqdz5HcUdy//c3vLNKPQ8CsmyX046kQ3U6XleUVEpeMuBnHRfRy/PSFXDa8ejIdjKT/+Gc/WTVweexw5GZM/+ZfuQX1CYm1SCxFvYNcILeR9KP0ieNdqKkndX0vaM7ArZBrhqkV5f80QQuVpSJXJJMGx9t/+R24ov7TkJLmbVxQBAg+4Io48oX4ZwQy5AFl/bseXnOCFOl//vGh2iSGPLbvUbNgReQUqSpVRGPPq0V7sSI00Kg0CVWi9QcPZU45BAyHgbJHaaXAVoJ1KC0YP+TEquG3cvcRK/SOeq8qFb9Rm1pMTwulXYv8aFWJdTKMmElsODyYFUOQyEgvtlKylO+Lnj5cjSiGYXNRv8HVlPcyPWrpT0aldBP94Ib1DUECXkMh2cqb65Irllertoiki+pMKNZyQ838tHrqWAZLKfW6YZmpCBYqpd9IqsqtP8GYEPTCKsU5ziggBj9LigawQmIM7x/9eZSMo0fxWo2I47Cx8lmUKEY1m1GLOowV+S6lSqnJyohZoz4bHpJ4vIzrva7CgROHeRWtqTW1WWVZtnoZyolDQVipflPP/5o1USNWqUNq1F0ZKulB6ukXZS7KW5JZKIfdmmQtD1LQ0bZZjZJW8VnOHOCq9JOCWGVJkiBRuS6yVxWgfH45Da3LEVuVVHnfONuHca7KqDGhIEkptssxPb4z6lyrz3yqJ5baqsShsiZHV03XVs1mjaEppP7sclq1ygwy+swqSpdJYRMa3ik21DFLyb3mk3AAAAXbSURBVFHO0qo7iy/HJ6xlGiXxxstQfSKlBjP0vavqkdoMsMx6rRxlvoZSLaoYsTbqo8do2nVIUd/xGZNGGRtpw6T8ouBjFVhMigeU08xyt4+ZVbVSHTZUy0T9PEGzAMWkoNxNbeX0baLkqFW0SFQoywO6a41pDHNdf716WBv9BBk29iRJIcKEDFGlYyM3SD271SdWf1ccUaJWO1ilRpbYneNsd1i+oXSxotdOMnxWtq56IctcWa0Gqu+GbBsREzLs2iNfTkiz1PdGbhypr9HOk0Q+ekSI27l8zWGwjC5TEqmWqqgQSl3NQhVjajQzCmYEo3JdFgwLAaliUq0emOrlKskabU5F2qukZNlzR2tm1bPGfjZaf6ulbi0TNboy7HTFz+qpl/eZgJdILBcEZzUDZAjViKCF3hjlsEdFoy6IROGiRRilSQSr8jPW5KVwt7KuynvHmaMTPhutkbGutDoTozkZeZeU7sxmhiuOOSsfKzYMgIbVRLwKeT6MoZW2WgwGA1qtVjRd+OJcvorpJSmi7cg5LWakoy1dFaTuVaFRguW5H+3ypwIZq5yT/u7UE5Cxv+MIGMGBC56Zfk7bFyaLmp41nAxEaiEegqEkBG3Rcx3i+onVTucYzeFaOa1UlVU3jH2w1npQfTg/Q1SBSESE3qAXz61Rx+7du2klKf2sz75H9rF7zx4efeRR9uyNf999x14+vu/j7N2zl3379vGe99wZjZjAvkf28e479uLU8dDDD3PXe+7ioYceJITAnr17ePjhj+FUV8XdqprWCvGqwk/8xE+QZRntdvssinkqWEdyncavIEp0JOBlwGxvmc/dcSebsj5BM9Baq5XKr0rUZywHMzJvHKPLy//Jmxhoa5UudPY41d55dkjqM4ayoXOfIyLc/+AD7N2zhyRNMYzde3dXPxSEPXv2xKxaVNI/vu+Rke8feOBBxCDPM+64404effTRmGjioj5Vx4TyisSQjiJR0k0LgoFoPKZFs2W2kbGVFcz6KFG/0uJI4iwfkA9yBKMlUcUYeCPpOBLzG0Cs84dKURr3larP8nq9Hvse2Qcw/LtvHyJSEcYskCYpt+++HQuxR959991keYYRK2337tvjvWE4iyxjcK2FMn6CS1yMkzUFl0scSaK0U0c3VQZLx8gXj5AvHWawsJ/sxH76x56jf+w5/OIh0nyZdr5C1/fp5H22poob9Ipj8aYXI1p4mqbVUJWkaRVtxqny7jvejVPHnr17EI0RaMphEMAHT5Znlc+PU8cjjzxCmqR0Wh0+9vDHCCGeG9hut4e2lXV2VIsoIXja7TaqjiRJcS65+K/E4ZyLFm9RpDuDzcxCdxbpzCGd2Xh1Z5HuHFnSIUu7LEubvuuy6B3amY9Sa2QmMV0YIVe/368Uc5/n3Hnne6rlCB88Dz/0cJRCwUjKyivg1LF3794Rh7Nbb3sXuc+rrf4PP/wxtIi/FaP1rV9rIXjy3FeRBcuZ6cV+Be/x3hM89CXlaGuWA+3NHG5t5WhnO8c62zne3c6x7nb2J5vZn2xhf/sKnu/u5ODsVexPd3JY5ulLQhmffhoh+/Z93OpD0yoFu5DM6jTGKs2y+N1JvFSDD8VwltDrrYycz6duyOlVulcNufe0WilZlpMkjuAv/oquGymVnLbPmMsy2j5D8agUBunSXqqKiWOQe8TiZMDh6GvKYrtLX9OxcEq1tE4i0U5thrxxSEZsGRNmbiWCD1XjlsRajxjls3yekybD4fa0MudcsaCqWLgQEZ1PH8MsKmIJXpWlNGUlsYmtHU2/Cq3aMxCCCJkVFu+1ErO1CXYx1FQCVKHTTzVD65HqssfQsgkoXpTgShKtVcOT7GsGpzAkno0H7EbjvIUKH4krf5mQc7hmd/I7V6P0UImvpxEXVRz6BuOYTlKVaIKlN9gwNJJrFdZaXzxdKXJ5DP3r4TIl13oEqpNotQvP6T3v8ibYpU+u9daj634zNk6g05VUdYKV0++zINclcPrG/wf6x+l7FFg/5wAAAABJRU5ErkJggg==;fontSize=30;" parent="1" vertex="1">
          <mxGeometry x="712" y="370" width="151" height="177" as="geometry" />
        </mxCell>
        <mxCell id="PsIKEqwVILS5Xcvsca47-17" value="" style="shape=image;verticalLabelPosition=bottom;labelBackgroundColor=default;verticalAlign=top;aspect=fixed;imageAspect=0;image=data:image/png,iVBORw0KGgoAAAANSUhEUgAAAJcAAACxCAYAAADJai9SAAAgAElEQVR4nO2dabBl11Xff2vtc+7whp7UgyzLtoQtLMuTEOABUoFAhVQllQAphxSBADHGgyxL6m5LFrJly/KgyVJbxrZkYjtJURAIRYWQSlVSJCm+pJiM8YAnbMBCY8/Dm+695+y98mGfc+659933enzdfbvPv+v0u8O5Z0//vfbaa6+9trzxDfuMBmtATvKdAIYQEHqILID0ATBaBJsHayMIwgD0BEIfMIw2FjbHv8XzZCRNi5+vl4WLHElm117oPEwplLTVJR/0cDbA6QHQ50AOkKQJy705Arsw20FiKSqHEZ5BkkOAYWEHZteQhx0EEQxBTSqKQUEvm96+nwQ2X+g8TCmE/sAhGE6XQI/xoY/cQrt7hKXlZTS5mjt+9bdwyQxhAKpH+fBHb0PdfsAIYRd33fk7iG4ihHlcMo/lHiySK/4ppNeUQm56/f+e5vxfOAikacpg8Pe0Wt/i/gd+AZ9/i3s/eDudziy37r6PtPu93PWej7J5Zob73r8blee59/27AeGDH3yULN/BPff8BoPsBmDXyMONimdTS7AECRc6D1MKYzAYoOLBMiws0Jk5SpC/JWeGzsxx1OWkSUYIT6PueVxYRMkBRWWFdnqIRPcTeCk+BJBIqEisQoJhFcmmDcn09osLCxVBUJTNaP+lfOA9n+H+j7+Kjz36NoIIfrDIXXsep203YNmXCZkn0TbiZwGH+i6IogZqSjAHYoARKoKVqU1nGyUXOgPTCrNAlg3opkAA8wEJRshzAooYzM3PcfTwgNnZNuoSCFn56+KS2gWTp4bCtJJLRwt4sV2ni41+/hAGpGmLwALS+ls+fP87ENvMR+/9be7/wH8Bv4Vf/cAv4Ob+nn5YJGhK0AxzS5g7QXDLBIWAI6hhanEIRBATxBQ1h5hDLIEpvJK1K3k6e8uIgrIuf86ufAJk2YBWCqZKFlokYQdZ70qwBPPbWeoFBrmjo1fh/S5EMrw4BE+gjQ+7yG0XnjYmpSQbWrzMQEQYfjNdkJve8Idr1HIpui9eSJG9kk9ioxJpfSPkycsn62rSBnhEeogcR/VJPnL/T+P0edQgD7u4657fJ/e7aLs2vZXv8tDHfhbnno/k8lfyvvf+N3y4BrN5LLRimsVMcViuaaRVxKVNrpNKrlMh13qS3RNn2wZyEE2+hdNDOIwQriALr8CH7ZCDuiNI8k3UHUYJmN+OD6/CbOfwkWE0P9M6SywxtQq9AUHja7FRCmx8o5QJOAwFDLMdWD6HJ0cIGA4fUpIkQVKH2XZCuIkQsoLTKcjMyNOmnUzjmFpywaQ5VrFKV+gpcelko1qsNnwB0AE2EwkXMMtQGRBCwELAB0ea7IzfG0BAyAC/Qfm78JhacglxRBpO1I1QDHVihUhD1/j12aK+qBwXrsEglB96pLBZmQkiQpooZoO4iF2JKD981iWI6SWXgdZ0LhNFArTbGT58FzMjhCsx5s552pMnCoYUZClXPeKQGfU2M6tkXTUbvGRpFbFRXfu8wIrlkiAKkqJ0sOwQneSPePD+H0XlwPBeO/1lrmopZuwaJZZgaLzE4kWkWkmlWM3lJdV9lzqmVnJZOR5KDtJHxePE4/gmD9z/TwnyBVSfJvidhc+UIzZ59YRTS+gkJBgSyGr2KFnj6UZdXl1i+vsqTC25AAKGhWVEnqXVOobjEHOz38DpMqpzJO67eLsKYxcWuiCuYEOoOeadzJY16VNZ83sbe16kWdTJ6sOgXPLUmvJhEYR2usRHP/STpO5/cf8Db+RDH/lHdLp/T5Ic4MMf+RVUn8fCUvULGxvSTndp6CSWsZFLRkg4vC59WkVMteQSA7FnmZ/5Pzz80HWY/jaSLGH0cG4zps+BPIfKi4uZXPXLU1pSWZtIZ6YvXQ7Sqo6pJVepCil9nOyn2zlKbh5vM2T5NowXEcIVBGaBBFWHWV3nOd8NfXkRC6aUXGYBROM6nHUx/wKWFq4nDzvxNofhyP1LuPue/0sIr8bYAmYoHswKI2tpJmiwUZhKcolEVTGu7m1h4L+Pe+95gjxcjbd5ALx9Bx9uwGwnJg6EaNDkctJ6LiymcuHaIBolxSEs4vRpTHKCbcXoRDsmaZRqpFhBRi2HxcLIKWO7bcZTOVsj5+VO4UTXNS5evOQCCD7HJXPAy/C5EegCaaGPeVRyCoMFMNTTAlGljwve66ntDbnOBkl7mhchVCF4EEhFMXKGC8GljXy10XKo0k9tyacCyWY31F+mEyPONqwuyST5cbnLlPODZFM+AKaZXA0uViS79NL1J2pwYZHsyBcvdB4aXKJIrnRHLnQeGlyiSDbLkxc6Dw0uUSTOvn2h89DgEkWSa0OuBhuDZO7K/ELnocElimSpvbzqQ5viaHYNLh4kh7tXjHxgZg25GpwTJEd3/dCqxRCRZnmkwdlDtl79xpGVa5W4iVO0IViDs0Oy7SX/6mS7pxo0OCMkz+0vN8MP0cisBucCic+XYgxOiUMiSCHJGoo1ODsk3STFa20/n5VboBpyNTg7JDt3XI2X+mbRhlgNzg2S/c88s4pc5e6aBg3OBgkhBx0q9CIaNy+INt6pDc4KiWcBz3C3u6IxNGcZ+4pmI0ODM0PygmtnMDdKn+GWq3pgxoZgDU4PgvvHkTV1i7yNhTuLAUbPf+4aTDWSmRe/roqgB8VccURyWWPBb3BGSMRmRz4oyRXRsKrBmSNZFULR4l5lqX3aUKzBmSBGuZnAniYSTIOzRWMtbbBhaMjVYMOgrBNCSUUKT4kGDU4fCuufy3WpHXbU4PwhsWCIi29EC0ll8QBZH8LY2UzFLLLZwNHgFKDC8OiSbqfLwtISrXaL61/5aqxupS8w6VWDBpMg3avvM1PBJQkWhtvKTMZ3AZVn2ICM6GnNuNlgMqrZoorQ6XToZwM6nQ7Xfs/LUNHCt2vMgbBR8hucArSUVKrKsRPHmZuZ5UUvuZZvfP1rjJ64VcZuL32iG4/VButDfQioKEmSsmlujsXlJQ4dPMBMp0uwUOhjjmjMF0Tia8FddseNNDg9RFOEKNu27yRNW3Q7bY4eOUTAE2xAsBwzBVpEkilCAqQ0kqvBetAQPHPzm9i560q8z+l2W6QtELdCLofJ5QhelvHSw+sypn2s8lttyNVgbWi7leKznL/+xte5/pWvZPuuK8g5QSb7Sef2c/dH/x15+jy5O4B3B/DuCEFXMHyNZA0arIbOdDfx4mtfyqtecyNZlvHia3bRmTtBOvMsN9/xz1jMv8L89sOE1pO42f38wtv+OV5OYNKvznJu0GASZMs1j5k5w8gRzXnl9+/kB36kzdYXLLD/2LeYnd9Cv7+NT+77LG+7+RY68gI++dH/TpLvRK2N2FSeTdXgPEC9F/LMM8gG+OD56lf+DNMj9PKn2bKthWeBwCF+6W0/xezmjMceei9In/Jo3QYN1oJ67/EhEMxYXDhBCIEnHv80Pk+wfCvk21hayNi29QpOHFvEdTcj1kJIkMZjp8E6UCMDAirCzOwcS0sZt73rPkL/Sh689zfZ1H4VV17xGh578D8y17qau+58AAkziLVYyx2sMa82AFCTHiYx6K6qY+v81Zw4uJ1H7/kDZOWVPPS+3+PIU9uwpWv4+Id/l4NPCRo2IdaO3hNjGF+NbHD5QtovfL+pa2NA4sC1Agsrh5iZadPrB/LlJbpbZ1g5fghUmdv0AnxvLpJrZK928cBTSLTR1C4PJCoJGKgKZoGQC91kG74f0ACd2U2EQaDVnUWAvO9QhEnEgnL7//oQGoJdDkhEFFFBpDj+sogEJwgqIKarhzqDScQqcSoEq2M9T9gG0ws1GT3LudyvGP0hpNh9Xdsse4otvt5tpxois9HZphtJdAi0Yp+ixAg3Barh6wxFyOn8bJxIjdSafjSGqgYbhotm7aaRVJceLrjkOlXdrMH04aKQXA2JLk1ccMnV4NJFQ64GG4aGXA02DA25GmwYGnI12DBcFLPFBiWk9nf6w7M35DofkLVpEh0B6jvYy8HEiJ4n00uwZO3l4WbZ+JygRqyhg0CIDprSAwwJbQSHiYElCB3EHNO+T0FlVbCRoZNyE3T3DFEc1GVjxDKBIJ6gGUGPkydP8o69P4l3h/B6FK/7CXoIyLgUOrdaPEZq4tXgzDBR1ohhMiDoIrkc4Mpr4Pa734TOPEUmT5K758j1Od5x278l0FvrKVOFZrZ4HmAoRiDIMsEd4M4P/gw/9fM3kCXfJJl/hnff+zPMbDnI7Xf+PDPzOUafade3oFHozwPGVA3p4/UArn0kSjHr4VrCW299ExKO859/83+AbsFCXvP6nU5U8bkabCQESBDrQmjz2KOP0Ol0SGSewYrw3HNPYnICdAHTRUxXMMliLI4p1k5UmiiB5wHxwBuxFLUZ3vKWvfQWujyx7/fYPPMKXvaS1/O5x3+HkHf52X/zZrLFlQud4XOCRufacBgQMELc9GIzJP5qHnvgD+gf/x7uf+/vc/jpqzjx/FXs+8h/xfkX0e5eVexq16keFmXmmgemOPsXKUZMEMSZYvHOZIWgx4AcrIvgiMp7DpIh1kLDFah1iQdQTG/zNAr9RqDYW1cSa/ghBXm2Fq8T4uAR94CaeMQUzGH4aVa3gIZcG4b6xt9R2ZOgFuPLVuEQpJBQ1SGq9V9NL8Uacm04BKm27jHy/2jwvHhf3JA8/Gya0ZDrvOBU415PN5nG0cwWG2wYGsm1gYjnKk36Zlyfmn79ahIacm0UDJByOLSRL4ZUspFv5bRDuFycKM/obMi1gVgdKqowR4xJqtH3kWDTRrFJh7425NoQFPIqDGeDVoQIWk22ujuzFLQqwlhN0dKcqhLCaFitRqE/TyhtqeMumTL2r37vxY7Xv/GHJ34uEjtGI7k2BJPZIWue6Tw9EmocZoaIVOd0BjMww6k25Dp/mF4CrYU//eP/V72ujlYUwRfDYzMsNjgrmAV+4PVvJBQSrCSWSHNKwXmArXGd7L6LG8NDYB0LJ04A4JIEHzxmgVa73ZDr/GAyccodQrn5uHVxSogFhWQSodVq8fyzzwDwspdfT+IScu85dORQo3NtLEY9HErlN0IQc5FOwRcKymp718WASTasYFYNhYsLUXIlLiHLM9IkJXGuIddGQWqSKh7nHGdQYPiQ0z94mB3Xvpa03eHAwSeZ6XRYWVkqfh0YJdj4MtH5RTBbRTCnSj8b0KbNq2+8iVarxRf+9I9pp63iDm2GxY2AjJFARXAqpEnK8uJxtmyexW3pcPjo39BfeYbULbGyfBDImUSg0bOULgzBfAjVBXFYnOnO4POcLM8QEW563Ru47vobmN+0ubFzbQRWO/tRbDEWfB6YnZ2jt3yYdus47ZkBh499lfnuNmCWYFsI1qnWGFc7HNbfnd8hs7RlmQVEHOocZoGbfvD1HD9+nC9+4U/p9/skLiFttWh3Og25NgqVU6CVw2PAOUd/sETijvOBD/4iu65e4kP33cNTf/s087OvYKXXihszin0ZZlKEWrh4sGnTFl50zTVs2bKFEydOsLC4wN/89TcJIaDqAMizjGwwaMh17lHIG9PCbRkgQ/AsLC7SaS+DPEN39jv08y9y9z2vo3/8Ot5/9+/hbHOc4lu529qBDBe37QIq+iqCN2Nh4QRf+8qX8CFw3ctfwaH9+wnFeZ0qUlnotbFznVtobSYYhzWHmIvnJ1kgLB+hlfawcJBu+xCbNx2g3XqSrZuWOXrwOzhbwVmOWkBtOCGIW9OseuqFglNldnaW3Hte94Yf4tD+/fRWloFh2bUwUUBjoT8pJu1Ir1dg/TOIw1j83qGkqJSn6sLOK7cRsqO0kwEtzegvncB5T76ywK6tsyRhGRdWSILhTIikyovzMIexIy4EvUQElzjMjBtv+gH+4s/+hOWlxVWeEHU0w+KakGLLhAcZUJ6oC4JJCoCRF/e1EWlh1cJ0JIKKQyTj6Ilnme0uIOEQW644zsrykywvP8W2OYflfforTzE39xyDpEO/f5jcd8FmcNIm0AbawAwwD7QvyHwxyzPIYTDI+PpXv0LiTk6dZlPsBKgIZoJKm36+yJZtRm9wkEG+GDex2iyCkLZyujObOXYIWm4LZg4sEKyPmKLWRuQEL3ppn7e/80cY5H/J1S8MWHaUQe9Zup0T+HwZCW3UZslWOsx1r6TXS3n/vfvo5Zt54KH/wOLyPO++8xPk/hqMrSNxv04Na9nJzs5+VulYa6CRXBMQLOo3wTKQPsu9IywuPUl7roj6EOYxlOPLxzHdgclWkDkwx1Ar8sCAYAus9A+y3PsbZuefJdgyaiukuoAfLKCyTJIcQ8xYGhyjteXFGAnve++P4+2F3HXHT+Ja12F+B8JVU7I4FNGQaw0EyxBdQdwC77tvL0EOMDOfoRogdAkhpd/PcGzmnjsfI9gymItKvAgqHgtLiCyxZfMcV+26iv7Kk7zn1scYnIBff+Kn0GSZbHCIMMhptzpsms1ROU4rbbFj+yzPPHecjz18H8eXtnPb7s8ibm39Zn2sRcmzo+p6Ugsacq0BQxREAqpw1217kZk+aasfN7JaG6GNz5V8JWVu9iVY7kZsnKE0HIQEP+iQ9TaT2NU8+uB9SLZA3j+M5gOc65A4CB5mZlKCJQxy8GGGTVuvIdgW+oMZct8hPQU952JCo3OtQrnInCNqqHoGfom4NAPgwFoIaSGpUlrJLCFE/UMsDoeCoeaAHt4fwIen2brlCHtv/9dc8+LNpG6JEI5joYcPOUIAyTGEQEqweRYX57j3g59jpbeLdvdlLC3PE5g7A53rwqAh1yqU5ArRfimGD77YZp8ASfHXFbEeBKcOM49JjooH86gIEhwicGLxIC9/2Qs4fPjr9FaeopUuEfwimI+kwjDLQXy0aokjhJQtW6/i/R/4BFm+k5vfcRebtryQQDI1jjkNuSbCavat6NUApao+GoYSGFmiid9Y1foqCa1kNlrdbQXnBsASvd4CSkoIQAhYkYYhqEtBPWgPwyGyFWQGVAkWbW/T0GjTNYifN8jYu9KBJlrLI2pOf1b+RtEi7LqoIBLvX+ot01vps2luM8t9odPu4tIrCF7jc8WKHT+CGYhLUedx7R553gfr4pI2uR+A+akgFjTkWhP1HS0iOvR2WNM8Xi5SR1U+rt4Y4NHEMTOv5CwgqTEofLt6PkMQVLV6tCEM6EEISM8Xi8FGnvXj0LuhpT63uKiWf0LwvObGmwjBF451FxrjTXkSH3gprvIeMZAQg+fKoLgyTAIeH00LzhMkI0iGl4wgg/gej6EE0+p500QsuIgk1/gaXn238ah78HnLEaP+U7aO1BrDSXa1mgXMQHXSAwvHekpdzgp70rRR6yIiF8TK/MqXvoiqI/e+9vmF9CWvSaFTvv8sk5v44cXhT386uBjGnhGplfscp8prbryp8Hw0QvATvRM2GuW29Kic62lflzvOj+Qa73RjPCklkxVOZi5JUFVarZTllRXSJD0v2Vwbq+PVnBLW3L5/eeAMu9eonWe920prcqB2wJvUbhif9ovS7/f5wp//CQCv/b7vP7MsnjMUBaiOITuNa0LYkVO7Lg0kscmVMizsyTH0hRy63Q7jBJh4gg2K71NMAiY9YpD/BLEEtTS6rlBUp+jQUFk44okIWZbT7c6cy/KeJs6FW/HpSrzxtKaXbIrkRG9nN8GFdjzATxXkh1GHW0M0XkafoEfx7ihBe+SyyK5rlJvv/Je05o7h9ThBBiBWkCgKz8r4WNiIvvf6V/La7/tB/urLX8JpEVr7vGLUZflMLpEz0dWkprPJWF6mC8WwOGmqO0qkcbEtUnutoBL3EqgzAivc9u5foT27iHdP89TBP0Jmv8O/+LnX4Ft/R3AHMV3GxFdpgVQEa3e6OJcQQuC6l9/ADa9+7QWq3rMd2s4k15NIPZ1QLMFKX+1qaaNOrElYv9AGmC5z850/DfpF3nnXj5O3/4Lujq9x2/t+jN3vexOSHiFYr3rO7Nw8S8uLzMzOcv0Nr0JU+MZffYVvfu2rfO0rXzpX5T2POFPJV//tdEOj8BqVXOsTK6JuGrBg+BDIvSf3HlHl0X33gzvEO9/7iwzsOQ4f/zbz23J6+fP0s4O4ZAASEFHMjBe+6MX8g3/447zqNTei6vi773y7Mp5OU/jGUVz2Cr1VyvW5XGAQAiID2m3HwomcmfZOsuU5Unbwucf/E4sLW+mqREVfhG9/8+u02m1eet3L+eqX/7LaXbPe7pIGFzdUhEKBjP7fUHk0rXFF1G1TokLiHK00pZ2mBO/ZvftX6S3M8IkHfofvuerHYPlafv3j/5PZ9Hu59V33keh8sTtGKuX1hle/lq9/9cs41QnS6tLq1ZcD1FtWBJioH5lucRNmoaRPuqh9H9e/PCHEK1FB/SZ+6zNfID94I0vPvpbPfeiP0cUbefCe3+XgsynKZoIJZjGQxQ++4Yf5yz//M4oNuzU3ltrsq/k3Xf+6137AIB4caWOHdk+KyzQuPaxmHhUVgvUwPQ448NuAlCDLiOQgcZu74CDE3chmCig+2CpPiNXSa/oWby9nJOYywBeKdaC+UL92U8rYHYUbnVmhpM/Ee1wOBKRmIEUMCz6aLEJeWbLTVPF+qF/JSfbENbj4kbj2YvVGCvfZSpk+zcYtKTeUeP34vngXzI/cJ0ZlRC3jOZ3NzHB6Z5WXJhJrP1+9GZdHZ9pUa1FS6q4rFsfl4Zf1ycQazz1dsp8l2S6EJ8alhES7B4qXp1+Ra1V+vVFHG7jwqLRyve70Gv98y6VGDp4dEmk9z1quuyfruSer/MkKef3M1NNrvkaSTBcSzwGGO1pGIRPdcE8dozrbuK3s9C3SYY18rgU9S4e90lPjXD3vdNMbx7Sln4guRCv4hDYelxOTTRMTflDcVt5e+oDHqCihimUVquFx+Pz1JhGnq0KdrZwbT2+j5eapVu9pPXPsR+v5L57r9BNCFr25QqFg1/chWMxdac80fJU5Kw2oJZGseG+rM1FNFIp7rLipPmsEkCAkJiO/qQol0aZWVY6cRWMLIz8u7MBFBMDxxeNCTxRAQi0vxbe18p9xdsrymxTpS5Wn8vADEyuO1WOkDerdc2IepPhchvW4Ot2yDmL6Mla5a+XBJjyrjkStDQE0OMQrqaZY7hkGijVQIWggqCeojw6AGlb1AitdTccaXsr/pCBYKV3LxweNBtUBpJqixEZWkcoJNGggkMc84DENiEKI2RumP5JoLZ3xyi0JVpIqJNhASLQ9lr4V5fXkZFX5kUDQkzduqJNYh++FIt8j5RdSaaEVyWP6se5zgsujM6YGgkAoGliKtEuSjAwg5WfRfj1CyPI3ZfrOu8gDU1LXJuS+IlRQH7e+qSeoFR09drqSvDo2qibtbA7LDRcc73zrLVhmQyaHABoLEdTzxOcejw+X2MjSgiAeM18UoOjl440LkcDFGqJ6AVMsAwmKkiBeueVtt2KZkYgj5L6KXhcKcj3+2U/HtCWSnMQwDVVH8MFHEolVZ0tbrdLrjS+mKGmM52AOyZVb3nYbllE1rpSi2BlePE989tMEzbGio2XkkWjFCoWWHYi6RCtimYoiProISNHttYyXWnTsW952GwwMNUEseoug4CWm98TnP110rpzgPD4JBA0IhtTUCSk7Uk28CoL6YbtIUCQTWq5DyAwXlJvfcguJJThcrPSCqp6AV8/jn/1UQbJY/6FIv5yklXkopZs88OkHjGBFJLzo9WwBnLpi13EgYAQJmHh8UaFec/7gD38fX/Umz1PPfhfTvGJ0yeq4N9SRSAsJDofD+ZS3/NxbSWmRuhQ/CCSSQhB8Fmilw00ZsbFi+jEfsbCf+Y3P4F2OJwYBGVgPU48VPQuJZdEgSEjQEEkspjif8I43v5OUlMSl5INAKgmEcmWs5gkqUXoFKaR2kf4nP/treOcx8bHczmMa80hZBwHUBLUkSoWQ4EKC+oS3/tLbSaVFqi3CwJOU6Vc8KVzPpah/ZwSJ677eZXzq85/Au6ySrEHL9IeySwqixrRLMisupLzrl29FMiURFyW1F1KX0lvp02q1sWBFZymHxFDUv5Frzqc+/2tF+4eiw5VcKKwC+/Y9Gru5xQp1roXP43JQXCss2Ihh5JWV3ZwnSwZFhULQnE/9+0/gNa8aoIRaLNjb33wzGhxqsXCzOkvoG+YDnc4MK8t9EpcSvNFut8mzvGrfag2z0Hu8egaaxd4jHq+eJz73yUKyBsqdz5HcUdy//c3vLNKPQ8CsmyX046kQ3U6XleUVEpeMuBnHRfRy/PSFXDa8ejIdjKT/+Gc/WTVweexw5GZM/+ZfuQX1CYm1SCxFvYNcILeR9KP0ieNdqKkndX0vaM7ArZBrhqkV5f80QQuVpSJXJJMGx9t/+R24ov7TkJLmbVxQBAg+4Io48oX4ZwQy5AFl/bseXnOCFOl//vGh2iSGPLbvUbNgReQUqSpVRGPPq0V7sSI00Kg0CVWi9QcPZU45BAyHgbJHaaXAVoJ1KC0YP+TEquG3cvcRK/SOeq8qFb9Rm1pMTwulXYv8aFWJdTKMmElsODyYFUOQyEgvtlKylO+Lnj5cjSiGYXNRv8HVlPcyPWrpT0aldBP94Ib1DUECXkMh2cqb65Irllertoiki+pMKNZyQ838tHrqWAZLKfW6YZmpCBYqpd9IqsqtP8GYEPTCKsU5ziggBj9LigawQmIM7x/9eZSMo0fxWo2I47Cx8lmUKEY1m1GLOowV+S6lSqnJyohZoz4bHpJ4vIzrva7CgROHeRWtqTW1WWVZtnoZyolDQVipflPP/5o1USNWqUNq1F0ZKulB6ukXZS7KW5JZKIfdmmQtD1LQ0bZZjZJW8VnOHOCq9JOCWGVJkiBRuS6yVxWgfH45Da3LEVuVVHnfONuHca7KqDGhIEkptssxPb4z6lyrz3yqJ5baqsShsiZHV03XVs1mjaEppP7sclq1ygwy+swqSpdJYRMa3ik21DFLyb3mk3AAAAXbSURBVFHO0qo7iy/HJ6xlGiXxxstQfSKlBjP0vavqkdoMsMx6rRxlvoZSLaoYsTbqo8do2nVIUd/xGZNGGRtpw6T8ouBjFVhMigeU08xyt4+ZVbVSHTZUy0T9PEGzAMWkoNxNbeX0baLkqFW0SFQoywO6a41pDHNdf716WBv9BBk29iRJIcKEDFGlYyM3SD271SdWf1ccUaJWO1ilRpbYneNsd1i+oXSxotdOMnxWtq56IctcWa0Gqu+GbBsREzLs2iNfTkiz1PdGbhypr9HOk0Q+ekSI27l8zWGwjC5TEqmWqqgQSl3NQhVjajQzCmYEo3JdFgwLAaliUq0emOrlKskabU5F2qukZNlzR2tm1bPGfjZaf6ulbi0TNboy7HTFz+qpl/eZgJdILBcEZzUDZAjViKCF3hjlsEdFoy6IROGiRRilSQSr8jPW5KVwt7KuynvHmaMTPhutkbGutDoTozkZeZeU7sxmhiuOOSsfKzYMgIbVRLwKeT6MoZW2WgwGA1qtVjRd+OJcvorpJSmi7cg5LWakoy1dFaTuVaFRguW5H+3ypwIZq5yT/u7UE5Cxv+MIGMGBC56Zfk7bFyaLmp41nAxEaiEegqEkBG3Rcx3i+onVTucYzeFaOa1UlVU3jH2w1npQfTg/Q1SBSESE3qAXz61Rx+7du2klKf2sz75H9rF7zx4efeRR9uyNf999x14+vu/j7N2zl3379vGe99wZjZjAvkf28e479uLU8dDDD3PXe+7ioYceJITAnr17ePjhj+FUV8XdqprWCvGqwk/8xE+QZRntdvssinkqWEdyncavIEp0JOBlwGxvmc/dcSebsj5BM9Baq5XKr0rUZywHMzJvHKPLy//Jmxhoa5UudPY41d55dkjqM4ayoXOfIyLc/+AD7N2zhyRNMYzde3dXPxSEPXv2xKxaVNI/vu+Rke8feOBBxCDPM+64404effTRmGjioj5Vx4TyisSQjiJR0k0LgoFoPKZFs2W2kbGVFcz6KFG/0uJI4iwfkA9yBKMlUcUYeCPpOBLzG0Cs84dKURr3larP8nq9Hvse2Qcw/LtvHyJSEcYskCYpt+++HQuxR959991keYYRK2337tvjvWE4iyxjcK2FMn6CS1yMkzUFl0scSaK0U0c3VQZLx8gXj5AvHWawsJ/sxH76x56jf+w5/OIh0nyZdr5C1/fp5H22poob9Ipj8aYXI1p4mqbVUJWkaRVtxqny7jvejVPHnr17EI0RaMphEMAHT5Znlc+PU8cjjzxCmqR0Wh0+9vDHCCGeG9hut4e2lXV2VIsoIXja7TaqjiRJcS65+K/E4ZyLFm9RpDuDzcxCdxbpzCGd2Xh1Z5HuHFnSIUu7LEubvuuy6B3amY9Sa2QmMV0YIVe/368Uc5/n3Hnne6rlCB88Dz/0cJRCwUjKyivg1LF3794Rh7Nbb3sXuc+rrf4PP/wxtIi/FaP1rV9rIXjy3FeRBcuZ6cV+Be/x3hM89CXlaGuWA+3NHG5t5WhnO8c62zne3c6x7nb2J5vZn2xhf/sKnu/u5ODsVexPd3JY5ulLQhmffhoh+/Z93OpD0yoFu5DM6jTGKs2y+N1JvFSDD8VwltDrrYycz6duyOlVulcNufe0WilZlpMkjuAv/oquGymVnLbPmMsy2j5D8agUBunSXqqKiWOQe8TiZMDh6GvKYrtLX9OxcEq1tE4i0U5thrxxSEZsGRNmbiWCD1XjlsRajxjls3yekybD4fa0MudcsaCqWLgQEZ1PH8MsKmIJXpWlNGUlsYmtHU2/Cq3aMxCCCJkVFu+1ErO1CXYx1FQCVKHTTzVD65HqssfQsgkoXpTgShKtVcOT7GsGpzAkno0H7EbjvIUKH4krf5mQc7hmd/I7V6P0UImvpxEXVRz6BuOYTlKVaIKlN9gwNJJrFdZaXzxdKXJ5DP3r4TIl13oEqpNotQvP6T3v8ibYpU+u9daj634zNk6g05VUdYKV0++zINclcPrG/wf6x+l7FFg/5wAAAABJRU5ErkJggg==;fontSize=30;" parent="1" vertex="1">
          <mxGeometry x="722" y="380" width="151" height="177" as="geometry" />
        </mxCell>
        <mxCell id="PsIKEqwVILS5Xcvsca47-18" value="" style="shape=image;verticalLabelPosition=bottom;labelBackgroundColor=default;verticalAlign=top;aspect=fixed;imageAspect=0;image=data:image/png,iVBORw0KGgoAAAANSUhEUgAAAJcAAACxCAYAAADJai9SAAAgAElEQVR4nO2dabBl11Xff2vtc+7whp7UgyzLtoQtLMuTEOABUoFAhVQllQAphxSBADHGgyxL6m5LFrJly/KgyVJbxrZkYjtJURAIRYWQSlVSJCm+pJiM8YAnbMBCY8/Dm+695+y98mGfc+659933enzdfbvPv+v0u8O5Z0//vfbaa6+9trzxDfuMBmtATvKdAIYQEHqILID0ATBaBJsHayMIwgD0BEIfMIw2FjbHv8XzZCRNi5+vl4WLHElm117oPEwplLTVJR/0cDbA6QHQ50AOkKQJy705Arsw20FiKSqHEZ5BkkOAYWEHZteQhx0EEQxBTSqKQUEvm96+nwQ2X+g8TCmE/sAhGE6XQI/xoY/cQrt7hKXlZTS5mjt+9bdwyQxhAKpH+fBHb0PdfsAIYRd33fk7iG4ihHlcMo/lHiySK/4ppNeUQm56/f+e5vxfOAikacpg8Pe0Wt/i/gd+AZ9/i3s/eDudziy37r6PtPu93PWej7J5Zob73r8blee59/27AeGDH3yULN/BPff8BoPsBmDXyMONimdTS7AECRc6D1MKYzAYoOLBMiws0Jk5SpC/JWeGzsxx1OWkSUYIT6PueVxYRMkBRWWFdnqIRPcTeCk+BJBIqEisQoJhFcmmDcn09osLCxVBUJTNaP+lfOA9n+H+j7+Kjz36NoIIfrDIXXsep203YNmXCZkn0TbiZwGH+i6IogZqSjAHYoARKoKVqU1nGyUXOgPTCrNAlg3opkAA8wEJRshzAooYzM3PcfTwgNnZNuoSCFn56+KS2gWTp4bCtJJLRwt4sV2ni41+/hAGpGmLwALS+ls+fP87ENvMR+/9be7/wH8Bv4Vf/cAv4Ob+nn5YJGhK0AxzS5g7QXDLBIWAI6hhanEIRBATxBQ1h5hDLIEpvJK1K3k6e8uIgrIuf86ufAJk2YBWCqZKFlokYQdZ70qwBPPbWeoFBrmjo1fh/S5EMrw4BE+gjQ+7yG0XnjYmpSQbWrzMQEQYfjNdkJve8Idr1HIpui9eSJG9kk9ioxJpfSPkycsn62rSBnhEeogcR/VJPnL/T+P0edQgD7u4657fJ/e7aLs2vZXv8tDHfhbnno/k8lfyvvf+N3y4BrN5LLRimsVMcViuaaRVxKVNrpNKrlMh13qS3RNn2wZyEE2+hdNDOIwQriALr8CH7ZCDuiNI8k3UHUYJmN+OD6/CbOfwkWE0P9M6SywxtQq9AUHja7FRCmx8o5QJOAwFDLMdWD6HJ0cIGA4fUpIkQVKH2XZCuIkQsoLTKcjMyNOmnUzjmFpywaQ5VrFKV+gpcelko1qsNnwB0AE2EwkXMMtQGRBCwELAB0ea7IzfG0BAyAC/Qfm78JhacglxRBpO1I1QDHVihUhD1/j12aK+qBwXrsEglB96pLBZmQkiQpooZoO4iF2JKD981iWI6SWXgdZ0LhNFArTbGT58FzMjhCsx5s552pMnCoYUZClXPeKQGfU2M6tkXTUbvGRpFbFRXfu8wIrlkiAKkqJ0sOwQneSPePD+H0XlwPBeO/1lrmopZuwaJZZgaLzE4kWkWkmlWM3lJdV9lzqmVnJZOR5KDtJHxePE4/gmD9z/TwnyBVSfJvidhc+UIzZ59YRTS+gkJBgSyGr2KFnj6UZdXl1i+vsqTC25AAKGhWVEnqXVOobjEHOz38DpMqpzJO67eLsKYxcWuiCuYEOoOeadzJY16VNZ83sbe16kWdTJ6sOgXPLUmvJhEYR2usRHP/STpO5/cf8Db+RDH/lHdLp/T5Ic4MMf+RVUn8fCUvULGxvSTndp6CSWsZFLRkg4vC59WkVMteQSA7FnmZ/5Pzz80HWY/jaSLGH0cG4zps+BPIfKi4uZXPXLU1pSWZtIZ6YvXQ7Sqo6pJVepCil9nOyn2zlKbh5vM2T5NowXEcIVBGaBBFWHWV3nOd8NfXkRC6aUXGYBROM6nHUx/wKWFq4nDzvxNofhyP1LuPue/0sIr8bYAmYoHswKI2tpJmiwUZhKcolEVTGu7m1h4L+Pe+95gjxcjbd5ALx9Bx9uwGwnJg6EaNDkctJ6LiymcuHaIBolxSEs4vRpTHKCbcXoRDsmaZRqpFhBRi2HxcLIKWO7bcZTOVsj5+VO4UTXNS5evOQCCD7HJXPAy/C5EegCaaGPeVRyCoMFMNTTAlGljwve66ntDbnOBkl7mhchVCF4EEhFMXKGC8GljXy10XKo0k9tyacCyWY31F+mEyPONqwuyST5cbnLlPODZFM+AKaZXA0uViS79NL1J2pwYZHsyBcvdB4aXKJIrnRHLnQeGlyiSDbLkxc6Dw0uUSTOvn2h89DgEkWSa0OuBhuDZO7K/ELnocElimSpvbzqQ5viaHYNLh4kh7tXjHxgZg25GpwTJEd3/dCqxRCRZnmkwdlDtl79xpGVa5W4iVO0IViDs0Oy7SX/6mS7pxo0OCMkz+0vN8MP0cisBucCic+XYgxOiUMiSCHJGoo1ODsk3STFa20/n5VboBpyNTg7JDt3XI2X+mbRhlgNzg2S/c88s4pc5e6aBg3OBgkhBx0q9CIaNy+INt6pDc4KiWcBz3C3u6IxNGcZ+4pmI0ODM0PygmtnMDdKn+GWq3pgxoZgDU4PgvvHkTV1i7yNhTuLAUbPf+4aTDWSmRe/roqgB8VccURyWWPBb3BGSMRmRz4oyRXRsKrBmSNZFULR4l5lqX3aUKzBmSBGuZnAniYSTIOzRWMtbbBhaMjVYMOgrBNCSUUKT4kGDU4fCuufy3WpHXbU4PwhsWCIi29EC0ll8QBZH8LY2UzFLLLZwNHgFKDC8OiSbqfLwtISrXaL61/5aqxupS8w6VWDBpMg3avvM1PBJQkWhtvKTMZ3AZVn2ICM6GnNuNlgMqrZoorQ6XToZwM6nQ7Xfs/LUNHCt2vMgbBR8hucArSUVKrKsRPHmZuZ5UUvuZZvfP1rjJ64VcZuL32iG4/VButDfQioKEmSsmlujsXlJQ4dPMBMp0uwUOhjjmjMF0Tia8FddseNNDg9RFOEKNu27yRNW3Q7bY4eOUTAE2xAsBwzBVpEkilCAqQ0kqvBetAQPHPzm9i560q8z+l2W6QtELdCLofJ5QhelvHSw+sypn2s8lttyNVgbWi7leKznL/+xte5/pWvZPuuK8g5QSb7Sef2c/dH/x15+jy5O4B3B/DuCEFXMHyNZA0arIbOdDfx4mtfyqtecyNZlvHia3bRmTtBOvMsN9/xz1jMv8L89sOE1pO42f38wtv+OV5OYNKvznJu0GASZMs1j5k5w8gRzXnl9+/kB36kzdYXLLD/2LeYnd9Cv7+NT+77LG+7+RY68gI++dH/TpLvRK2N2FSeTdXgPEC9F/LMM8gG+OD56lf+DNMj9PKn2bKthWeBwCF+6W0/xezmjMceei9In/Jo3QYN1oJ67/EhEMxYXDhBCIEnHv80Pk+wfCvk21hayNi29QpOHFvEdTcj1kJIkMZjp8E6UCMDAirCzOwcS0sZt73rPkL/Sh689zfZ1H4VV17xGh578D8y17qau+58AAkziLVYyx2sMa82AFCTHiYx6K6qY+v81Zw4uJ1H7/kDZOWVPPS+3+PIU9uwpWv4+Id/l4NPCRo2IdaO3hNjGF+NbHD5QtovfL+pa2NA4sC1Agsrh5iZadPrB/LlJbpbZ1g5fghUmdv0AnxvLpJrZK928cBTSLTR1C4PJCoJGKgKZoGQC91kG74f0ACd2U2EQaDVnUWAvO9QhEnEgnL7//oQGoJdDkhEFFFBpDj+sogEJwgqIKarhzqDScQqcSoEq2M9T9gG0ws1GT3LudyvGP0hpNh9Xdsse4otvt5tpxois9HZphtJdAi0Yp+ixAg3Barh6wxFyOn8bJxIjdSafjSGqgYbhotm7aaRVJceLrjkOlXdrMH04aKQXA2JLk1ccMnV4NJFQ64GG4aGXA02DA25GmwYGnI12DBcFLPFBiWk9nf6w7M35DofkLVpEh0B6jvYy8HEiJ4n00uwZO3l4WbZ+JygRqyhg0CIDprSAwwJbQSHiYElCB3EHNO+T0FlVbCRoZNyE3T3DFEc1GVjxDKBIJ6gGUGPkydP8o69P4l3h/B6FK/7CXoIyLgUOrdaPEZq4tXgzDBR1ohhMiDoIrkc4Mpr4Pa734TOPEUmT5K758j1Od5x278l0FvrKVOFZrZ4HmAoRiDIMsEd4M4P/gw/9fM3kCXfJJl/hnff+zPMbDnI7Xf+PDPzOUafade3oFHozwPGVA3p4/UArn0kSjHr4VrCW299ExKO859/83+AbsFCXvP6nU5U8bkabCQESBDrQmjz2KOP0Ol0SGSewYrw3HNPYnICdAHTRUxXMMliLI4p1k5UmiiB5wHxwBuxFLUZ3vKWvfQWujyx7/fYPPMKXvaS1/O5x3+HkHf52X/zZrLFlQud4XOCRufacBgQMELc9GIzJP5qHnvgD+gf/x7uf+/vc/jpqzjx/FXs+8h/xfkX0e5eVexq16keFmXmmgemOPsXKUZMEMSZYvHOZIWgx4AcrIvgiMp7DpIh1kLDFah1iQdQTG/zNAr9RqDYW1cSa/ghBXm2Fq8T4uAR94CaeMQUzGH4aVa3gIZcG4b6xt9R2ZOgFuPLVuEQpJBQ1SGq9V9NL8Uacm04BKm27jHy/2jwvHhf3JA8/Gya0ZDrvOBU415PN5nG0cwWG2wYGsm1gYjnKk36Zlyfmn79ahIacm0UDJByOLSRL4ZUspFv5bRDuFycKM/obMi1gVgdKqowR4xJqtH3kWDTRrFJh7425NoQFPIqDGeDVoQIWk22ujuzFLQqwlhN0dKcqhLCaFitRqE/TyhtqeMumTL2r37vxY7Xv/GHJ34uEjtGI7k2BJPZIWue6Tw9EmocZoaIVOd0BjMww6k25Dp/mF4CrYU//eP/V72ujlYUwRfDYzMsNjgrmAV+4PVvJBQSrCSWSHNKwXmArXGd7L6LG8NDYB0LJ04A4JIEHzxmgVa73ZDr/GAyccodQrn5uHVxSogFhWQSodVq8fyzzwDwspdfT+IScu85dORQo3NtLEY9HErlN0IQc5FOwRcKymp718WASTasYFYNhYsLUXIlLiHLM9IkJXGuIddGQWqSKh7nHGdQYPiQ0z94mB3Xvpa03eHAwSeZ6XRYWVkqfh0YJdj4MtH5RTBbRTCnSj8b0KbNq2+8iVarxRf+9I9pp63iDm2GxY2AjJFARXAqpEnK8uJxtmyexW3pcPjo39BfeYbULbGyfBDImUSg0bOULgzBfAjVBXFYnOnO4POcLM8QEW563Ru47vobmN+0ubFzbQRWO/tRbDEWfB6YnZ2jt3yYdus47ZkBh499lfnuNmCWYFsI1qnWGFc7HNbfnd8hs7RlmQVEHOocZoGbfvD1HD9+nC9+4U/p9/skLiFttWh3Og25NgqVU6CVw2PAOUd/sETijvOBD/4iu65e4kP33cNTf/s087OvYKXXihszin0ZZlKEWrh4sGnTFl50zTVs2bKFEydOsLC4wN/89TcJIaDqAMizjGwwaMh17lHIG9PCbRkgQ/AsLC7SaS+DPEN39jv08y9y9z2vo3/8Ot5/9+/hbHOc4lu529qBDBe37QIq+iqCN2Nh4QRf+8qX8CFw3ctfwaH9+wnFeZ0qUlnotbFznVtobSYYhzWHmIvnJ1kgLB+hlfawcJBu+xCbNx2g3XqSrZuWOXrwOzhbwVmOWkBtOCGIW9OseuqFglNldnaW3Hte94Yf4tD+/fRWloFh2bUwUUBjoT8pJu1Ir1dg/TOIw1j83qGkqJSn6sLOK7cRsqO0kwEtzegvncB5T76ywK6tsyRhGRdWSILhTIikyovzMIexIy4EvUQElzjMjBtv+gH+4s/+hOWlxVWeEHU0w+KakGLLhAcZUJ6oC4JJCoCRF/e1EWlh1cJ0JIKKQyTj6Ilnme0uIOEQW644zsrykywvP8W2OYflfforTzE39xyDpEO/f5jcd8FmcNIm0AbawAwwD7QvyHwxyzPIYTDI+PpXv0LiTk6dZlPsBKgIZoJKm36+yJZtRm9wkEG+GDex2iyCkLZyujObOXYIWm4LZg4sEKyPmKLWRuQEL3ppn7e/80cY5H/J1S8MWHaUQe9Zup0T+HwZCW3UZslWOsx1r6TXS3n/vfvo5Zt54KH/wOLyPO++8xPk/hqMrSNxv04Na9nJzs5+VulYa6CRXBMQLOo3wTKQPsu9IywuPUl7roj6EOYxlOPLxzHdgclWkDkwx1Ar8sCAYAus9A+y3PsbZuefJdgyaiukuoAfLKCyTJIcQ8xYGhyjteXFGAnve++P4+2F3HXHT+Ja12F+B8JVU7I4FNGQaw0EyxBdQdwC77tvL0EOMDOfoRogdAkhpd/PcGzmnjsfI9gymItKvAgqHgtLiCyxZfMcV+26iv7Kk7zn1scYnIBff+Kn0GSZbHCIMMhptzpsms1ROU4rbbFj+yzPPHecjz18H8eXtnPb7s8ibm39Zn2sRcmzo+p6Ugsacq0BQxREAqpw1217kZk+aasfN7JaG6GNz5V8JWVu9iVY7kZsnKE0HIQEP+iQ9TaT2NU8+uB9SLZA3j+M5gOc65A4CB5mZlKCJQxy8GGGTVuvIdgW+oMZct8hPQU952JCo3OtQrnInCNqqHoGfom4NAPgwFoIaSGpUlrJLCFE/UMsDoeCoeaAHt4fwIen2brlCHtv/9dc8+LNpG6JEI5joYcPOUIAyTGEQEqweRYX57j3g59jpbeLdvdlLC3PE5g7A53rwqAh1yqU5ArRfimGD77YZp8ASfHXFbEeBKcOM49JjooH86gIEhwicGLxIC9/2Qs4fPjr9FaeopUuEfwimI+kwjDLQXy0aokjhJQtW6/i/R/4BFm+k5vfcRebtryQQDI1jjkNuSbCavat6NUApao+GoYSGFmiid9Y1foqCa1kNlrdbQXnBsASvd4CSkoIQAhYkYYhqEtBPWgPwyGyFWQGVAkWbW/T0GjTNYifN8jYu9KBJlrLI2pOf1b+RtEi7LqoIBLvX+ot01vps2luM8t9odPu4tIrCF7jc8WKHT+CGYhLUedx7R553gfr4pI2uR+A+akgFjTkWhP1HS0iOvR2WNM8Xi5SR1U+rt4Y4NHEMTOv5CwgqTEofLt6PkMQVLV6tCEM6EEISM8Xi8FGnvXj0LuhpT63uKiWf0LwvObGmwjBF451FxrjTXkSH3gprvIeMZAQg+fKoLgyTAIeH00LzhMkI0iGl4wgg/gej6EE0+p500QsuIgk1/gaXn238ah78HnLEaP+U7aO1BrDSXa1mgXMQHXSAwvHekpdzgp70rRR6yIiF8TK/MqXvoiqI/e+9vmF9CWvSaFTvv8sk5v44cXhT386uBjGnhGplfscp8prbryp8Hw0QvATvRM2GuW29Kic62lflzvOj+Qa73RjPCklkxVOZi5JUFVarZTllRXSJD0v2Vwbq+PVnBLW3L5/eeAMu9eonWe920prcqB2wJvUbhif9ovS7/f5wp//CQCv/b7vP7MsnjMUBaiOITuNa0LYkVO7Lg0kscmVMizsyTH0hRy63Q7jBJh4gg2K71NMAiY9YpD/BLEEtTS6rlBUp+jQUFk44okIWZbT7c6cy/KeJs6FW/HpSrzxtKaXbIrkRG9nN8GFdjzATxXkh1GHW0M0XkafoEfx7ihBe+SyyK5rlJvv/Je05o7h9ThBBiBWkCgKz8r4WNiIvvf6V/La7/tB/urLX8JpEVr7vGLUZflMLpEz0dWkprPJWF6mC8WwOGmqO0qkcbEtUnutoBL3EqgzAivc9u5foT27iHdP89TBP0Jmv8O/+LnX4Ft/R3AHMV3GxFdpgVQEa3e6OJcQQuC6l9/ADa9+7QWq3rMd2s4k15NIPZ1QLMFKX+1qaaNOrElYv9AGmC5z850/DfpF3nnXj5O3/4Lujq9x2/t+jN3vexOSHiFYr3rO7Nw8S8uLzMzOcv0Nr0JU+MZffYVvfu2rfO0rXzpX5T2POFPJV//tdEOj8BqVXOsTK6JuGrBg+BDIvSf3HlHl0X33gzvEO9/7iwzsOQ4f/zbz23J6+fP0s4O4ZAASEFHMjBe+6MX8g3/447zqNTei6vi773y7Mp5OU/jGUVz2Cr1VyvW5XGAQAiID2m3HwomcmfZOsuU5Unbwucf/E4sLW+mqREVfhG9/8+u02m1eet3L+eqX/7LaXbPe7pIGFzdUhEKBjP7fUHk0rXFF1G1TokLiHK00pZ2mBO/ZvftX6S3M8IkHfofvuerHYPlafv3j/5PZ9Hu59V33keh8sTtGKuX1hle/lq9/9cs41QnS6tLq1ZcD1FtWBJioH5lucRNmoaRPuqh9H9e/PCHEK1FB/SZ+6zNfID94I0vPvpbPfeiP0cUbefCe3+XgsynKZoIJZjGQxQ++4Yf5yz//M4oNuzU3ltrsq/k3Xf+6137AIB4caWOHdk+KyzQuPaxmHhUVgvUwPQ448NuAlCDLiOQgcZu74CDE3chmCig+2CpPiNXSa/oWby9nJOYywBeKdaC+UL92U8rYHYUbnVmhpM/Ee1wOBKRmIEUMCz6aLEJeWbLTVPF+qF/JSfbENbj4kbj2YvVGCvfZSpk+zcYtKTeUeP34vngXzI/cJ0ZlRC3jOZ3NzHB6Z5WXJhJrP1+9GZdHZ9pUa1FS6q4rFsfl4Zf1ycQazz1dsp8l2S6EJ8alhES7B4qXp1+Ra1V+vVFHG7jwqLRyve70Gv98y6VGDp4dEmk9z1quuyfruSer/MkKef3M1NNrvkaSTBcSzwGGO1pGIRPdcE8dozrbuK3s9C3SYY18rgU9S4e90lPjXD3vdNMbx7Sln4guRCv4hDYelxOTTRMTflDcVt5e+oDHqCihimUVquFx+Pz1JhGnq0KdrZwbT2+j5eapVu9pPXPsR+v5L57r9BNCFr25QqFg1/chWMxdac80fJU5Kw2oJZGseG+rM1FNFIp7rLipPmsEkCAkJiO/qQol0aZWVY6cRWMLIz8u7MBFBMDxxeNCTxRAQi0vxbe18p9xdsrymxTpS5Wn8vADEyuO1WOkDerdc2IepPhchvW4Ot2yDmL6Mla5a+XBJjyrjkStDQE0OMQrqaZY7hkGijVQIWggqCeojw6AGlb1AitdTccaXsr/pCBYKV3LxweNBtUBpJqixEZWkcoJNGggkMc84DENiEKI2RumP5JoLZ3xyi0JVpIqJNhASLQ9lr4V5fXkZFX5kUDQkzduqJNYh++FIt8j5RdSaaEVyWP6se5zgsujM6YGgkAoGliKtEuSjAwg5WfRfj1CyPI3ZfrOu8gDU1LXJuS+IlRQH7e+qSeoFR09drqSvDo2qibtbA7LDRcc73zrLVhmQyaHABoLEdTzxOcejw+X2MjSgiAeM18UoOjl440LkcDFGqJ6AVMsAwmKkiBeueVtt2KZkYgj5L6KXhcKcj3+2U/HtCWSnMQwDVVH8MFHEolVZ0tbrdLrjS+mKGmM52AOyZVb3nYbllE1rpSi2BlePE989tMEzbGio2XkkWjFCoWWHYi6RCtimYoiProISNHttYyXWnTsW952GwwMNUEseoug4CWm98TnP110rpzgPD4JBA0IhtTUCSk7Uk28CoL6YbtIUCQTWq5DyAwXlJvfcguJJThcrPSCqp6AV8/jn/1UQbJY/6FIv5yklXkopZs88OkHjGBFJLzo9WwBnLpi13EgYAQJmHh8UaFec/7gD38fX/Umz1PPfhfTvGJ0yeq4N9SRSAsJDofD+ZS3/NxbSWmRuhQ/CCSSQhB8Fmilw00ZsbFi+jEfsbCf+Y3P4F2OJwYBGVgPU48VPQuJZdEgSEjQEEkspjif8I43v5OUlMSl5INAKgmEcmWs5gkqUXoFKaR2kf4nP/treOcx8bHczmMa80hZBwHUBLUkSoWQ4EKC+oS3/tLbSaVFqi3CwJOU6Vc8KVzPpah/ZwSJ677eZXzq85/Au6ySrEHL9IeySwqixrRLMisupLzrl29FMiURFyW1F1KX0lvp02q1sWBFZymHxFDUv5Frzqc+/2tF+4eiw5VcKKwC+/Y9Gru5xQp1roXP43JQXCss2Ihh5JWV3ZwnSwZFhULQnE/9+0/gNa8aoIRaLNjb33wzGhxqsXCzOkvoG+YDnc4MK8t9EpcSvNFut8mzvGrfag2z0Hu8egaaxd4jHq+eJz73yUKyBsqdz5HcUdy//c3vLNKPQ8CsmyX046kQ3U6XleUVEpeMuBnHRfRy/PSFXDa8ejIdjKT/+Gc/WTVweexw5GZM/+ZfuQX1CYm1SCxFvYNcILeR9KP0ieNdqKkndX0vaM7ArZBrhqkV5f80QQuVpSJXJJMGx9t/+R24ov7TkJLmbVxQBAg+4Io48oX4ZwQy5AFl/bseXnOCFOl//vGh2iSGPLbvUbNgReQUqSpVRGPPq0V7sSI00Kg0CVWi9QcPZU45BAyHgbJHaaXAVoJ1KC0YP+TEquG3cvcRK/SOeq8qFb9Rm1pMTwulXYv8aFWJdTKMmElsODyYFUOQyEgvtlKylO+Lnj5cjSiGYXNRv8HVlPcyPWrpT0aldBP94Ib1DUECXkMh2cqb65Irllertoiki+pMKNZyQ838tHrqWAZLKfW6YZmpCBYqpd9IqsqtP8GYEPTCKsU5ziggBj9LigawQmIM7x/9eZSMo0fxWo2I47Cx8lmUKEY1m1GLOowV+S6lSqnJyohZoz4bHpJ4vIzrva7CgROHeRWtqTW1WWVZtnoZyolDQVipflPP/5o1USNWqUNq1F0ZKulB6ukXZS7KW5JZKIfdmmQtD1LQ0bZZjZJW8VnOHOCq9JOCWGVJkiBRuS6yVxWgfH45Da3LEVuVVHnfONuHca7KqDGhIEkptssxPb4z6lyrz3yqJ5baqsShsiZHV03XVs1mjaEppP7sclq1ygwy+swqSpdJYRMa3ik21DFLyb3mk3AAAAXbSURBVFHO0qo7iy/HJ6xlGiXxxstQfSKlBjP0vavqkdoMsMx6rRxlvoZSLaoYsTbqo8do2nVIUd/xGZNGGRtpw6T8ouBjFVhMigeU08xyt4+ZVbVSHTZUy0T9PEGzAMWkoNxNbeX0baLkqFW0SFQoywO6a41pDHNdf716WBv9BBk29iRJIcKEDFGlYyM3SD271SdWf1ccUaJWO1ilRpbYneNsd1i+oXSxotdOMnxWtq56IctcWa0Gqu+GbBsREzLs2iNfTkiz1PdGbhypr9HOk0Q+ekSI27l8zWGwjC5TEqmWqqgQSl3NQhVjajQzCmYEo3JdFgwLAaliUq0emOrlKskabU5F2qukZNlzR2tm1bPGfjZaf6ulbi0TNboy7HTFz+qpl/eZgJdILBcEZzUDZAjViKCF3hjlsEdFoy6IROGiRRilSQSr8jPW5KVwt7KuynvHmaMTPhutkbGutDoTozkZeZeU7sxmhiuOOSsfKzYMgIbVRLwKeT6MoZW2WgwGA1qtVjRd+OJcvorpJSmi7cg5LWakoy1dFaTuVaFRguW5H+3ypwIZq5yT/u7UE5Cxv+MIGMGBC56Zfk7bFyaLmp41nAxEaiEegqEkBG3Rcx3i+onVTucYzeFaOa1UlVU3jH2w1npQfTg/Q1SBSESE3qAXz61Rx+7du2klKf2sz75H9rF7zx4efeRR9uyNf999x14+vu/j7N2zl3379vGe99wZjZjAvkf28e479uLU8dDDD3PXe+7ioYceJITAnr17ePjhj+FUV8XdqprWCvGqwk/8xE+QZRntdvssinkqWEdyncavIEp0JOBlwGxvmc/dcSebsj5BM9Baq5XKr0rUZywHMzJvHKPLy//Jmxhoa5UudPY41d55dkjqM4ayoXOfIyLc/+AD7N2zhyRNMYzde3dXPxSEPXv2xKxaVNI/vu+Rke8feOBBxCDPM+64404effTRmGjioj5Vx4TyisSQjiJR0k0LgoFoPKZFs2W2kbGVFcz6KFG/0uJI4iwfkA9yBKMlUcUYeCPpOBLzG0Cs84dKURr3larP8nq9Hvse2Qcw/LtvHyJSEcYskCYpt+++HQuxR959991keYYRK2337tvjvWE4iyxjcK2FMn6CS1yMkzUFl0scSaK0U0c3VQZLx8gXj5AvHWawsJ/sxH76x56jf+w5/OIh0nyZdr5C1/fp5H22poob9Ipj8aYXI1p4mqbVUJWkaRVtxqny7jvejVPHnr17EI0RaMphEMAHT5Znlc+PU8cjjzxCmqR0Wh0+9vDHCCGeG9hut4e2lXV2VIsoIXja7TaqjiRJcS65+K/E4ZyLFm9RpDuDzcxCdxbpzCGd2Xh1Z5HuHFnSIUu7LEubvuuy6B3amY9Sa2QmMV0YIVe/368Uc5/n3Hnne6rlCB88Dz/0cJRCwUjKyivg1LF3794Rh7Nbb3sXuc+rrf4PP/wxtIi/FaP1rV9rIXjy3FeRBcuZ6cV+Be/x3hM89CXlaGuWA+3NHG5t5WhnO8c62zne3c6x7nb2J5vZn2xhf/sKnu/u5ODsVexPd3JY5ulLQhmffhoh+/Z93OpD0yoFu5DM6jTGKs2y+N1JvFSDD8VwltDrrYycz6duyOlVulcNufe0WilZlpMkjuAv/oquGymVnLbPmMsy2j5D8agUBunSXqqKiWOQe8TiZMDh6GvKYrtLX9OxcEq1tE4i0U5thrxxSEZsGRNmbiWCD1XjlsRajxjls3yekybD4fa0MudcsaCqWLgQEZ1PH8MsKmIJXpWlNGUlsYmtHU2/Cq3aMxCCCJkVFu+1ErO1CXYx1FQCVKHTTzVD65HqssfQsgkoXpTgShKtVcOT7GsGpzAkno0H7EbjvIUKH4krf5mQc7hmd/I7V6P0UImvpxEXVRz6BuOYTlKVaIKlN9gwNJJrFdZaXzxdKXJ5DP3r4TIl13oEqpNotQvP6T3v8ibYpU+u9daj634zNk6g05VUdYKV0++zINclcPrG/wf6x+l7FFg/5wAAAABJRU5ErkJggg==;fontSize=30;" parent="1" vertex="1">
          <mxGeometry x="732" y="390" width="151" height="177" as="geometry" />
        </mxCell>
        <mxCell id="PsIKEqwVILS5Xcvsca47-19" style="edgeStyle=orthogonalEdgeStyle;rounded=1;orthogonalLoop=1;jettySize=auto;html=1;exitX=1;exitY=0.5;exitDx=0;exitDy=0;fontSize=30;strokeColor=#A3A3A3;jumpSize=14;" parent="1" source="PsIKEqwVILS5Xcvsca47-20" target="PsIKEqwVILS5Xcvsca47-22" edge="1">
          <mxGeometry relative="1" as="geometry" />
        </mxCell>
        <mxCell id="PsIKEqwVILS5Xcvsca47-28" style="edgeStyle=orthogonalEdgeStyle;rounded=1;jumpSize=14;orthogonalLoop=1;jettySize=auto;html=1;exitX=1;exitY=0.5;exitDx=0;exitDy=0;entryX=0;entryY=0.5;entryDx=0;entryDy=0;strokeColor=#A3A3A3;fontSize=30;" parent="1" source="PsIKEqwVILS5Xcvsca47-20" target="PsIKEqwVILS5Xcvsca47-27" edge="1">
          <mxGeometry relative="1" as="geometry" />
        </mxCell>
        <mxCell id="PsIKEqwVILS5Xcvsca47-20" value="" style="shape=image;verticalLabelPosition=bottom;labelBackgroundColor=default;verticalAlign=top;aspect=fixed;imageAspect=0;image=data:image/png,iVBORw0KGgoAAAANSUhEUgAAAJcAAACxCAYAAADJai9SAAAgAElEQVR4nO2dabBl11Xff2vtc+7whp7UgyzLtoQtLMuTEOABUoFAhVQllQAphxSBADHGgyxL6m5LFrJly/KgyVJbxrZkYjtJURAIRYWQSlVSJCm+pJiM8YAnbMBCY8/Dm+695+y98mGfc+659933enzdfbvPv+v0u8O5Z0//vfbaa6+9trzxDfuMBmtATvKdAIYQEHqILID0ATBaBJsHayMIwgD0BEIfMIw2FjbHv8XzZCRNi5+vl4WLHElm117oPEwplLTVJR/0cDbA6QHQ50AOkKQJy705Arsw20FiKSqHEZ5BkkOAYWEHZteQhx0EEQxBTSqKQUEvm96+nwQ2X+g8TCmE/sAhGE6XQI/xoY/cQrt7hKXlZTS5mjt+9bdwyQxhAKpH+fBHb0PdfsAIYRd33fk7iG4ihHlcMo/lHiySK/4ppNeUQm56/f+e5vxfOAikacpg8Pe0Wt/i/gd+AZ9/i3s/eDudziy37r6PtPu93PWej7J5Zob73r8blee59/27AeGDH3yULN/BPff8BoPsBmDXyMONimdTS7AECRc6D1MKYzAYoOLBMiws0Jk5SpC/JWeGzsxx1OWkSUYIT6PueVxYRMkBRWWFdnqIRPcTeCk+BJBIqEisQoJhFcmmDcn09osLCxVBUJTNaP+lfOA9n+H+j7+Kjz36NoIIfrDIXXsep203YNmXCZkn0TbiZwGH+i6IogZqSjAHYoARKoKVqU1nGyUXOgPTCrNAlg3opkAA8wEJRshzAooYzM3PcfTwgNnZNuoSCFn56+KS2gWTp4bCtJJLRwt4sV2ni41+/hAGpGmLwALS+ls+fP87ENvMR+/9be7/wH8Bv4Vf/cAv4Ob+nn5YJGhK0AxzS5g7QXDLBIWAI6hhanEIRBATxBQ1h5hDLIEpvJK1K3k6e8uIgrIuf86ufAJk2YBWCqZKFlokYQdZ70qwBPPbWeoFBrmjo1fh/S5EMrw4BE+gjQ+7yG0XnjYmpSQbWrzMQEQYfjNdkJve8Idr1HIpui9eSJG9kk9ioxJpfSPkycsn62rSBnhEeogcR/VJPnL/T+P0edQgD7u4657fJ/e7aLs2vZXv8tDHfhbnno/k8lfyvvf+N3y4BrN5LLRimsVMcViuaaRVxKVNrpNKrlMh13qS3RNn2wZyEE2+hdNDOIwQriALr8CH7ZCDuiNI8k3UHUYJmN+OD6/CbOfwkWE0P9M6SywxtQq9AUHja7FRCmx8o5QJOAwFDLMdWD6HJ0cIGA4fUpIkQVKH2XZCuIkQsoLTKcjMyNOmnUzjmFpywaQ5VrFKV+gpcelko1qsNnwB0AE2EwkXMMtQGRBCwELAB0ea7IzfG0BAyAC/Qfm78JhacglxRBpO1I1QDHVihUhD1/j12aK+qBwXrsEglB96pLBZmQkiQpooZoO4iF2JKD981iWI6SWXgdZ0LhNFArTbGT58FzMjhCsx5s552pMnCoYUZClXPeKQGfU2M6tkXTUbvGRpFbFRXfu8wIrlkiAKkqJ0sOwQneSPePD+H0XlwPBeO/1lrmopZuwaJZZgaLzE4kWkWkmlWM3lJdV9lzqmVnJZOR5KDtJHxePE4/gmD9z/TwnyBVSfJvidhc+UIzZ59YRTS+gkJBgSyGr2KFnj6UZdXl1i+vsqTC25AAKGhWVEnqXVOobjEHOz38DpMqpzJO67eLsKYxcWuiCuYEOoOeadzJY16VNZ83sbe16kWdTJ6sOgXPLUmvJhEYR2usRHP/STpO5/cf8Db+RDH/lHdLp/T5Ic4MMf+RVUn8fCUvULGxvSTndp6CSWsZFLRkg4vC59WkVMteQSA7FnmZ/5Pzz80HWY/jaSLGH0cG4zps+BPIfKi4uZXPXLU1pSWZtIZ6YvXQ7Sqo6pJVepCil9nOyn2zlKbh5vM2T5NowXEcIVBGaBBFWHWV3nOd8NfXkRC6aUXGYBROM6nHUx/wKWFq4nDzvxNofhyP1LuPue/0sIr8bYAmYoHswKI2tpJmiwUZhKcolEVTGu7m1h4L+Pe+95gjxcjbd5ALx9Bx9uwGwnJg6EaNDkctJ6LiymcuHaIBolxSEs4vRpTHKCbcXoRDsmaZRqpFhBRi2HxcLIKWO7bcZTOVsj5+VO4UTXNS5evOQCCD7HJXPAy/C5EegCaaGPeVRyCoMFMNTTAlGljwve66ntDbnOBkl7mhchVCF4EEhFMXKGC8GljXy10XKo0k9tyacCyWY31F+mEyPONqwuyST5cbnLlPODZFM+AKaZXA0uViS79NL1J2pwYZHsyBcvdB4aXKJIrnRHLnQeGlyiSDbLkxc6Dw0uUSTOvn2h89DgEkWSa0OuBhuDZO7K/ELnocElimSpvbzqQ5viaHYNLh4kh7tXjHxgZg25GpwTJEd3/dCqxRCRZnmkwdlDtl79xpGVa5W4iVO0IViDs0Oy7SX/6mS7pxo0OCMkz+0vN8MP0cisBucCic+XYgxOiUMiSCHJGoo1ODsk3STFa20/n5VboBpyNTg7JDt3XI2X+mbRhlgNzg2S/c88s4pc5e6aBg3OBgkhBx0q9CIaNy+INt6pDc4KiWcBz3C3u6IxNGcZ+4pmI0ODM0PygmtnMDdKn+GWq3pgxoZgDU4PgvvHkTV1i7yNhTuLAUbPf+4aTDWSmRe/roqgB8VccURyWWPBb3BGSMRmRz4oyRXRsKrBmSNZFULR4l5lqX3aUKzBmSBGuZnAniYSTIOzRWMtbbBhaMjVYMOgrBNCSUUKT4kGDU4fCuufy3WpHXbU4PwhsWCIi29EC0ll8QBZH8LY2UzFLLLZwNHgFKDC8OiSbqfLwtISrXaL61/5aqxupS8w6VWDBpMg3avvM1PBJQkWhtvKTMZ3AZVn2ICM6GnNuNlgMqrZoorQ6XToZwM6nQ7Xfs/LUNHCt2vMgbBR8hucArSUVKrKsRPHmZuZ5UUvuZZvfP1rjJ64VcZuL32iG4/VButDfQioKEmSsmlujsXlJQ4dPMBMp0uwUOhjjmjMF0Tia8FddseNNDg9RFOEKNu27yRNW3Q7bY4eOUTAE2xAsBwzBVpEkilCAqQ0kqvBetAQPHPzm9i560q8z+l2W6QtELdCLofJ5QhelvHSw+sypn2s8lttyNVgbWi7leKznL/+xte5/pWvZPuuK8g5QSb7Sef2c/dH/x15+jy5O4B3B/DuCEFXMHyNZA0arIbOdDfx4mtfyqtecyNZlvHia3bRmTtBOvMsN9/xz1jMv8L89sOE1pO42f38wtv+OV5OYNKvznJu0GASZMs1j5k5w8gRzXnl9+/kB36kzdYXLLD/2LeYnd9Cv7+NT+77LG+7+RY68gI++dH/TpLvRK2N2FSeTdXgPEC9F/LMM8gG+OD56lf+DNMj9PKn2bKthWeBwCF+6W0/xezmjMceei9In/Jo3QYN1oJ67/EhEMxYXDhBCIEnHv80Pk+wfCvk21hayNi29QpOHFvEdTcj1kJIkMZjp8E6UCMDAirCzOwcS0sZt73rPkL/Sh689zfZ1H4VV17xGh578D8y17qau+58AAkziLVYyx2sMa82AFCTHiYx6K6qY+v81Zw4uJ1H7/kDZOWVPPS+3+PIU9uwpWv4+Id/l4NPCRo2IdaO3hNjGF+NbHD5QtovfL+pa2NA4sC1Agsrh5iZadPrB/LlJbpbZ1g5fghUmdv0AnxvLpJrZK928cBTSLTR1C4PJCoJGKgKZoGQC91kG74f0ACd2U2EQaDVnUWAvO9QhEnEgnL7//oQGoJdDkhEFFFBpDj+sogEJwgqIKarhzqDScQqcSoEq2M9T9gG0ws1GT3LudyvGP0hpNh9Xdsse4otvt5tpxois9HZphtJdAi0Yp+ixAg3Barh6wxFyOn8bJxIjdSafjSGqgYbhotm7aaRVJceLrjkOlXdrMH04aKQXA2JLk1ccMnV4NJFQ64GG4aGXA02DA25GmwYGnI12DBcFLPFBiWk9nf6w7M35DofkLVpEh0B6jvYy8HEiJ4n00uwZO3l4WbZ+JygRqyhg0CIDprSAwwJbQSHiYElCB3EHNO+T0FlVbCRoZNyE3T3DFEc1GVjxDKBIJ6gGUGPkydP8o69P4l3h/B6FK/7CXoIyLgUOrdaPEZq4tXgzDBR1ohhMiDoIrkc4Mpr4Pa734TOPEUmT5K758j1Od5x278l0FvrKVOFZrZ4HmAoRiDIMsEd4M4P/gw/9fM3kCXfJJl/hnff+zPMbDnI7Xf+PDPzOUafade3oFHozwPGVA3p4/UArn0kSjHr4VrCW299ExKO859/83+AbsFCXvP6nU5U8bkabCQESBDrQmjz2KOP0Ol0SGSewYrw3HNPYnICdAHTRUxXMMliLI4p1k5UmiiB5wHxwBuxFLUZ3vKWvfQWujyx7/fYPPMKXvaS1/O5x3+HkHf52X/zZrLFlQud4XOCRufacBgQMELc9GIzJP5qHnvgD+gf/x7uf+/vc/jpqzjx/FXs+8h/xfkX0e5eVexq16keFmXmmgemOPsXKUZMEMSZYvHOZIWgx4AcrIvgiMp7DpIh1kLDFah1iQdQTG/zNAr9RqDYW1cSa/ghBXm2Fq8T4uAR94CaeMQUzGH4aVa3gIZcG4b6xt9R2ZOgFuPLVuEQpJBQ1SGq9V9NL8Uacm04BKm27jHy/2jwvHhf3JA8/Gya0ZDrvOBU415PN5nG0cwWG2wYGsm1gYjnKk36Zlyfmn79ahIacm0UDJByOLSRL4ZUspFv5bRDuFycKM/obMi1gVgdKqowR4xJqtH3kWDTRrFJh7425NoQFPIqDGeDVoQIWk22ujuzFLQqwlhN0dKcqhLCaFitRqE/TyhtqeMumTL2r37vxY7Xv/GHJ34uEjtGI7k2BJPZIWue6Tw9EmocZoaIVOd0BjMww6k25Dp/mF4CrYU//eP/V72ujlYUwRfDYzMsNjgrmAV+4PVvJBQSrCSWSHNKwXmArXGd7L6LG8NDYB0LJ04A4JIEHzxmgVa73ZDr/GAyccodQrn5uHVxSogFhWQSodVq8fyzzwDwspdfT+IScu85dORQo3NtLEY9HErlN0IQc5FOwRcKymp718WASTasYFYNhYsLUXIlLiHLM9IkJXGuIddGQWqSKh7nHGdQYPiQ0z94mB3Xvpa03eHAwSeZ6XRYWVkqfh0YJdj4MtH5RTBbRTCnSj8b0KbNq2+8iVarxRf+9I9pp63iDm2GxY2AjJFARXAqpEnK8uJxtmyexW3pcPjo39BfeYbULbGyfBDImUSg0bOULgzBfAjVBXFYnOnO4POcLM8QEW563Ru47vobmN+0ubFzbQRWO/tRbDEWfB6YnZ2jt3yYdus47ZkBh499lfnuNmCWYFsI1qnWGFc7HNbfnd8hs7RlmQVEHOocZoGbfvD1HD9+nC9+4U/p9/skLiFttWh3Og25NgqVU6CVw2PAOUd/sETijvOBD/4iu65e4kP33cNTf/s087OvYKXXihszin0ZZlKEWrh4sGnTFl50zTVs2bKFEydOsLC4wN/89TcJIaDqAMizjGwwaMh17lHIG9PCbRkgQ/AsLC7SaS+DPEN39jv08y9y9z2vo3/8Ot5/9+/hbHOc4lu529qBDBe37QIq+iqCN2Nh4QRf+8qX8CFw3ctfwaH9+wnFeZ0qUlnotbFznVtobSYYhzWHmIvnJ1kgLB+hlfawcJBu+xCbNx2g3XqSrZuWOXrwOzhbwVmOWkBtOCGIW9OseuqFglNldnaW3Hte94Yf4tD+/fRWloFh2bUwUUBjoT8pJu1Ir1dg/TOIw1j83qGkqJSn6sLOK7cRsqO0kwEtzegvncB5T76ywK6tsyRhGRdWSILhTIikyovzMIexIy4EvUQElzjMjBtv+gH+4s/+hOWlxVWeEHU0w+KakGLLhAcZUJ6oC4JJCoCRF/e1EWlh1cJ0JIKKQyTj6Ilnme0uIOEQW644zsrykywvP8W2OYflfforTzE39xyDpEO/f5jcd8FmcNIm0AbawAwwD7QvyHwxyzPIYTDI+PpXv0LiTk6dZlPsBKgIZoJKm36+yJZtRm9wkEG+GDex2iyCkLZyujObOXYIWm4LZg4sEKyPmKLWRuQEL3ppn7e/80cY5H/J1S8MWHaUQe9Zup0T+HwZCW3UZslWOsx1r6TXS3n/vfvo5Zt54KH/wOLyPO++8xPk/hqMrSNxv04Na9nJzs5+VulYa6CRXBMQLOo3wTKQPsu9IywuPUl7roj6EOYxlOPLxzHdgclWkDkwx1Ar8sCAYAus9A+y3PsbZuefJdgyaiukuoAfLKCyTJIcQ8xYGhyjteXFGAnve++P4+2F3HXHT+Ja12F+B8JVU7I4FNGQaw0EyxBdQdwC77tvL0EOMDOfoRogdAkhpd/PcGzmnjsfI9gymItKvAgqHgtLiCyxZfMcV+26iv7Kk7zn1scYnIBff+Kn0GSZbHCIMMhptzpsms1ROU4rbbFj+yzPPHecjz18H8eXtnPb7s8ibm39Zn2sRcmzo+p6Ugsacq0BQxREAqpw1217kZk+aasfN7JaG6GNz5V8JWVu9iVY7kZsnKE0HIQEP+iQ9TaT2NU8+uB9SLZA3j+M5gOc65A4CB5mZlKCJQxy8GGGTVuvIdgW+oMZct8hPQU952JCo3OtQrnInCNqqHoGfom4NAPgwFoIaSGpUlrJLCFE/UMsDoeCoeaAHt4fwIen2brlCHtv/9dc8+LNpG6JEI5joYcPOUIAyTGEQEqweRYX57j3g59jpbeLdvdlLC3PE5g7A53rwqAh1yqU5ArRfimGD77YZp8ASfHXFbEeBKcOM49JjooH86gIEhwicGLxIC9/2Qs4fPjr9FaeopUuEfwimI+kwjDLQXy0aokjhJQtW6/i/R/4BFm+k5vfcRebtryQQDI1jjkNuSbCavat6NUApao+GoYSGFmiid9Y1foqCa1kNlrdbQXnBsASvd4CSkoIQAhYkYYhqEtBPWgPwyGyFWQGVAkWbW/T0GjTNYifN8jYu9KBJlrLI2pOf1b+RtEi7LqoIBLvX+ot01vps2luM8t9odPu4tIrCF7jc8WKHT+CGYhLUedx7R553gfr4pI2uR+A+akgFjTkWhP1HS0iOvR2WNM8Xi5SR1U+rt4Y4NHEMTOv5CwgqTEofLt6PkMQVLV6tCEM6EEISM8Xi8FGnvXj0LuhpT63uKiWf0LwvObGmwjBF451FxrjTXkSH3gprvIeMZAQg+fKoLgyTAIeH00LzhMkI0iGl4wgg/gej6EE0+p500QsuIgk1/gaXn238ah78HnLEaP+U7aO1BrDSXa1mgXMQHXSAwvHekpdzgp70rRR6yIiF8TK/MqXvoiqI/e+9vmF9CWvSaFTvv8sk5v44cXhT386uBjGnhGplfscp8prbryp8Hw0QvATvRM2GuW29Kic62lflzvOj+Qa73RjPCklkxVOZi5JUFVarZTllRXSJD0v2Vwbq+PVnBLW3L5/eeAMu9eonWe920prcqB2wJvUbhif9ovS7/f5wp//CQCv/b7vP7MsnjMUBaiOITuNa0LYkVO7Lg0kscmVMizsyTH0hRy63Q7jBJh4gg2K71NMAiY9YpD/BLEEtTS6rlBUp+jQUFk44okIWZbT7c6cy/KeJs6FW/HpSrzxtKaXbIrkRG9nN8GFdjzATxXkh1GHW0M0XkafoEfx7ihBe+SyyK5rlJvv/Je05o7h9ThBBiBWkCgKz8r4WNiIvvf6V/La7/tB/urLX8JpEVr7vGLUZflMLpEz0dWkprPJWF6mC8WwOGmqO0qkcbEtUnutoBL3EqgzAivc9u5foT27iHdP89TBP0Jmv8O/+LnX4Ft/R3AHMV3GxFdpgVQEa3e6OJcQQuC6l9/ADa9+7QWq3rMd2s4k15NIPZ1QLMFKX+1qaaNOrElYv9AGmC5z850/DfpF3nnXj5O3/4Lujq9x2/t+jN3vexOSHiFYr3rO7Nw8S8uLzMzOcv0Nr0JU+MZffYVvfu2rfO0rXzpX5T2POFPJV//tdEOj8BqVXOsTK6JuGrBg+BDIvSf3HlHl0X33gzvEO9/7iwzsOQ4f/zbz23J6+fP0s4O4ZAASEFHMjBe+6MX8g3/447zqNTei6vi773y7Mp5OU/jGUVz2Cr1VyvW5XGAQAiID2m3HwomcmfZOsuU5Unbwucf/E4sLW+mqREVfhG9/8+u02m1eet3L+eqX/7LaXbPe7pIGFzdUhEKBjP7fUHk0rXFF1G1TokLiHK00pZ2mBO/ZvftX6S3M8IkHfofvuerHYPlafv3j/5PZ9Hu59V33keh8sTtGKuX1hle/lq9/9cs41QnS6tLq1ZcD1FtWBJioH5lucRNmoaRPuqh9H9e/PCHEK1FB/SZ+6zNfID94I0vPvpbPfeiP0cUbefCe3+XgsynKZoIJZjGQxQ++4Yf5yz//M4oNuzU3ltrsq/k3Xf+6137AIB4caWOHdk+KyzQuPaxmHhUVgvUwPQ448NuAlCDLiOQgcZu74CDE3chmCig+2CpPiNXSa/oWby9nJOYywBeKdaC+UL92U8rYHYUbnVmhpM/Ee1wOBKRmIEUMCz6aLEJeWbLTVPF+qF/JSfbENbj4kbj2YvVGCvfZSpk+zcYtKTeUeP34vngXzI/cJ0ZlRC3jOZ3NzHB6Z5WXJhJrP1+9GZdHZ9pUa1FS6q4rFsfl4Zf1ycQazz1dsp8l2S6EJ8alhES7B4qXp1+Ra1V+vVFHG7jwqLRyve70Gv98y6VGDp4dEmk9z1quuyfruSer/MkKef3M1NNrvkaSTBcSzwGGO1pGIRPdcE8dozrbuK3s9C3SYY18rgU9S4e90lPjXD3vdNMbx7Sln4guRCv4hDYelxOTTRMTflDcVt5e+oDHqCihimUVquFx+Pz1JhGnq0KdrZwbT2+j5eapVu9pPXPsR+v5L57r9BNCFr25QqFg1/chWMxdac80fJU5Kw2oJZGseG+rM1FNFIp7rLipPmsEkCAkJiO/qQol0aZWVY6cRWMLIz8u7MBFBMDxxeNCTxRAQi0vxbe18p9xdsrymxTpS5Wn8vADEyuO1WOkDerdc2IepPhchvW4Ot2yDmL6Mla5a+XBJjyrjkStDQE0OMQrqaZY7hkGijVQIWggqCeojw6AGlb1AitdTccaXsr/pCBYKV3LxweNBtUBpJqixEZWkcoJNGggkMc84DENiEKI2RumP5JoLZ3xyi0JVpIqJNhASLQ9lr4V5fXkZFX5kUDQkzduqJNYh++FIt8j5RdSaaEVyWP6se5zgsujM6YGgkAoGliKtEuSjAwg5WfRfj1CyPI3ZfrOu8gDU1LXJuS+IlRQH7e+qSeoFR09drqSvDo2qibtbA7LDRcc73zrLVhmQyaHABoLEdTzxOcejw+X2MjSgiAeM18UoOjl440LkcDFGqJ6AVMsAwmKkiBeueVtt2KZkYgj5L6KXhcKcj3+2U/HtCWSnMQwDVVH8MFHEolVZ0tbrdLrjS+mKGmM52AOyZVb3nYbllE1rpSi2BlePE989tMEzbGio2XkkWjFCoWWHYi6RCtimYoiProISNHttYyXWnTsW952GwwMNUEseoug4CWm98TnP110rpzgPD4JBA0IhtTUCSk7Uk28CoL6YbtIUCQTWq5DyAwXlJvfcguJJThcrPSCqp6AV8/jn/1UQbJY/6FIv5yklXkopZs88OkHjGBFJLzo9WwBnLpi13EgYAQJmHh8UaFec/7gD38fX/Umz1PPfhfTvGJ0yeq4N9SRSAsJDofD+ZS3/NxbSWmRuhQ/CCSSQhB8Fmilw00ZsbFi+jEfsbCf+Y3P4F2OJwYBGVgPU48VPQuJZdEgSEjQEEkspjif8I43v5OUlMSl5INAKgmEcmWs5gkqUXoFKaR2kf4nP/treOcx8bHczmMa80hZBwHUBLUkSoWQ4EKC+oS3/tLbSaVFqi3CwJOU6Vc8KVzPpah/ZwSJ677eZXzq85/Au6ySrEHL9IeySwqixrRLMisupLzrl29FMiURFyW1F1KX0lvp02q1sWBFZymHxFDUv5Frzqc+/2tF+4eiw5VcKKwC+/Y9Gru5xQp1roXP43JQXCss2Ihh5JWV3ZwnSwZFhULQnE/9+0/gNa8aoIRaLNjb33wzGhxqsXCzOkvoG+YDnc4MK8t9EpcSvNFut8mzvGrfag2z0Hu8egaaxd4jHq+eJz73yUKyBsqdz5HcUdy//c3vLNKPQ8CsmyX046kQ3U6XleUVEpeMuBnHRfRy/PSFXDa8ejIdjKT/+Gc/WTVweexw5GZM/+ZfuQX1CYm1SCxFvYNcILeR9KP0ieNdqKkndX0vaM7ArZBrhqkV5f80QQuVpSJXJJMGx9t/+R24ov7TkJLmbVxQBAg+4Io48oX4ZwQy5AFl/bseXnOCFOl//vGh2iSGPLbvUbNgReQUqSpVRGPPq0V7sSI00Kg0CVWi9QcPZU45BAyHgbJHaaXAVoJ1KC0YP+TEquG3cvcRK/SOeq8qFb9Rm1pMTwulXYv8aFWJdTKMmElsODyYFUOQyEgvtlKylO+Lnj5cjSiGYXNRv8HVlPcyPWrpT0aldBP94Ib1DUECXkMh2cqb65Irllertoiki+pMKNZyQ838tHrqWAZLKfW6YZmpCBYqpd9IqsqtP8GYEPTCKsU5ziggBj9LigawQmIM7x/9eZSMo0fxWo2I47Cx8lmUKEY1m1GLOowV+S6lSqnJyohZoz4bHpJ4vIzrva7CgROHeRWtqTW1WWVZtnoZyolDQVipflPP/5o1USNWqUNq1F0ZKulB6ukXZS7KW5JZKIfdmmQtD1LQ0bZZjZJW8VnOHOCq9JOCWGVJkiBRuS6yVxWgfH45Da3LEVuVVHnfONuHca7KqDGhIEkptssxPb4z6lyrz3yqJ5baqsShsiZHV03XVs1mjaEppP7sclq1ygwy+swqSpdJYRMa3ik21DFLyb3mk3AAAAXbSURBVFHO0qo7iy/HJ6xlGiXxxstQfSKlBjP0vavqkdoMsMx6rRxlvoZSLaoYsTbqo8do2nVIUd/xGZNGGRtpw6T8ouBjFVhMigeU08xyt4+ZVbVSHTZUy0T9PEGzAMWkoNxNbeX0baLkqFW0SFQoywO6a41pDHNdf716WBv9BBk29iRJIcKEDFGlYyM3SD271SdWf1ccUaJWO1ilRpbYneNsd1i+oXSxotdOMnxWtq56IctcWa0Gqu+GbBsREzLs2iNfTkiz1PdGbhypr9HOk0Q+ekSI27l8zWGwjC5TEqmWqqgQSl3NQhVjajQzCmYEo3JdFgwLAaliUq0emOrlKskabU5F2qukZNlzR2tm1bPGfjZaf6ulbi0TNboy7HTFz+qpl/eZgJdILBcEZzUDZAjViKCF3hjlsEdFoy6IROGiRRilSQSr8jPW5KVwt7KuynvHmaMTPhutkbGutDoTozkZeZeU7sxmhiuOOSsfKzYMgIbVRLwKeT6MoZW2WgwGA1qtVjRd+OJcvorpJSmi7cg5LWakoy1dFaTuVaFRguW5H+3ypwIZq5yT/u7UE5Cxv+MIGMGBC56Zfk7bFyaLmp41nAxEaiEegqEkBG3Rcx3i+onVTucYzeFaOa1UlVU3jH2w1npQfTg/Q1SBSESE3qAXz61Rx+7du2klKf2sz75H9rF7zx4efeRR9uyNf999x14+vu/j7N2zl3379vGe99wZjZjAvkf28e479uLU8dDDD3PXe+7ioYceJITAnr17ePjhj+FUV8XdqprWCvGqwk/8xE+QZRntdvssinkqWEdyncavIEp0JOBlwGxvmc/dcSebsj5BM9Baq5XKr0rUZywHMzJvHKPLy//Jmxhoa5UudPY41d55dkjqM4ayoXOfIyLc/+AD7N2zhyRNMYzde3dXPxSEPXv2xKxaVNI/vu+Rke8feOBBxCDPM+64404effTRmGjioj5Vx4TyisSQjiJR0k0LgoFoPKZFs2W2kbGVFcz6KFG/0uJI4iwfkA9yBKMlUcUYeCPpOBLzG0Cs84dKURr3larP8nq9Hvse2Qcw/LtvHyJSEcYskCYpt+++HQuxR959991keYYRK2337tvjvWE4iyxjcK2FMn6CS1yMkzUFl0scSaK0U0c3VQZLx8gXj5AvHWawsJ/sxH76x56jf+w5/OIh0nyZdr5C1/fp5H22poob9Ipj8aYXI1p4mqbVUJWkaRVtxqny7jvejVPHnr17EI0RaMphEMAHT5Znlc+PU8cjjzxCmqR0Wh0+9vDHCCGeG9hut4e2lXV2VIsoIXja7TaqjiRJcS65+K/E4ZyLFm9RpDuDzcxCdxbpzCGd2Xh1Z5HuHFnSIUu7LEubvuuy6B3amY9Sa2QmMV0YIVe/368Uc5/n3Hnne6rlCB88Dz/0cJRCwUjKyivg1LF3794Rh7Nbb3sXuc+rrf4PP/wxtIi/FaP1rV9rIXjy3FeRBcuZ6cV+Be/x3hM89CXlaGuWA+3NHG5t5WhnO8c62zne3c6x7nb2J5vZn2xhf/sKnu/u5ODsVexPd3JY5ulLQhmffhoh+/Z93OpD0yoFu5DM6jTGKs2y+N1JvFSDD8VwltDrrYycz6duyOlVulcNufe0WilZlpMkjuAv/oquGymVnLbPmMsy2j5D8agUBunSXqqKiWOQe8TiZMDh6GvKYrtLX9OxcEq1tE4i0U5thrxxSEZsGRNmbiWCD1XjlsRajxjls3yekybD4fa0MudcsaCqWLgQEZ1PH8MsKmIJXpWlNGUlsYmtHU2/Cq3aMxCCCJkVFu+1ErO1CXYx1FQCVKHTTzVD65HqssfQsgkoXpTgShKtVcOT7GsGpzAkno0H7EbjvIUKH4krf5mQc7hmd/I7V6P0UImvpxEXVRz6BuOYTlKVaIKlN9gwNJJrFdZaXzxdKXJ5DP3r4TIl13oEqpNotQvP6T3v8ibYpU+u9daj634zNk6g05VUdYKV0++zINclcPrG/wf6x+l7FFg/5wAAAABJRU5ErkJggg==;fontSize=30;" parent="1" vertex="1">
          <mxGeometry x="742" y="400" width="151" height="177" as="geometry" />
        </mxCell>
        <mxCell id="PsIKEqwVILS5Xcvsca47-22" value="&lt;font style=&quot;font-size: 30px;&quot;&gt;agent&lt;/font&gt;" style="rounded=1;whiteSpace=wrap;html=1;fillColor=#f8cecc;strokeColor=none;shadow=1;sketch=0;glass=0;fontSize=30;" parent="1" vertex="1">
          <mxGeometry x="1017" y="360" width="180" height="91.5" as="geometry" />
        </mxCell>
        <mxCell id="PsIKEqwVILS5Xcvsca47-30" style="edgeStyle=orthogonalEdgeStyle;rounded=1;jumpSize=14;orthogonalLoop=1;jettySize=auto;html=1;exitX=0.5;exitY=1;exitDx=0;exitDy=0;strokeColor=#A3A3A3;fontSize=30;" parent="1" source="PsIKEqwVILS5Xcvsca47-23" target="PsIKEqwVILS5Xcvsca47-22" edge="1">
          <mxGeometry relative="1" as="geometry" />
        </mxCell>
        <mxCell id="PsIKEqwVILS5Xcvsca47-23" value="teacher" style="rounded=1;whiteSpace=wrap;html=1;shadow=1;glass=0;sketch=0;fontSize=30;fillColor=#dae8fc;strokeColor=none;" parent="1" vertex="1">
          <mxGeometry x="1012" y="150" width="190" height="60" as="geometry" />
        </mxCell>
        <mxCell id="PsIKEqwVILS5Xcvsca47-24" value="n&lt;sub style=&quot;font-size: 30px;&quot;&gt;s&lt;/sub&gt; &amp;gt; c" style="text;html=1;align=center;verticalAlign=middle;resizable=0;points=[];autosize=1;strokeColor=none;fillColor=none;fontSize=30;" parent="1" vertex="1">
          <mxGeometry x="1302" y="280" width="100" height="60" as="geometry" />
        </mxCell>
        <mxCell id="PsIKEqwVILS5Xcvsca47-26" value="b &amp;gt; 0" style="text;html=1;align=center;verticalAlign=middle;resizable=0;points=[];autosize=1;strokeColor=none;fillColor=none;fontSize=30;" parent="1" vertex="1">
          <mxGeometry x="992" y="285" width="90" height="50" as="geometry" />
        </mxCell>
        <mxCell id="PsIKEqwVILS5Xcvsca47-29" style="edgeStyle=orthogonalEdgeStyle;rounded=1;jumpSize=14;orthogonalLoop=1;jettySize=auto;html=1;exitX=1;exitY=0.5;exitDx=0;exitDy=0;entryX=1;entryY=0.5;entryDx=0;entryDy=0;strokeColor=#A3A3A3;fontSize=30;" parent="1" source="PsIKEqwVILS5Xcvsca47-27" target="PsIKEqwVILS5Xcvsca47-23" edge="1">
          <mxGeometry relative="1" as="geometry">
            <Array as="points">
              <mxPoint x="1292" y="566" />
              <mxPoint x="1292" y="180" />
            </Array>
          </mxGeometry>
        </mxCell>
        <mxCell id="PsIKEqwVILS5Xcvsca47-27" value="&lt;font style=&quot;font-size: 30px;&quot;&gt;RND&lt;/font&gt;" style="rounded=1;whiteSpace=wrap;html=1;fillColor=#f8cecc;strokeColor=none;shadow=1;sketch=0;glass=0;fontSize=30;" parent="1" vertex="1">
          <mxGeometry x="1017" y="520" width="180" height="91.5" as="geometry" />
        </mxCell>
        <mxCell id="PsIKEqwVILS5Xcvsca47-31" value="" style="shape=image;verticalLabelPosition=bottom;labelBackgroundColor=default;verticalAlign=top;aspect=fixed;imageAspect=0;image=data:image/png,iVBORw0KGgoAAAANSUhEUgAAAJcAAACxCAYAAADJai9SAAAgAElEQVR4nO2dabBl11Xff2vtc+7whp7UgyzLtoQtLMuTEOABUoFAhVQllQAphxSBADHGgyxL6m5LFrJly/KgyVJbxrZkYjtJURAIRYWQSlVSJCm+pJiM8YAnbMBCY8/Dm+695+y98mGfc+659933enzdfbvPv+v0u8O5Z0//vfbaa6+9trzxDfuMBmtATvKdAIYQEHqILID0ATBaBJsHayMIwgD0BEIfMIw2FjbHv8XzZCRNi5+vl4WLHElm117oPEwplLTVJR/0cDbA6QHQ50AOkKQJy705Arsw20FiKSqHEZ5BkkOAYWEHZteQhx0EEQxBTSqKQUEvm96+nwQ2X+g8TCmE/sAhGE6XQI/xoY/cQrt7hKXlZTS5mjt+9bdwyQxhAKpH+fBHb0PdfsAIYRd33fk7iG4ihHlcMo/lHiySK/4ppNeUQm56/f+e5vxfOAikacpg8Pe0Wt/i/gd+AZ9/i3s/eDudziy37r6PtPu93PWej7J5Zob73r8blee59/27AeGDH3yULN/BPff8BoPsBmDXyMONimdTS7AECRc6D1MKYzAYoOLBMiws0Jk5SpC/JWeGzsxx1OWkSUYIT6PueVxYRMkBRWWFdnqIRPcTeCk+BJBIqEisQoJhFcmmDcn09osLCxVBUJTNaP+lfOA9n+H+j7+Kjz36NoIIfrDIXXsep203YNmXCZkn0TbiZwGH+i6IogZqSjAHYoARKoKVqU1nGyUXOgPTCrNAlg3opkAA8wEJRshzAooYzM3PcfTwgNnZNuoSCFn56+KS2gWTp4bCtJJLRwt4sV2ni41+/hAGpGmLwALS+ls+fP87ENvMR+/9be7/wH8Bv4Vf/cAv4Ob+nn5YJGhK0AxzS5g7QXDLBIWAI6hhanEIRBATxBQ1h5hDLIEpvJK1K3k6e8uIgrIuf86ufAJk2YBWCqZKFlokYQdZ70qwBPPbWeoFBrmjo1fh/S5EMrw4BE+gjQ+7yG0XnjYmpSQbWrzMQEQYfjNdkJve8Idr1HIpui9eSJG9kk9ioxJpfSPkycsn62rSBnhEeogcR/VJPnL/T+P0edQgD7u4657fJ/e7aLs2vZXv8tDHfhbnno/k8lfyvvf+N3y4BrN5LLRimsVMcViuaaRVxKVNrpNKrlMh13qS3RNn2wZyEE2+hdNDOIwQriALr8CH7ZCDuiNI8k3UHUYJmN+OD6/CbOfwkWE0P9M6SywxtQq9AUHja7FRCmx8o5QJOAwFDLMdWD6HJ0cIGA4fUpIkQVKH2XZCuIkQsoLTKcjMyNOmnUzjmFpywaQ5VrFKV+gpcelko1qsNnwB0AE2EwkXMMtQGRBCwELAB0ea7IzfG0BAyAC/Qfm78JhacglxRBpO1I1QDHVihUhD1/j12aK+qBwXrsEglB96pLBZmQkiQpooZoO4iF2JKD981iWI6SWXgdZ0LhNFArTbGT58FzMjhCsx5s552pMnCoYUZClXPeKQGfU2M6tkXTUbvGRpFbFRXfu8wIrlkiAKkqJ0sOwQneSPePD+H0XlwPBeO/1lrmopZuwaJZZgaLzE4kWkWkmlWM3lJdV9lzqmVnJZOR5KDtJHxePE4/gmD9z/TwnyBVSfJvidhc+UIzZ59YRTS+gkJBgSyGr2KFnj6UZdXl1i+vsqTC25AAKGhWVEnqXVOobjEHOz38DpMqpzJO67eLsKYxcWuiCuYEOoOeadzJY16VNZ83sbe16kWdTJ6sOgXPLUmvJhEYR2usRHP/STpO5/cf8Db+RDH/lHdLp/T5Ic4MMf+RVUn8fCUvULGxvSTndp6CSWsZFLRkg4vC59WkVMteQSA7FnmZ/5Pzz80HWY/jaSLGH0cG4zps+BPIfKi4uZXPXLU1pSWZtIZ6YvXQ7Sqo6pJVepCil9nOyn2zlKbh5vM2T5NowXEcIVBGaBBFWHWV3nOd8NfXkRC6aUXGYBROM6nHUx/wKWFq4nDzvxNofhyP1LuPue/0sIr8bYAmYoHswKI2tpJmiwUZhKcolEVTGu7m1h4L+Pe+95gjxcjbd5ALx9Bx9uwGwnJg6EaNDkctJ6LiymcuHaIBolxSEs4vRpTHKCbcXoRDsmaZRqpFhBRi2HxcLIKWO7bcZTOVsj5+VO4UTXNS5evOQCCD7HJXPAy/C5EegCaaGPeVRyCoMFMNTTAlGljwve66ntDbnOBkl7mhchVCF4EEhFMXKGC8GljXy10XKo0k9tyacCyWY31F+mEyPONqwuyST5cbnLlPODZFM+AKaZXA0uViS79NL1J2pwYZHsyBcvdB4aXKJIrnRHLnQeGlyiSDbLkxc6Dw0uUSTOvn2h89DgEkWSa0OuBhuDZO7K/ELnocElimSpvbzqQ5viaHYNLh4kh7tXjHxgZg25GpwTJEd3/dCqxRCRZnmkwdlDtl79xpGVa5W4iVO0IViDs0Oy7SX/6mS7pxo0OCMkz+0vN8MP0cisBucCic+XYgxOiUMiSCHJGoo1ODsk3STFa20/n5VboBpyNTg7JDt3XI2X+mbRhlgNzg2S/c88s4pc5e6aBg3OBgkhBx0q9CIaNy+INt6pDc4KiWcBz3C3u6IxNGcZ+4pmI0ODM0PygmtnMDdKn+GWq3pgxoZgDU4PgvvHkTV1i7yNhTuLAUbPf+4aTDWSmRe/roqgB8VccURyWWPBb3BGSMRmRz4oyRXRsKrBmSNZFULR4l5lqX3aUKzBmSBGuZnAniYSTIOzRWMtbbBhaMjVYMOgrBNCSUUKT4kGDU4fCuufy3WpHXbU4PwhsWCIi29EC0ll8QBZH8LY2UzFLLLZwNHgFKDC8OiSbqfLwtISrXaL61/5aqxupS8w6VWDBpMg3avvM1PBJQkWhtvKTMZ3AZVn2ICM6GnNuNlgMqrZoorQ6XToZwM6nQ7Xfs/LUNHCt2vMgbBR8hucArSUVKrKsRPHmZuZ5UUvuZZvfP1rjJ64VcZuL32iG4/VButDfQioKEmSsmlujsXlJQ4dPMBMp0uwUOhjjmjMF0Tia8FddseNNDg9RFOEKNu27yRNW3Q7bY4eOUTAE2xAsBwzBVpEkilCAqQ0kqvBetAQPHPzm9i560q8z+l2W6QtELdCLofJ5QhelvHSw+sypn2s8lttyNVgbWi7leKznL/+xte5/pWvZPuuK8g5QSb7Sef2c/dH/x15+jy5O4B3B/DuCEFXMHyNZA0arIbOdDfx4mtfyqtecyNZlvHia3bRmTtBOvMsN9/xz1jMv8L89sOE1pO42f38wtv+OV5OYNKvznJu0GASZMs1j5k5w8gRzXnl9+/kB36kzdYXLLD/2LeYnd9Cv7+NT+77LG+7+RY68gI++dH/TpLvRK2N2FSeTdXgPEC9F/LMM8gG+OD56lf+DNMj9PKn2bKthWeBwCF+6W0/xezmjMceei9In/Jo3QYN1oJ67/EhEMxYXDhBCIEnHv80Pk+wfCvk21hayNi29QpOHFvEdTcj1kJIkMZjp8E6UCMDAirCzOwcS0sZt73rPkL/Sh689zfZ1H4VV17xGh578D8y17qau+58AAkziLVYyx2sMa82AFCTHiYx6K6qY+v81Zw4uJ1H7/kDZOWVPPS+3+PIU9uwpWv4+Id/l4NPCRo2IdaO3hNjGF+NbHD5QtovfL+pa2NA4sC1Agsrh5iZadPrB/LlJbpbZ1g5fghUmdv0AnxvLpJrZK928cBTSLTR1C4PJCoJGKgKZoGQC91kG74f0ACd2U2EQaDVnUWAvO9QhEnEgnL7//oQGoJdDkhEFFFBpDj+sogEJwgqIKarhzqDScQqcSoEq2M9T9gG0ws1GT3LudyvGP0hpNh9Xdsse4otvt5tpxois9HZphtJdAi0Yp+ixAg3Barh6wxFyOn8bJxIjdSafjSGqgYbhotm7aaRVJceLrjkOlXdrMH04aKQXA2JLk1ccMnV4NJFQ64GG4aGXA02DA25GmwYGnI12DBcFLPFBiWk9nf6w7M35DofkLVpEh0B6jvYy8HEiJ4n00uwZO3l4WbZ+JygRqyhg0CIDprSAwwJbQSHiYElCB3EHNO+T0FlVbCRoZNyE3T3DFEc1GVjxDKBIJ6gGUGPkydP8o69P4l3h/B6FK/7CXoIyLgUOrdaPEZq4tXgzDBR1ohhMiDoIrkc4Mpr4Pa734TOPEUmT5K758j1Od5x278l0FvrKVOFZrZ4HmAoRiDIMsEd4M4P/gw/9fM3kCXfJJl/hnff+zPMbDnI7Xf+PDPzOUafade3oFHozwPGVA3p4/UArn0kSjHr4VrCW299ExKO859/83+AbsFCXvP6nU5U8bkabCQESBDrQmjz2KOP0Ol0SGSewYrw3HNPYnICdAHTRUxXMMliLI4p1k5UmiiB5wHxwBuxFLUZ3vKWvfQWujyx7/fYPPMKXvaS1/O5x3+HkHf52X/zZrLFlQud4XOCRufacBgQMELc9GIzJP5qHnvgD+gf/x7uf+/vc/jpqzjx/FXs+8h/xfkX0e5eVexq16keFmXmmgemOPsXKUZMEMSZYvHOZIWgx4AcrIvgiMp7DpIh1kLDFah1iQdQTG/zNAr9RqDYW1cSa/ghBXm2Fq8T4uAR94CaeMQUzGH4aVa3gIZcG4b6xt9R2ZOgFuPLVuEQpJBQ1SGq9V9NL8Uacm04BKm27jHy/2jwvHhf3JA8/Gya0ZDrvOBU415PN5nG0cwWG2wYGsm1gYjnKk36Zlyfmn79ahIacm0UDJByOLSRL4ZUspFv5bRDuFycKM/obMi1gVgdKqowR4xJqtH3kWDTRrFJh7425NoQFPIqDGeDVoQIWk22ujuzFLQqwlhN0dKcqhLCaFitRqE/TyhtqeMumTL2r37vxY7Xv/GHJ34uEjtGI7k2BJPZIWue6Tw9EmocZoaIVOd0BjMww6k25Dp/mF4CrYU//eP/V72ujlYUwRfDYzMsNjgrmAV+4PVvJBQSrCSWSHNKwXmArXGd7L6LG8NDYB0LJ04A4JIEHzxmgVa73ZDr/GAyccodQrn5uHVxSogFhWQSodVq8fyzzwDwspdfT+IScu85dORQo3NtLEY9HErlN0IQc5FOwRcKymp718WASTasYFYNhYsLUXIlLiHLM9IkJXGuIddGQWqSKh7nHGdQYPiQ0z94mB3Xvpa03eHAwSeZ6XRYWVkqfh0YJdj4MtH5RTBbRTCnSj8b0KbNq2+8iVarxRf+9I9pp63iDm2GxY2AjJFARXAqpEnK8uJxtmyexW3pcPjo39BfeYbULbGyfBDImUSg0bOULgzBfAjVBXFYnOnO4POcLM8QEW563Ru47vobmN+0ubFzbQRWO/tRbDEWfB6YnZ2jt3yYdus47ZkBh499lfnuNmCWYFsI1qnWGFc7HNbfnd8hs7RlmQVEHOocZoGbfvD1HD9+nC9+4U/p9/skLiFttWh3Og25NgqVU6CVw2PAOUd/sETijvOBD/4iu65e4kP33cNTf/s087OvYKXXihszin0ZZlKEWrh4sGnTFl50zTVs2bKFEydOsLC4wN/89TcJIaDqAMizjGwwaMh17lHIG9PCbRkgQ/AsLC7SaS+DPEN39jv08y9y9z2vo3/8Ot5/9+/hbHOc4lu529qBDBe37QIq+iqCN2Nh4QRf+8qX8CFw3ctfwaH9+wnFeZ0qUlnotbFznVtobSYYhzWHmIvnJ1kgLB+hlfawcJBu+xCbNx2g3XqSrZuWOXrwOzhbwVmOWkBtOCGIW9OseuqFglNldnaW3Hte94Yf4tD+/fRWloFh2bUwUUBjoT8pJu1Ir1dg/TOIw1j83qGkqJSn6sLOK7cRsqO0kwEtzegvncB5T76ywK6tsyRhGRdWSILhTIikyovzMIexIy4EvUQElzjMjBtv+gH+4s/+hOWlxVWeEHU0w+KakGLLhAcZUJ6oC4JJCoCRF/e1EWlh1cJ0JIKKQyTj6Ilnme0uIOEQW644zsrykywvP8W2OYflfforTzE39xyDpEO/f5jcd8FmcNIm0AbawAwwD7QvyHwxyzPIYTDI+PpXv0LiTk6dZlPsBKgIZoJKm36+yJZtRm9wkEG+GDex2iyCkLZyujObOXYIWm4LZg4sEKyPmKLWRuQEL3ppn7e/80cY5H/J1S8MWHaUQe9Zup0T+HwZCW3UZslWOsx1r6TXS3n/vfvo5Zt54KH/wOLyPO++8xPk/hqMrSNxv04Na9nJzs5+VulYa6CRXBMQLOo3wTKQPsu9IywuPUl7roj6EOYxlOPLxzHdgclWkDkwx1Ar8sCAYAus9A+y3PsbZuefJdgyaiukuoAfLKCyTJIcQ8xYGhyjteXFGAnve++P4+2F3HXHT+Ja12F+B8JVU7I4FNGQaw0EyxBdQdwC77tvL0EOMDOfoRogdAkhpd/PcGzmnjsfI9gymItKvAgqHgtLiCyxZfMcV+26iv7Kk7zn1scYnIBff+Kn0GSZbHCIMMhptzpsms1ROU4rbbFj+yzPPHecjz18H8eXtnPb7s8ibm39Zn2sRcmzo+p6Ugsacq0BQxREAqpw1217kZk+aasfN7JaG6GNz5V8JWVu9iVY7kZsnKE0HIQEP+iQ9TaT2NU8+uB9SLZA3j+M5gOc65A4CB5mZlKCJQxy8GGGTVuvIdgW+oMZct8hPQU952JCo3OtQrnInCNqqHoGfom4NAPgwFoIaSGpUlrJLCFE/UMsDoeCoeaAHt4fwIen2brlCHtv/9dc8+LNpG6JEI5joYcPOUIAyTGEQEqweRYX57j3g59jpbeLdvdlLC3PE5g7A53rwqAh1yqU5ArRfimGD77YZp8ASfHXFbEeBKcOM49JjooH86gIEhwicGLxIC9/2Qs4fPjr9FaeopUuEfwimI+kwjDLQXy0aokjhJQtW6/i/R/4BFm+k5vfcRebtryQQDI1jjkNuSbCavat6NUApao+GoYSGFmiid9Y1foqCa1kNlrdbQXnBsASvd4CSkoIQAhYkYYhqEtBPWgPwyGyFWQGVAkWbW/T0GjTNYifN8jYu9KBJlrLI2pOf1b+RtEi7LqoIBLvX+ot01vps2luM8t9odPu4tIrCF7jc8WKHT+CGYhLUedx7R553gfr4pI2uR+A+akgFjTkWhP1HS0iOvR2WNM8Xi5SR1U+rt4Y4NHEMTOv5CwgqTEofLt6PkMQVLV6tCEM6EEISM8Xi8FGnvXj0LuhpT63uKiWf0LwvObGmwjBF451FxrjTXkSH3gprvIeMZAQg+fKoLgyTAIeH00LzhMkI0iGl4wgg/gej6EE0+p500QsuIgk1/gaXn238ah78HnLEaP+U7aO1BrDSXa1mgXMQHXSAwvHekpdzgp70rRR6yIiF8TK/MqXvoiqI/e+9vmF9CWvSaFTvv8sk5v44cXhT386uBjGnhGplfscp8prbryp8Hw0QvATvRM2GuW29Kic62lflzvOj+Qa73RjPCklkxVOZi5JUFVarZTllRXSJD0v2Vwbq+PVnBLW3L5/eeAMu9eonWe920prcqB2wJvUbhif9ovS7/f5wp//CQCv/b7vP7MsnjMUBaiOITuNa0LYkVO7Lg0kscmVMizsyTH0hRy63Q7jBJh4gg2K71NMAiY9YpD/BLEEtTS6rlBUp+jQUFk44okIWZbT7c6cy/KeJs6FW/HpSrzxtKaXbIrkRG9nN8GFdjzATxXkh1GHW0M0XkafoEfx7ihBe+SyyK5rlJvv/Je05o7h9ThBBiBWkCgKz8r4WNiIvvf6V/La7/tB/urLX8JpEVr7vGLUZflMLpEz0dWkprPJWF6mC8WwOGmqO0qkcbEtUnutoBL3EqgzAivc9u5foT27iHdP89TBP0Jmv8O/+LnX4Ft/R3AHMV3GxFdpgVQEa3e6OJcQQuC6l9/ADa9+7QWq3rMd2s4k15NIPZ1QLMFKX+1qaaNOrElYv9AGmC5z850/DfpF3nnXj5O3/4Lujq9x2/t+jN3vexOSHiFYr3rO7Nw8S8uLzMzOcv0Nr0JU+MZffYVvfu2rfO0rXzpX5T2POFPJV//tdEOj8BqVXOsTK6JuGrBg+BDIvSf3HlHl0X33gzvEO9/7iwzsOQ4f/zbz23J6+fP0s4O4ZAASEFHMjBe+6MX8g3/447zqNTei6vi773y7Mp5OU/jGUVz2Cr1VyvW5XGAQAiID2m3HwomcmfZOsuU5Unbwucf/E4sLW+mqREVfhG9/8+u02m1eet3L+eqX/7LaXbPe7pIGFzdUhEKBjP7fUHk0rXFF1G1TokLiHK00pZ2mBO/ZvftX6S3M8IkHfofvuerHYPlafv3j/5PZ9Hu59V33keh8sTtGKuX1hle/lq9/9cs41QnS6tLq1ZcD1FtWBJioH5lucRNmoaRPuqh9H9e/PCHEK1FB/SZ+6zNfID94I0vPvpbPfeiP0cUbefCe3+XgsynKZoIJZjGQxQ++4Yf5yz//M4oNuzU3ltrsq/k3Xf+6137AIB4caWOHdk+KyzQuPaxmHhUVgvUwPQ448NuAlCDLiOQgcZu74CDE3chmCig+2CpPiNXSa/oWby9nJOYywBeKdaC+UL92U8rYHYUbnVmhpM/Ee1wOBKRmIEUMCz6aLEJeWbLTVPF+qF/JSfbENbj4kbj2YvVGCvfZSpk+zcYtKTeUeP34vngXzI/cJ0ZlRC3jOZ3NzHB6Z5WXJhJrP1+9GZdHZ9pUa1FS6q4rFsfl4Zf1ycQazz1dsp8l2S6EJ8alhES7B4qXp1+Ra1V+vVFHG7jwqLRyve70Gv98y6VGDp4dEmk9z1quuyfruSer/MkKef3M1NNrvkaSTBcSzwGGO1pGIRPdcE8dozrbuK3s9C3SYY18rgU9S4e90lPjXD3vdNMbx7Sln4guRCv4hDYelxOTTRMTflDcVt5e+oDHqCihimUVquFx+Pz1JhGnq0KdrZwbT2+j5eapVu9pPXPsR+v5L57r9BNCFr25QqFg1/chWMxdac80fJU5Kw2oJZGseG+rM1FNFIp7rLipPmsEkCAkJiO/qQol0aZWVY6cRWMLIz8u7MBFBMDxxeNCTxRAQi0vxbe18p9xdsrymxTpS5Wn8vADEyuO1WOkDerdc2IepPhchvW4Ot2yDmL6Mla5a+XBJjyrjkStDQE0OMQrqaZY7hkGijVQIWggqCeojw6AGlb1AitdTccaXsr/pCBYKV3LxweNBtUBpJqixEZWkcoJNGggkMc84DENiEKI2RumP5JoLZ3xyi0JVpIqJNhASLQ9lr4V5fXkZFX5kUDQkzduqJNYh++FIt8j5RdSaaEVyWP6se5zgsujM6YGgkAoGliKtEuSjAwg5WfRfj1CyPI3ZfrOu8gDU1LXJuS+IlRQH7e+qSeoFR09drqSvDo2qibtbA7LDRcc73zrLVhmQyaHABoLEdTzxOcejw+X2MjSgiAeM18UoOjl440LkcDFGqJ6AVMsAwmKkiBeueVtt2KZkYgj5L6KXhcKcj3+2U/HtCWSnMQwDVVH8MFHEolVZ0tbrdLrjS+mKGmM52AOyZVb3nYbllE1rpSi2BlePE989tMEzbGio2XkkWjFCoWWHYi6RCtimYoiProISNHttYyXWnTsW952GwwMNUEseoug4CWm98TnP110rpzgPD4JBA0IhtTUCSk7Uk28CoL6YbtIUCQTWq5DyAwXlJvfcguJJThcrPSCqp6AV8/jn/1UQbJY/6FIv5yklXkopZs88OkHjGBFJLzo9WwBnLpi13EgYAQJmHh8UaFec/7gD38fX/Umz1PPfhfTvGJ0yeq4N9SRSAsJDofD+ZS3/NxbSWmRuhQ/CCSSQhB8Fmilw00ZsbFi+jEfsbCf+Y3P4F2OJwYBGVgPU48VPQuJZdEgSEjQEEkspjif8I43v5OUlMSl5INAKgmEcmWs5gkqUXoFKaR2kf4nP/treOcx8bHczmMa80hZBwHUBLUkSoWQ4EKC+oS3/tLbSaVFqi3CwJOU6Vc8KVzPpah/ZwSJ677eZXzq85/Au6ySrEHL9IeySwqixrRLMisupLzrl29FMiURFyW1F1KX0lvp02q1sWBFZymHxFDUv5Frzqc+/2tF+4eiw5VcKKwC+/Y9Gru5xQp1roXP43JQXCss2Ihh5JWV3ZwnSwZFhULQnE/9+0/gNa8aoIRaLNjb33wzGhxqsXCzOkvoG+YDnc4MK8t9EpcSvNFut8mzvGrfag2z0Hu8egaaxd4jHq+eJz73yUKyBsqdz5HcUdy//c3vLNKPQ8CsmyX046kQ3U6XleUVEpeMuBnHRfRy/PSFXDa8ejIdjKT/+Gc/WTVweexw5GZM/+ZfuQX1CYm1SCxFvYNcILeR9KP0ieNdqKkndX0vaM7ArZBrhqkV5f80QQuVpSJXJJMGx9t/+R24ov7TkJLmbVxQBAg+4Io48oX4ZwQy5AFl/bseXnOCFOl//vGh2iSGPLbvUbNgReQUqSpVRGPPq0V7sSI00Kg0CVWi9QcPZU45BAyHgbJHaaXAVoJ1KC0YP+TEquG3cvcRK/SOeq8qFb9Rm1pMTwulXYv8aFWJdTKMmElsODyYFUOQyEgvtlKylO+Lnj5cjSiGYXNRv8HVlPcyPWrpT0aldBP94Ib1DUECXkMh2cqb65Irllertoiki+pMKNZyQ838tHrqWAZLKfW6YZmpCBYqpd9IqsqtP8GYEPTCKsU5ziggBj9LigawQmIM7x/9eZSMo0fxWo2I47Cx8lmUKEY1m1GLOowV+S6lSqnJyohZoz4bHpJ4vIzrva7CgROHeRWtqTW1WWVZtnoZyolDQVipflPP/5o1USNWqUNq1F0ZKulB6ukXZS7KW5JZKIfdmmQtD1LQ0bZZjZJW8VnOHOCq9JOCWGVJkiBRuS6yVxWgfH45Da3LEVuVVHnfONuHca7KqDGhIEkptssxPb4z6lyrz3yqJ5baqsShsiZHV03XVs1mjaEppP7sclq1ygwy+swqSpdJYRMa3ik21DFLyb3mk3AAAAXbSURBVFHO0qo7iy/HJ6xlGiXxxstQfSKlBjP0vavqkdoMsMx6rRxlvoZSLaoYsTbqo8do2nVIUd/xGZNGGRtpw6T8ouBjFVhMigeU08xyt4+ZVbVSHTZUy0T9PEGzAMWkoNxNbeX0baLkqFW0SFQoywO6a41pDHNdf716WBv9BBk29iRJIcKEDFGlYyM3SD271SdWf1ccUaJWO1ilRpbYneNsd1i+oXSxotdOMnxWtq56IctcWa0Gqu+GbBsREzLs2iNfTkiz1PdGbhypr9HOk0Q+ekSI27l8zWGwjC5TEqmWqqgQSl3NQhVjajQzCmYEo3JdFgwLAaliUq0emOrlKskabU5F2qukZNlzR2tm1bPGfjZaf6ulbi0TNboy7HTFz+qpl/eZgJdILBcEZzUDZAjViKCF3hjlsEdFoy6IROGiRRilSQSr8jPW5KVwt7KuynvHmaMTPhutkbGutDoTozkZeZeU7sxmhiuOOSsfKzYMgIbVRLwKeT6MoZW2WgwGA1qtVjRd+OJcvorpJSmi7cg5LWakoy1dFaTuVaFRguW5H+3ypwIZq5yT/u7UE5Cxv+MIGMGBC56Zfk7bFyaLmp41nAxEaiEegqEkBG3Rcx3i+onVTucYzeFaOa1UlVU3jH2w1npQfTg/Q1SBSESE3qAXz61Rx+7du2klKf2sz75H9rF7zx4efeRR9uyNf999x14+vu/j7N2zl3379vGe99wZjZjAvkf28e479uLU8dDDD3PXe+7ioYceJITAnr17ePjhj+FUV8XdqprWCvGqwk/8xE+QZRntdvssinkqWEdyncavIEp0JOBlwGxvmc/dcSebsj5BM9Baq5XKr0rUZywHMzJvHKPLy//Jmxhoa5UudPY41d55dkjqM4ayoXOfIyLc/+AD7N2zhyRNMYzde3dXPxSEPXv2xKxaVNI/vu+Rke8feOBBxCDPM+64404effTRmGjioj5Vx4TyisSQjiJR0k0LgoFoPKZFs2W2kbGVFcz6KFG/0uJI4iwfkA9yBKMlUcUYeCPpOBLzG0Cs84dKURr3larP8nq9Hvse2Qcw/LtvHyJSEcYskCYpt+++HQuxR959991keYYRK2337tvjvWE4iyxjcK2FMn6CS1yMkzUFl0scSaK0U0c3VQZLx8gXj5AvHWawsJ/sxH76x56jf+w5/OIh0nyZdr5C1/fp5H22poob9Ipj8aYXI1p4mqbVUJWkaRVtxqny7jvejVPHnr17EI0RaMphEMAHT5Znlc+PU8cjjzxCmqR0Wh0+9vDHCCGeG9hut4e2lXV2VIsoIXja7TaqjiRJcS65+K/E4ZyLFm9RpDuDzcxCdxbpzCGd2Xh1Z5HuHFnSIUu7LEubvuuy6B3amY9Sa2QmMV0YIVe/368Uc5/n3Hnne6rlCB88Dz/0cJRCwUjKyivg1LF3794Rh7Nbb3sXuc+rrf4PP/wxtIi/FaP1rV9rIXjy3FeRBcuZ6cV+Be/x3hM89CXlaGuWA+3NHG5t5WhnO8c62zne3c6x7nb2J5vZn2xhf/sKnu/u5ODsVexPd3JY5ulLQhmffhoh+/Z93OpD0yoFu5DM6jTGKs2y+N1JvFSDD8VwltDrrYycz6duyOlVulcNufe0WilZlpMkjuAv/oquGymVnLbPmMsy2j5D8agUBunSXqqKiWOQe8TiZMDh6GvKYrtLX9OxcEq1tE4i0U5thrxxSEZsGRNmbiWCD1XjlsRajxjls3yekybD4fa0MudcsaCqWLgQEZ1PH8MsKmIJXpWlNGUlsYmtHU2/Cq3aMxCCCJkVFu+1ErO1CXYx1FQCVKHTTzVD65HqssfQsgkoXpTgShKtVcOT7GsGpzAkno0H7EbjvIUKH4krf5mQc7hmd/I7V6P0UImvpxEXVRz6BuOYTlKVaIKlN9gwNJJrFdZaXzxdKXJ5DP3r4TIl13oEqpNotQvP6T3v8ibYpU+u9daj634zNk6g05VUdYKV0++zINclcPrG/wf6x+l7FFg/5wAAAABJRU5ErkJggg==;fontSize=30;" parent="1" vertex="1">
          <mxGeometry x="1510" y="370" width="151" height="177" as="geometry" />
        </mxCell>
        <mxCell id="PsIKEqwVILS5Xcvsca47-32" value="" style="shape=image;verticalLabelPosition=bottom;labelBackgroundColor=default;verticalAlign=top;aspect=fixed;imageAspect=0;image=data:image/png,iVBORw0KGgoAAAANSUhEUgAAAJcAAACxCAYAAADJai9SAAAgAElEQVR4nO2dabBl11Xff2vtc+7whp7UgyzLtoQtLMuTEOABUoFAhVQllQAphxSBADHGgyxL6m5LFrJly/KgyVJbxrZkYjtJURAIRYWQSlVSJCm+pJiM8YAnbMBCY8/Dm+695+y98mGfc+659933enzdfbvPv+v0u8O5Z0//vfbaa6+9trzxDfuMBmtATvKdAIYQEHqILID0ATBaBJsHayMIwgD0BEIfMIw2FjbHv8XzZCRNi5+vl4WLHElm117oPEwplLTVJR/0cDbA6QHQ50AOkKQJy705Arsw20FiKSqHEZ5BkkOAYWEHZteQhx0EEQxBTSqKQUEvm96+nwQ2X+g8TCmE/sAhGE6XQI/xoY/cQrt7hKXlZTS5mjt+9bdwyQxhAKpH+fBHb0PdfsAIYRd33fk7iG4ihHlcMo/lHiySK/4ppNeUQm56/f+e5vxfOAikacpg8Pe0Wt/i/gd+AZ9/i3s/eDudziy37r6PtPu93PWej7J5Zob73r8blee59/27AeGDH3yULN/BPff8BoPsBmDXyMONimdTS7AECRc6D1MKYzAYoOLBMiws0Jk5SpC/JWeGzsxx1OWkSUYIT6PueVxYRMkBRWWFdnqIRPcTeCk+BJBIqEisQoJhFcmmDcn09osLCxVBUJTNaP+lfOA9n+H+j7+Kjz36NoIIfrDIXXsep203YNmXCZkn0TbiZwGH+i6IogZqSjAHYoARKoKVqU1nGyUXOgPTCrNAlg3opkAA8wEJRshzAooYzM3PcfTwgNnZNuoSCFn56+KS2gWTp4bCtJJLRwt4sV2ni41+/hAGpGmLwALS+ls+fP87ENvMR+/9be7/wH8Bv4Vf/cAv4Ob+nn5YJGhK0AxzS5g7QXDLBIWAI6hhanEIRBATxBQ1h5hDLIEpvJK1K3k6e8uIgrIuf86ufAJk2YBWCqZKFlokYQdZ70qwBPPbWeoFBrmjo1fh/S5EMrw4BE+gjQ+7yG0XnjYmpSQbWrzMQEQYfjNdkJve8Idr1HIpui9eSJG9kk9ioxJpfSPkycsn62rSBnhEeogcR/VJPnL/T+P0edQgD7u4657fJ/e7aLs2vZXv8tDHfhbnno/k8lfyvvf+N3y4BrN5LLRimsVMcViuaaRVxKVNrpNKrlMh13qS3RNn2wZyEE2+hdNDOIwQriALr8CH7ZCDuiNI8k3UHUYJmN+OD6/CbOfwkWE0P9M6SywxtQq9AUHja7FRCmx8o5QJOAwFDLMdWD6HJ0cIGA4fUpIkQVKH2XZCuIkQsoLTKcjMyNOmnUzjmFpywaQ5VrFKV+gpcelko1qsNnwB0AE2EwkXMMtQGRBCwELAB0ea7IzfG0BAyAC/Qfm78JhacglxRBpO1I1QDHVihUhD1/j12aK+qBwXrsEglB96pLBZmQkiQpooZoO4iF2JKD981iWI6SWXgdZ0LhNFArTbGT58FzMjhCsx5s552pMnCoYUZClXPeKQGfU2M6tkXTUbvGRpFbFRXfu8wIrlkiAKkqJ0sOwQneSPePD+H0XlwPBeO/1lrmopZuwaJZZgaLzE4kWkWkmlWM3lJdV9lzqmVnJZOR5KDtJHxePE4/gmD9z/TwnyBVSfJvidhc+UIzZ59YRTS+gkJBgSyGr2KFnj6UZdXl1i+vsqTC25AAKGhWVEnqXVOobjEHOz38DpMqpzJO67eLsKYxcWuiCuYEOoOeadzJY16VNZ83sbe16kWdTJ6sOgXPLUmvJhEYR2usRHP/STpO5/cf8Db+RDH/lHdLp/T5Ic4MMf+RVUn8fCUvULGxvSTndp6CSWsZFLRkg4vC59WkVMteQSA7FnmZ/5Pzz80HWY/jaSLGH0cG4zps+BPIfKi4uZXPXLU1pSWZtIZ6YvXQ7Sqo6pJVepCil9nOyn2zlKbh5vM2T5NowXEcIVBGaBBFWHWV3nOd8NfXkRC6aUXGYBROM6nHUx/wKWFq4nDzvxNofhyP1LuPue/0sIr8bYAmYoHswKI2tpJmiwUZhKcolEVTGu7m1h4L+Pe+95gjxcjbd5ALx9Bx9uwGwnJg6EaNDkctJ6LiymcuHaIBolxSEs4vRpTHKCbcXoRDsmaZRqpFhBRi2HxcLIKWO7bcZTOVsj5+VO4UTXNS5evOQCCD7HJXPAy/C5EegCaaGPeVRyCoMFMNTTAlGljwve66ntDbnOBkl7mhchVCF4EEhFMXKGC8GljXy10XKo0k9tyacCyWY31F+mEyPONqwuyST5cbnLlPODZFM+AKaZXA0uViS79NL1J2pwYZHsyBcvdB4aXKJIrnRHLnQeGlyiSDbLkxc6Dw0uUSTOvn2h89DgEkWSa0OuBhuDZO7K/ELnocElimSpvbzqQ5viaHYNLh4kh7tXjHxgZg25GpwTJEd3/dCqxRCRZnmkwdlDtl79xpGVa5W4iVO0IViDs0Oy7SX/6mS7pxo0OCMkz+0vN8MP0cisBucCic+XYgxOiUMiSCHJGoo1ODsk3STFa20/n5VboBpyNTg7JDt3XI2X+mbRhlgNzg2S/c88s4pc5e6aBg3OBgkhBx0q9CIaNy+INt6pDc4KiWcBz3C3u6IxNGcZ+4pmI0ODM0PygmtnMDdKn+GWq3pgxoZgDU4PgvvHkTV1i7yNhTuLAUbPf+4aTDWSmRe/roqgB8VccURyWWPBb3BGSMRmRz4oyRXRsKrBmSNZFULR4l5lqX3aUKzBmSBGuZnAniYSTIOzRWMtbbBhaMjVYMOgrBNCSUUKT4kGDU4fCuufy3WpHXbU4PwhsWCIi29EC0ll8QBZH8LY2UzFLLLZwNHgFKDC8OiSbqfLwtISrXaL61/5aqxupS8w6VWDBpMg3avvM1PBJQkWhtvKTMZ3AZVn2ICM6GnNuNlgMqrZoorQ6XToZwM6nQ7Xfs/LUNHCt2vMgbBR8hucArSUVKrKsRPHmZuZ5UUvuZZvfP1rjJ64VcZuL32iG4/VButDfQioKEmSsmlujsXlJQ4dPMBMp0uwUOhjjmjMF0Tia8FddseNNDg9RFOEKNu27yRNW3Q7bY4eOUTAE2xAsBwzBVpEkilCAqQ0kqvBetAQPHPzm9i560q8z+l2W6QtELdCLofJ5QhelvHSw+sypn2s8lttyNVgbWi7leKznL/+xte5/pWvZPuuK8g5QSb7Sef2c/dH/x15+jy5O4B3B/DuCEFXMHyNZA0arIbOdDfx4mtfyqtecyNZlvHia3bRmTtBOvMsN9/xz1jMv8L89sOE1pO42f38wtv+OV5OYNKvznJu0GASZMs1j5k5w8gRzXnl9+/kB36kzdYXLLD/2LeYnd9Cv7+NT+77LG+7+RY68gI++dH/TpLvRK2N2FSeTdXgPEC9F/LMM8gG+OD56lf+DNMj9PKn2bKthWeBwCF+6W0/xezmjMceei9In/Jo3QYN1oJ67/EhEMxYXDhBCIEnHv80Pk+wfCvk21hayNi29QpOHFvEdTcj1kJIkMZjp8E6UCMDAirCzOwcS0sZt73rPkL/Sh689zfZ1H4VV17xGh578D8y17qau+58AAkziLVYyx2sMa82AFCTHiYx6K6qY+v81Zw4uJ1H7/kDZOWVPPS+3+PIU9uwpWv4+Id/l4NPCRo2IdaO3hNjGF+NbHD5QtovfL+pa2NA4sC1Agsrh5iZadPrB/LlJbpbZ1g5fghUmdv0AnxvLpJrZK928cBTSLTR1C4PJCoJGKgKZoGQC91kG74f0ACd2U2EQaDVnUWAvO9QhEnEgnL7//oQGoJdDkhEFFFBpDj+sogEJwgqIKarhzqDScQqcSoEq2M9T9gG0ws1GT3LudyvGP0hpNh9Xdsse4otvt5tpxois9HZphtJdAi0Yp+ixAg3Barh6wxFyOn8bJxIjdSafjSGqgYbhotm7aaRVJceLrjkOlXdrMH04aKQXA2JLk1ccMnV4NJFQ64GG4aGXA02DA25GmwYGnI12DBcFLPFBiWk9nf6w7M35DofkLVpEh0B6jvYy8HEiJ4n00uwZO3l4WbZ+JygRqyhg0CIDprSAwwJbQSHiYElCB3EHNO+T0FlVbCRoZNyE3T3DFEc1GVjxDKBIJ6gGUGPkydP8o69P4l3h/B6FK/7CXoIyLgUOrdaPEZq4tXgzDBR1ohhMiDoIrkc4Mpr4Pa734TOPEUmT5K758j1Od5x278l0FvrKVOFZrZ4HmAoRiDIMsEd4M4P/gw/9fM3kCXfJJl/hnff+zPMbDnI7Xf+PDPzOUafade3oFHozwPGVA3p4/UArn0kSjHr4VrCW299ExKO859/83+AbsFCXvP6nU5U8bkabCQESBDrQmjz2KOP0Ol0SGSewYrw3HNPYnICdAHTRUxXMMliLI4p1k5UmiiB5wHxwBuxFLUZ3vKWvfQWujyx7/fYPPMKXvaS1/O5x3+HkHf52X/zZrLFlQud4XOCRufacBgQMELc9GIzJP5qHnvgD+gf/x7uf+/vc/jpqzjx/FXs+8h/xfkX0e5eVexq16keFmXmmgemOPsXKUZMEMSZYvHOZIWgx4AcrIvgiMp7DpIh1kLDFah1iQdQTG/zNAr9RqDYW1cSa/ghBXm2Fq8T4uAR94CaeMQUzGH4aVa3gIZcG4b6xt9R2ZOgFuPLVuEQpJBQ1SGq9V9NL8Uacm04BKm27jHy/2jwvHhf3JA8/Gya0ZDrvOBU415PN5nG0cwWG2wYGsm1gYjnKk36Zlyfmn79ahIacm0UDJByOLSRL4ZUspFv5bRDuFycKM/obMi1gVgdKqowR4xJqtH3kWDTRrFJh7425NoQFPIqDGeDVoQIWk22ujuzFLQqwlhN0dKcqhLCaFitRqE/TyhtqeMumTL2r37vxY7Xv/GHJ34uEjtGI7k2BJPZIWue6Tw9EmocZoaIVOd0BjMww6k25Dp/mF4CrYU//eP/V72ujlYUwRfDYzMsNjgrmAV+4PVvJBQSrCSWSHNKwXmArXGd7L6LG8NDYB0LJ04A4JIEHzxmgVa73ZDr/GAyccodQrn5uHVxSogFhWQSodVq8fyzzwDwspdfT+IScu85dORQo3NtLEY9HErlN0IQc5FOwRcKymp718WASTasYFYNhYsLUXIlLiHLM9IkJXGuIddGQWqSKh7nHGdQYPiQ0z94mB3Xvpa03eHAwSeZ6XRYWVkqfh0YJdj4MtH5RTBbRTCnSj8b0KbNq2+8iVarxRf+9I9pp63iDm2GxY2AjJFARXAqpEnK8uJxtmyexW3pcPjo39BfeYbULbGyfBDImUSg0bOULgzBfAjVBXFYnOnO4POcLM8QEW563Ru47vobmN+0ubFzbQRWO/tRbDEWfB6YnZ2jt3yYdus47ZkBh499lfnuNmCWYFsI1qnWGFc7HNbfnd8hs7RlmQVEHOocZoGbfvD1HD9+nC9+4U/p9/skLiFttWh3Og25NgqVU6CVw2PAOUd/sETijvOBD/4iu65e4kP33cNTf/s087OvYKXXihszin0ZZlKEWrh4sGnTFl50zTVs2bKFEydOsLC4wN/89TcJIaDqAMizjGwwaMh17lHIG9PCbRkgQ/AsLC7SaS+DPEN39jv08y9y9z2vo3/8Ot5/9+/hbHOc4lu529qBDBe37QIq+iqCN2Nh4QRf+8qX8CFw3ctfwaH9+wnFeZ0qUlnotbFznVtobSYYhzWHmIvnJ1kgLB+hlfawcJBu+xCbNx2g3XqSrZuWOXrwOzhbwVmOWkBtOCGIW9OseuqFglNldnaW3Hte94Yf4tD+/fRWloFh2bUwUUBjoT8pJu1Ir1dg/TOIw1j83qGkqJSn6sLOK7cRsqO0kwEtzegvncB5T76ywK6tsyRhGRdWSILhTIikyovzMIexIy4EvUQElzjMjBtv+gH+4s/+hOWlxVWeEHU0w+KakGLLhAcZUJ6oC4JJCoCRF/e1EWlh1cJ0JIKKQyTj6Ilnme0uIOEQW644zsrykywvP8W2OYflfforTzE39xyDpEO/f5jcd8FmcNIm0AbawAwwD7QvyHwxyzPIYTDI+PpXv0LiTk6dZlPsBKgIZoJKm36+yJZtRm9wkEG+GDex2iyCkLZyujObOXYIWm4LZg4sEKyPmKLWRuQEL3ppn7e/80cY5H/J1S8MWHaUQe9Zup0T+HwZCW3UZslWOsx1r6TXS3n/vfvo5Zt54KH/wOLyPO++8xPk/hqMrSNxv04Na9nJzs5+VulYa6CRXBMQLOo3wTKQPsu9IywuPUl7roj6EOYxlOPLxzHdgclWkDkwx1Ar8sCAYAus9A+y3PsbZuefJdgyaiukuoAfLKCyTJIcQ8xYGhyjteXFGAnve++P4+2F3HXHT+Ja12F+B8JVU7I4FNGQaw0EyxBdQdwC77tvL0EOMDOfoRogdAkhpd/PcGzmnjsfI9gymItKvAgqHgtLiCyxZfMcV+26iv7Kk7zn1scYnIBff+Kn0GSZbHCIMMhptzpsms1ROU4rbbFj+yzPPHecjz18H8eXtnPb7s8ibm39Zn2sRcmzo+p6Ugsacq0BQxREAqpw1217kZk+aasfN7JaG6GNz5V8JWVu9iVY7kZsnKE0HIQEP+iQ9TaT2NU8+uB9SLZA3j+M5gOc65A4CB5mZlKCJQxy8GGGTVuvIdgW+oMZct8hPQU952JCo3OtQrnInCNqqHoGfom4NAPgwFoIaSGpUlrJLCFE/UMsDoeCoeaAHt4fwIen2brlCHtv/9dc8+LNpG6JEI5joYcPOUIAyTGEQEqweRYX57j3g59jpbeLdvdlLC3PE5g7A53rwqAh1yqU5ArRfimGD77YZp8ASfHXFbEeBKcOM49JjooH86gIEhwicGLxIC9/2Qs4fPjr9FaeopUuEfwimI+kwjDLQXy0aokjhJQtW6/i/R/4BFm+k5vfcRebtryQQDI1jjkNuSbCavat6NUApao+GoYSGFmiid9Y1foqCa1kNlrdbQXnBsASvd4CSkoIQAhYkYYhqEtBPWgPwyGyFWQGVAkWbW/T0GjTNYifN8jYu9KBJlrLI2pOf1b+RtEi7LqoIBLvX+ot01vps2luM8t9odPu4tIrCF7jc8WKHT+CGYhLUedx7R553gfr4pI2uR+A+akgFjTkWhP1HS0iOvR2WNM8Xi5SR1U+rt4Y4NHEMTOv5CwgqTEofLt6PkMQVLV6tCEM6EEISM8Xi8FGnvXj0LuhpT63uKiWf0LwvObGmwjBF451FxrjTXkSH3gprvIeMZAQg+fKoLgyTAIeH00LzhMkI0iGl4wgg/gej6EE0+p500QsuIgk1/gaXn238ah78HnLEaP+U7aO1BrDSXa1mgXMQHXSAwvHekpdzgp70rRR6yIiF8TK/MqXvoiqI/e+9vmF9CWvSaFTvv8sk5v44cXhT386uBjGnhGplfscp8prbryp8Hw0QvATvRM2GuW29Kic62lflzvOj+Qa73RjPCklkxVOZi5JUFVarZTllRXSJD0v2Vwbq+PVnBLW3L5/eeAMu9eonWe920prcqB2wJvUbhif9ovS7/f5wp//CQCv/b7vP7MsnjMUBaiOITuNa0LYkVO7Lg0kscmVMizsyTH0hRy63Q7jBJh4gg2K71NMAiY9YpD/BLEEtTS6rlBUp+jQUFk44okIWZbT7c6cy/KeJs6FW/HpSrzxtKaXbIrkRG9nN8GFdjzATxXkh1GHW0M0XkafoEfx7ihBe+SyyK5rlJvv/Je05o7h9ThBBiBWkCgKz8r4WNiIvvf6V/La7/tB/urLX8JpEVr7vGLUZflMLpEz0dWkprPJWF6mC8WwOGmqO0qkcbEtUnutoBL3EqgzAivc9u5foT27iHdP89TBP0Jmv8O/+LnX4Ft/R3AHMV3GxFdpgVQEa3e6OJcQQuC6l9/ADa9+7QWq3rMd2s4k15NIPZ1QLMFKX+1qaaNOrElYv9AGmC5z850/DfpF3nnXj5O3/4Lujq9x2/t+jN3vexOSHiFYr3rO7Nw8S8uLzMzOcv0Nr0JU+MZffYVvfu2rfO0rXzpX5T2POFPJV//tdEOj8BqVXOsTK6JuGrBg+BDIvSf3HlHl0X33gzvEO9/7iwzsOQ4f/zbz23J6+fP0s4O4ZAASEFHMjBe+6MX8g3/447zqNTei6vi773y7Mp5OU/jGUVz2Cr1VyvW5XGAQAiID2m3HwomcmfZOsuU5Unbwucf/E4sLW+mqREVfhG9/8+u02m1eet3L+eqX/7LaXbPe7pIGFzdUhEKBjP7fUHk0rXFF1G1TokLiHK00pZ2mBO/ZvftX6S3M8IkHfofvuerHYPlafv3j/5PZ9Hu59V33keh8sTtGKuX1hle/lq9/9cs41QnS6tLq1ZcD1FtWBJioH5lucRNmoaRPuqh9H9e/PCHEK1FB/SZ+6zNfID94I0vPvpbPfeiP0cUbefCe3+XgsynKZoIJZjGQxQ++4Yf5yz//M4oNuzU3ltrsq/k3Xf+6137AIB4caWOHdk+KyzQuPaxmHhUVgvUwPQ448NuAlCDLiOQgcZu74CDE3chmCig+2CpPiNXSa/oWby9nJOYywBeKdaC+UL92U8rYHYUbnVmhpM/Ee1wOBKRmIEUMCz6aLEJeWbLTVPF+qF/JSfbENbj4kbj2YvVGCvfZSpk+zcYtKTeUeP34vngXzI/cJ0ZlRC3jOZ3NzHB6Z5WXJhJrP1+9GZdHZ9pUa1FS6q4rFsfl4Zf1ycQazz1dsp8l2S6EJ8alhES7B4qXp1+Ra1V+vVFHG7jwqLRyve70Gv98y6VGDp4dEmk9z1quuyfruSer/MkKef3M1NNrvkaSTBcSzwGGO1pGIRPdcE8dozrbuK3s9C3SYY18rgU9S4e90lPjXD3vdNMbx7Sln4guRCv4hDYelxOTTRMTflDcVt5e+oDHqCihimUVquFx+Pz1JhGnq0KdrZwbT2+j5eapVu9pPXPsR+v5L57r9BNCFr25QqFg1/chWMxdac80fJU5Kw2oJZGseG+rM1FNFIp7rLipPmsEkCAkJiO/qQol0aZWVY6cRWMLIz8u7MBFBMDxxeNCTxRAQi0vxbe18p9xdsrymxTpS5Wn8vADEyuO1WOkDerdc2IepPhchvW4Ot2yDmL6Mla5a+XBJjyrjkStDQE0OMQrqaZY7hkGijVQIWggqCeojw6AGlb1AitdTccaXsr/pCBYKV3LxweNBtUBpJqixEZWkcoJNGggkMc84DENiEKI2RumP5JoLZ3xyi0JVpIqJNhASLQ9lr4V5fXkZFX5kUDQkzduqJNYh++FIt8j5RdSaaEVyWP6se5zgsujM6YGgkAoGliKtEuSjAwg5WfRfj1CyPI3ZfrOu8gDU1LXJuS+IlRQH7e+qSeoFR09drqSvDo2qibtbA7LDRcc73zrLVhmQyaHABoLEdTzxOcejw+X2MjSgiAeM18UoOjl440LkcDFGqJ6AVMsAwmKkiBeueVtt2KZkYgj5L6KXhcKcj3+2U/HtCWSnMQwDVVH8MFHEolVZ0tbrdLrjS+mKGmM52AOyZVb3nYbllE1rpSi2BlePE989tMEzbGio2XkkWjFCoWWHYi6RCtimYoiProISNHttYyXWnTsW952GwwMNUEseoug4CWm98TnP110rpzgPD4JBA0IhtTUCSk7Uk28CoL6YbtIUCQTWq5DyAwXlJvfcguJJThcrPSCqp6AV8/jn/1UQbJY/6FIv5yklXkopZs88OkHjGBFJLzo9WwBnLpi13EgYAQJmHh8UaFec/7gD38fX/Umz1PPfhfTvGJ0yeq4N9SRSAsJDofD+ZS3/NxbSWmRuhQ/CCSSQhB8Fmilw00ZsbFi+jEfsbCf+Y3P4F2OJwYBGVgPU48VPQuJZdEgSEjQEEkspjif8I43v5OUlMSl5INAKgmEcmWs5gkqUXoFKaR2kf4nP/treOcx8bHczmMa80hZBwHUBLUkSoWQ4EKC+oS3/tLbSaVFqi3CwJOU6Vc8KVzPpah/ZwSJ677eZXzq85/Au6ySrEHL9IeySwqixrRLMisupLzrl29FMiURFyW1F1KX0lvp02q1sWBFZymHxFDUv5Frzqc+/2tF+4eiw5VcKKwC+/Y9Gru5xQp1roXP43JQXCss2Ihh5JWV3ZwnSwZFhULQnE/9+0/gNa8aoIRaLNjb33wzGhxqsXCzOkvoG+YDnc4MK8t9EpcSvNFut8mzvGrfag2z0Hu8egaaxd4jHq+eJz73yUKyBsqdz5HcUdy//c3vLNKPQ8CsmyX046kQ3U6XleUVEpeMuBnHRfRy/PSFXDa8ejIdjKT/+Gc/WTVweexw5GZM/+ZfuQX1CYm1SCxFvYNcILeR9KP0ieNdqKkndX0vaM7ArZBrhqkV5f80QQuVpSJXJJMGx9t/+R24ov7TkJLmbVxQBAg+4Io48oX4ZwQy5AFl/bseXnOCFOl//vGh2iSGPLbvUbNgReQUqSpVRGPPq0V7sSI00Kg0CVWi9QcPZU45BAyHgbJHaaXAVoJ1KC0YP+TEquG3cvcRK/SOeq8qFb9Rm1pMTwulXYv8aFWJdTKMmElsODyYFUOQyEgvtlKylO+Lnj5cjSiGYXNRv8HVlPcyPWrpT0aldBP94Ib1DUECXkMh2cqb65Irllertoiki+pMKNZyQ838tHrqWAZLKfW6YZmpCBYqpd9IqsqtP8GYEPTCKsU5ziggBj9LigawQmIM7x/9eZSMo0fxWo2I47Cx8lmUKEY1m1GLOowV+S6lSqnJyohZoz4bHpJ4vIzrva7CgROHeRWtqTW1WWVZtnoZyolDQVipflPP/5o1USNWqUNq1F0ZKulB6ukXZS7KW5JZKIfdmmQtD1LQ0bZZjZJW8VnOHOCq9JOCWGVJkiBRuS6yVxWgfH45Da3LEVuVVHnfONuHca7KqDGhIEkptssxPb4z6lyrz3yqJ5baqsShsiZHV03XVs1mjaEppP7sclq1ygwy+swqSpdJYRMa3ik21DFLyb3mk3AAAAXbSURBVFHO0qo7iy/HJ6xlGiXxxstQfSKlBjP0vavqkdoMsMx6rRxlvoZSLaoYsTbqo8do2nVIUd/xGZNGGRtpw6T8ouBjFVhMigeU08xyt4+ZVbVSHTZUy0T9PEGzAMWkoNxNbeX0baLkqFW0SFQoywO6a41pDHNdf716WBv9BBk29iRJIcKEDFGlYyM3SD271SdWf1ccUaJWO1ilRpbYneNsd1i+oXSxotdOMnxWtq56IctcWa0Gqu+GbBsREzLs2iNfTkiz1PdGbhypr9HOk0Q+ekSI27l8zWGwjC5TEqmWqqgQSl3NQhVjajQzCmYEo3JdFgwLAaliUq0emOrlKskabU5F2qukZNlzR2tm1bPGfjZaf6ulbi0TNboy7HTFz+qpl/eZgJdILBcEZzUDZAjViKCF3hjlsEdFoy6IROGiRRilSQSr8jPW5KVwt7KuynvHmaMTPhutkbGutDoTozkZeZeU7sxmhiuOOSsfKzYMgIbVRLwKeT6MoZW2WgwGA1qtVjRd+OJcvorpJSmi7cg5LWakoy1dFaTuVaFRguW5H+3ypwIZq5yT/u7UE5Cxv+MIGMGBC56Zfk7bFyaLmp41nAxEaiEegqEkBG3Rcx3i+onVTucYzeFaOa1UlVU3jH2w1npQfTg/Q1SBSESE3qAXz61Rx+7du2klKf2sz75H9rF7zx4efeRR9uyNf999x14+vu/j7N2zl3379vGe99wZjZjAvkf28e479uLU8dDDD3PXe+7ioYceJITAnr17ePjhj+FUV8XdqprWCvGqwk/8xE+QZRntdvssinkqWEdyncavIEp0JOBlwGxvmc/dcSebsj5BM9Baq5XKr0rUZywHMzJvHKPLy//Jmxhoa5UudPY41d55dkjqM4ayoXOfIyLc/+AD7N2zhyRNMYzde3dXPxSEPXv2xKxaVNI/vu+Rke8feOBBxCDPM+64404effTRmGjioj5Vx4TyisSQjiJR0k0LgoFoPKZFs2W2kbGVFcz6KFG/0uJI4iwfkA9yBKMlUcUYeCPpOBLzG0Cs84dKURr3larP8nq9Hvse2Qcw/LtvHyJSEcYskCYpt+++HQuxR959991keYYRK2337tvjvWE4iyxjcK2FMn6CS1yMkzUFl0scSaK0U0c3VQZLx8gXj5AvHWawsJ/sxH76x56jf+w5/OIh0nyZdr5C1/fp5H22poob9Ipj8aYXI1p4mqbVUJWkaRVtxqny7jvejVPHnr17EI0RaMphEMAHT5Znlc+PU8cjjzxCmqR0Wh0+9vDHCCGeG9hut4e2lXV2VIsoIXja7TaqjiRJcS65+K/E4ZyLFm9RpDuDzcxCdxbpzCGd2Xh1Z5HuHFnSIUu7LEubvuuy6B3amY9Sa2QmMV0YIVe/368Uc5/n3Hnne6rlCB88Dz/0cJRCwUjKyivg1LF3794Rh7Nbb3sXuc+rrf4PP/wxtIi/FaP1rV9rIXjy3FeRBcuZ6cV+Be/x3hM89CXlaGuWA+3NHG5t5WhnO8c62zne3c6x7nb2J5vZn2xhf/sKnu/u5ODsVexPd3JY5ulLQhmffhoh+/Z93OpD0yoFu5DM6jTGKs2y+N1JvFSDD8VwltDrrYycz6duyOlVulcNufe0WilZlpMkjuAv/oquGymVnLbPmMsy2j5D8agUBunSXqqKiWOQe8TiZMDh6GvKYrtLX9OxcEq1tE4i0U5thrxxSEZsGRNmbiWCD1XjlsRajxjls3yekybD4fa0MudcsaCqWLgQEZ1PH8MsKmIJXpWlNGUlsYmtHU2/Cq3aMxCCCJkVFu+1ErO1CXYx1FQCVKHTTzVD65HqssfQsgkoXpTgShKtVcOT7GsGpzAkno0H7EbjvIUKH4krf5mQc7hmd/I7V6P0UImvpxEXVRz6BuOYTlKVaIKlN9gwNJJrFdZaXzxdKXJ5DP3r4TIl13oEqpNotQvP6T3v8ibYpU+u9daj634zNk6g05VUdYKV0++zINclcPrG/wf6x+l7FFg/5wAAAABJRU5ErkJggg==;fontSize=30;" parent="1" vertex="1">
          <mxGeometry x="1520" y="380" width="151" height="177" as="geometry" />
        </mxCell>
        <mxCell id="PsIKEqwVILS5Xcvsca47-33" value="" style="shape=image;verticalLabelPosition=bottom;labelBackgroundColor=default;verticalAlign=top;aspect=fixed;imageAspect=0;image=data:image/png,iVBORw0KGgoAAAANSUhEUgAAAJcAAACxCAYAAADJai9SAAAgAElEQVR4nO2dabBl11Xff2vtc+7whp7UgyzLtoQtLMuTEOABUoFAhVQllQAphxSBADHGgyxL6m5LFrJly/KgyVJbxrZkYjtJURAIRYWQSlVSJCm+pJiM8YAnbMBCY8/Dm+695+y98mGfc+659933enzdfbvPv+v0u8O5Z0//vfbaa6+9trzxDfuMBmtATvKdAIYQEHqILID0ATBaBJsHayMIwgD0BEIfMIw2FjbHv8XzZCRNi5+vl4WLHElm117oPEwplLTVJR/0cDbA6QHQ50AOkKQJy705Arsw20FiKSqHEZ5BkkOAYWEHZteQhx0EEQxBTSqKQUEvm96+nwQ2X+g8TCmE/sAhGE6XQI/xoY/cQrt7hKXlZTS5mjt+9bdwyQxhAKpH+fBHb0PdfsAIYRd33fk7iG4ihHlcMo/lHiySK/4ppNeUQm56/f+e5vxfOAikacpg8Pe0Wt/i/gd+AZ9/i3s/eDudziy37r6PtPu93PWej7J5Zob73r8blee59/27AeGDH3yULN/BPff8BoPsBmDXyMONimdTS7AECRc6D1MKYzAYoOLBMiws0Jk5SpC/JWeGzsxx1OWkSUYIT6PueVxYRMkBRWWFdnqIRPcTeCk+BJBIqEisQoJhFcmmDcn09osLCxVBUJTNaP+lfOA9n+H+j7+Kjz36NoIIfrDIXXsep203YNmXCZkn0TbiZwGH+i6IogZqSjAHYoARKoKVqU1nGyUXOgPTCrNAlg3opkAA8wEJRshzAooYzM3PcfTwgNnZNuoSCFn56+KS2gWTp4bCtJJLRwt4sV2ni41+/hAGpGmLwALS+ls+fP87ENvMR+/9be7/wH8Bv4Vf/cAv4Ob+nn5YJGhK0AxzS5g7QXDLBIWAI6hhanEIRBATxBQ1h5hDLIEpvJK1K3k6e8uIgrIuf86ufAJk2YBWCqZKFlokYQdZ70qwBPPbWeoFBrmjo1fh/S5EMrw4BE+gjQ+7yG0XnjYmpSQbWrzMQEQYfjNdkJve8Idr1HIpui9eSJG9kk9ioxJpfSPkycsn62rSBnhEeogcR/VJPnL/T+P0edQgD7u4657fJ/e7aLs2vZXv8tDHfhbnno/k8lfyvvf+N3y4BrN5LLRimsVMcViuaaRVxKVNrpNKrlMh13qS3RNn2wZyEE2+hdNDOIwQriALr8CH7ZCDuiNI8k3UHUYJmN+OD6/CbOfwkWE0P9M6SywxtQq9AUHja7FRCmx8o5QJOAwFDLMdWD6HJ0cIGA4fUpIkQVKH2XZCuIkQsoLTKcjMyNOmnUzjmFpywaQ5VrFKV+gpcelko1qsNnwB0AE2EwkXMMtQGRBCwELAB0ea7IzfG0BAyAC/Qfm78JhacglxRBpO1I1QDHVihUhD1/j12aK+qBwXrsEglB96pLBZmQkiQpooZoO4iF2JKD981iWI6SWXgdZ0LhNFArTbGT58FzMjhCsx5s552pMnCoYUZClXPeKQGfU2M6tkXTUbvGRpFbFRXfu8wIrlkiAKkqJ0sOwQneSPePD+H0XlwPBeO/1lrmopZuwaJZZgaLzE4kWkWkmlWM3lJdV9lzqmVnJZOR5KDtJHxePE4/gmD9z/TwnyBVSfJvidhc+UIzZ59YRTS+gkJBgSyGr2KFnj6UZdXl1i+vsqTC25AAKGhWVEnqXVOobjEHOz38DpMqpzJO67eLsKYxcWuiCuYEOoOeadzJY16VNZ83sbe16kWdTJ6sOgXPLUmvJhEYR2usRHP/STpO5/cf8Db+RDH/lHdLp/T5Ic4MMf+RVUn8fCUvULGxvSTndp6CSWsZFLRkg4vC59WkVMteQSA7FnmZ/5Pzz80HWY/jaSLGH0cG4zps+BPIfKi4uZXPXLU1pSWZtIZ6YvXQ7Sqo6pJVepCil9nOyn2zlKbh5vM2T5NowXEcIVBGaBBFWHWV3nOd8NfXkRC6aUXGYBROM6nHUx/wKWFq4nDzvxNofhyP1LuPue/0sIr8bYAmYoHswKI2tpJmiwUZhKcolEVTGu7m1h4L+Pe+95gjxcjbd5ALx9Bx9uwGwnJg6EaNDkctJ6LiymcuHaIBolxSEs4vRpTHKCbcXoRDsmaZRqpFhBRi2HxcLIKWO7bcZTOVsj5+VO4UTXNS5evOQCCD7HJXPAy/C5EegCaaGPeVRyCoMFMNTTAlGljwve66ntDbnOBkl7mhchVCF4EEhFMXKGC8GljXy10XKo0k9tyacCyWY31F+mEyPONqwuyST5cbnLlPODZFM+AKaZXA0uViS79NL1J2pwYZHsyBcvdB4aXKJIrnRHLnQeGlyiSDbLkxc6Dw0uUSTOvn2h89DgEkWSa0OuBhuDZO7K/ELnocElimSpvbzqQ5viaHYNLh4kh7tXjHxgZg25GpwTJEd3/dCqxRCRZnmkwdlDtl79xpGVa5W4iVO0IViDs0Oy7SX/6mS7pxo0OCMkz+0vN8MP0cisBucCic+XYgxOiUMiSCHJGoo1ODsk3STFa20/n5VboBpyNTg7JDt3XI2X+mbRhlgNzg2S/c88s4pc5e6aBg3OBgkhBx0q9CIaNy+INt6pDc4KiWcBz3C3u6IxNGcZ+4pmI0ODM0PygmtnMDdKn+GWq3pgxoZgDU4PgvvHkTV1i7yNhTuLAUbPf+4aTDWSmRe/roqgB8VccURyWWPBb3BGSMRmRz4oyRXRsKrBmSNZFULR4l5lqX3aUKzBmSBGuZnAniYSTIOzRWMtbbBhaMjVYMOgrBNCSUUKT4kGDU4fCuufy3WpHXbU4PwhsWCIi29EC0ll8QBZH8LY2UzFLLLZwNHgFKDC8OiSbqfLwtISrXaL61/5aqxupS8w6VWDBpMg3avvM1PBJQkWhtvKTMZ3AZVn2ICM6GnNuNlgMqrZoorQ6XToZwM6nQ7Xfs/LUNHCt2vMgbBR8hucArSUVKrKsRPHmZuZ5UUvuZZvfP1rjJ64VcZuL32iG4/VButDfQioKEmSsmlujsXlJQ4dPMBMp0uwUOhjjmjMF0Tia8FddseNNDg9RFOEKNu27yRNW3Q7bY4eOUTAE2xAsBwzBVpEkilCAqQ0kqvBetAQPHPzm9i560q8z+l2W6QtELdCLofJ5QhelvHSw+sypn2s8lttyNVgbWi7leKznL/+xte5/pWvZPuuK8g5QSb7Sef2c/dH/x15+jy5O4B3B/DuCEFXMHyNZA0arIbOdDfx4mtfyqtecyNZlvHia3bRmTtBOvMsN9/xz1jMv8L89sOE1pO42f38wtv+OV5OYNKvznJu0GASZMs1j5k5w8gRzXnl9+/kB36kzdYXLLD/2LeYnd9Cv7+NT+77LG+7+RY68gI++dH/TpLvRK2N2FSeTdXgPEC9F/LMM8gG+OD56lf+DNMj9PKn2bKthWeBwCF+6W0/xezmjMceei9In/Jo3QYN1oJ67/EhEMxYXDhBCIEnHv80Pk+wfCvk21hayNi29QpOHFvEdTcj1kJIkMZjp8E6UCMDAirCzOwcS0sZt73rPkL/Sh689zfZ1H4VV17xGh578D8y17qau+58AAkziLVYyx2sMa82AFCTHiYx6K6qY+v81Zw4uJ1H7/kDZOWVPPS+3+PIU9uwpWv4+Id/l4NPCRo2IdaO3hNjGF+NbHD5QtovfL+pa2NA4sC1Agsrh5iZadPrB/LlJbpbZ1g5fghUmdv0AnxvLpJrZK928cBTSLTR1C4PJCoJGKgKZoGQC91kG74f0ACd2U2EQaDVnUWAvO9QhEnEgnL7//oQGoJdDkhEFFFBpDj+sogEJwgqIKarhzqDScQqcSoEq2M9T9gG0ws1GT3LudyvGP0hpNh9Xdsse4otvt5tpxois9HZphtJdAi0Yp+ixAg3Barh6wxFyOn8bJxIjdSafjSGqgYbhotm7aaRVJceLrjkOlXdrMH04aKQXA2JLk1ccMnV4NJFQ64GG4aGXA02DA25GmwYGnI12DBcFLPFBiWk9nf6w7M35DofkLVpEh0B6jvYy8HEiJ4n00uwZO3l4WbZ+JygRqyhg0CIDprSAwwJbQSHiYElCB3EHNO+T0FlVbCRoZNyE3T3DFEc1GVjxDKBIJ6gGUGPkydP8o69P4l3h/B6FK/7CXoIyLgUOrdaPEZq4tXgzDBR1ohhMiDoIrkc4Mpr4Pa734TOPEUmT5K758j1Od5x278l0FvrKVOFZrZ4HmAoRiDIMsEd4M4P/gw/9fM3kCXfJJl/hnff+zPMbDnI7Xf+PDPzOUafade3oFHozwPGVA3p4/UArn0kSjHr4VrCW299ExKO859/83+AbsFCXvP6nU5U8bkabCQESBDrQmjz2KOP0Ol0SGSewYrw3HNPYnICdAHTRUxXMMliLI4p1k5UmiiB5wHxwBuxFLUZ3vKWvfQWujyx7/fYPPMKXvaS1/O5x3+HkHf52X/zZrLFlQud4XOCRufacBgQMELc9GIzJP5qHnvgD+gf/x7uf+/vc/jpqzjx/FXs+8h/xfkX0e5eVexq16keFmXmmgemOPsXKUZMEMSZYvHOZIWgx4AcrIvgiMp7DpIh1kLDFah1iQdQTG/zNAr9RqDYW1cSa/ghBXm2Fq8T4uAR94CaeMQUzGH4aVa3gIZcG4b6xt9R2ZOgFuPLVuEQpJBQ1SGq9V9NL8Uacm04BKm27jHy/2jwvHhf3JA8/Gya0ZDrvOBU415PN5nG0cwWG2wYGsm1gYjnKk36Zlyfmn79ahIacm0UDJByOLSRL4ZUspFv5bRDuFycKM/obMi1gVgdKqowR4xJqtH3kWDTRrFJh7425NoQFPIqDGeDVoQIWk22ujuzFLQqwlhN0dKcqhLCaFitRqE/TyhtqeMumTL2r37vxY7Xv/GHJ34uEjtGI7k2BJPZIWue6Tw9EmocZoaIVOd0BjMww6k25Dp/mF4CrYU//eP/V72ujlYUwRfDYzMsNjgrmAV+4PVvJBQSrCSWSHNKwXmArXGd7L6LG8NDYB0LJ04A4JIEHzxmgVa73ZDr/GAyccodQrn5uHVxSogFhWQSodVq8fyzzwDwspdfT+IScu85dORQo3NtLEY9HErlN0IQc5FOwRcKymp718WASTasYFYNhYsLUXIlLiHLM9IkJXGuIddGQWqSKh7nHGdQYPiQ0z94mB3Xvpa03eHAwSeZ6XRYWVkqfh0YJdj4MtH5RTBbRTCnSj8b0KbNq2+8iVarxRf+9I9pp63iDm2GxY2AjJFARXAqpEnK8uJxtmyexW3pcPjo39BfeYbULbGyfBDImUSg0bOULgzBfAjVBXFYnOnO4POcLM8QEW563Ru47vobmN+0ubFzbQRWO/tRbDEWfB6YnZ2jt3yYdus47ZkBh499lfnuNmCWYFsI1qnWGFc7HNbfnd8hs7RlmQVEHOocZoGbfvD1HD9+nC9+4U/p9/skLiFttWh3Og25NgqVU6CVw2PAOUd/sETijvOBD/4iu65e4kP33cNTf/s087OvYKXXihszin0ZZlKEWrh4sGnTFl50zTVs2bKFEydOsLC4wN/89TcJIaDqAMizjGwwaMh17lHIG9PCbRkgQ/AsLC7SaS+DPEN39jv08y9y9z2vo3/8Ot5/9+/hbHOc4lu529qBDBe37QIq+iqCN2Nh4QRf+8qX8CFw3ctfwaH9+wnFeZ0qUlnotbFznVtobSYYhzWHmIvnJ1kgLB+hlfawcJBu+xCbNx2g3XqSrZuWOXrwOzhbwVmOWkBtOCGIW9OseuqFglNldnaW3Hte94Yf4tD+/fRWloFh2bUwUUBjoT8pJu1Ir1dg/TOIw1j83qGkqJSn6sLOK7cRsqO0kwEtzegvncB5T76ywK6tsyRhGRdWSILhTIikyovzMIexIy4EvUQElzjMjBtv+gH+4s/+hOWlxVWeEHU0w+KakGLLhAcZUJ6oC4JJCoCRF/e1EWlh1cJ0JIKKQyTj6Ilnme0uIOEQW644zsrykywvP8W2OYflfforTzE39xyDpEO/f5jcd8FmcNIm0AbawAwwD7QvyHwxyzPIYTDI+PpXv0LiTk6dZlPsBKgIZoJKm36+yJZtRm9wkEG+GDex2iyCkLZyujObOXYIWm4LZg4sEKyPmKLWRuQEL3ppn7e/80cY5H/J1S8MWHaUQe9Zup0T+HwZCW3UZslWOsx1r6TXS3n/vfvo5Zt54KH/wOLyPO++8xPk/hqMrSNxv04Na9nJzs5+VulYa6CRXBMQLOo3wTKQPsu9IywuPUl7roj6EOYxlOPLxzHdgclWkDkwx1Ar8sCAYAus9A+y3PsbZuefJdgyaiukuoAfLKCyTJIcQ8xYGhyjteXFGAnve++P4+2F3HXHT+Ja12F+B8JVU7I4FNGQaw0EyxBdQdwC77tvL0EOMDOfoRogdAkhpd/PcGzmnjsfI9gymItKvAgqHgtLiCyxZfMcV+26iv7Kk7zn1scYnIBff+Kn0GSZbHCIMMhptzpsms1ROU4rbbFj+yzPPHecjz18H8eXtnPb7s8ibm39Zn2sRcmzo+p6Ugsacq0BQxREAqpw1217kZk+aasfN7JaG6GNz5V8JWVu9iVY7kZsnKE0HIQEP+iQ9TaT2NU8+uB9SLZA3j+M5gOc65A4CB5mZlKCJQxy8GGGTVuvIdgW+oMZct8hPQU952JCo3OtQrnInCNqqHoGfom4NAPgwFoIaSGpUlrJLCFE/UMsDoeCoeaAHt4fwIen2brlCHtv/9dc8+LNpG6JEI5joYcPOUIAyTGEQEqweRYX57j3g59jpbeLdvdlLC3PE5g7A53rwqAh1yqU5ArRfimGD77YZp8ASfHXFbEeBKcOM49JjooH86gIEhwicGLxIC9/2Qs4fPjr9FaeopUuEfwimI+kwjDLQXy0aokjhJQtW6/i/R/4BFm+k5vfcRebtryQQDI1jjkNuSbCavat6NUApao+GoYSGFmiid9Y1foqCa1kNlrdbQXnBsASvd4CSkoIQAhYkYYhqEtBPWgPwyGyFWQGVAkWbW/T0GjTNYifN8jYu9KBJlrLI2pOf1b+RtEi7LqoIBLvX+ot01vps2luM8t9odPu4tIrCF7jc8WKHT+CGYhLUedx7R553gfr4pI2uR+A+akgFjTkWhP1HS0iOvR2WNM8Xi5SR1U+rt4Y4NHEMTOv5CwgqTEofLt6PkMQVLV6tCEM6EEISM8Xi8FGnvXj0LuhpT63uKiWf0LwvObGmwjBF451FxrjTXkSH3gprvIeMZAQg+fKoLgyTAIeH00LzhMkI0iGl4wgg/gej6EE0+p500QsuIgk1/gaXn238ah78HnLEaP+U7aO1BrDSXa1mgXMQHXSAwvHekpdzgp70rRR6yIiF8TK/MqXvoiqI/e+9vmF9CWvSaFTvv8sk5v44cXhT386uBjGnhGplfscp8prbryp8Hw0QvATvRM2GuW29Kic62lflzvOj+Qa73RjPCklkxVOZi5JUFVarZTllRXSJD0v2Vwbq+PVnBLW3L5/eeAMu9eonWe920prcqB2wJvUbhif9ovS7/f5wp//CQCv/b7vP7MsnjMUBaiOITuNa0LYkVO7Lg0kscmVMizsyTH0hRy63Q7jBJh4gg2K71NMAiY9YpD/BLEEtTS6rlBUp+jQUFk44okIWZbT7c6cy/KeJs6FW/HpSrzxtKaXbIrkRG9nN8GFdjzATxXkh1GHW0M0XkafoEfx7ihBe+SyyK5rlJvv/Je05o7h9ThBBiBWkCgKz8r4WNiIvvf6V/La7/tB/urLX8JpEVr7vGLUZflMLpEz0dWkprPJWF6mC8WwOGmqO0qkcbEtUnutoBL3EqgzAivc9u5foT27iHdP89TBP0Jmv8O/+LnX4Ft/R3AHMV3GxFdpgVQEa3e6OJcQQuC6l9/ADa9+7QWq3rMd2s4k15NIPZ1QLMFKX+1qaaNOrElYv9AGmC5z850/DfpF3nnXj5O3/4Lujq9x2/t+jN3vexOSHiFYr3rO7Nw8S8uLzMzOcv0Nr0JU+MZffYVvfu2rfO0rXzpX5T2POFPJV//tdEOj8BqVXOsTK6JuGrBg+BDIvSf3HlHl0X33gzvEO9/7iwzsOQ4f/zbz23J6+fP0s4O4ZAASEFHMjBe+6MX8g3/447zqNTei6vi773y7Mp5OU/jGUVz2Cr1VyvW5XGAQAiID2m3HwomcmfZOsuU5Unbwucf/E4sLW+mqREVfhG9/8+u02m1eet3L+eqX/7LaXbPe7pIGFzdUhEKBjP7fUHk0rXFF1G1TokLiHK00pZ2mBO/ZvftX6S3M8IkHfofvuerHYPlafv3j/5PZ9Hu59V33keh8sTtGKuX1hle/lq9/9cs41QnS6tLq1ZcD1FtWBJioH5lucRNmoaRPuqh9H9e/PCHEK1FB/SZ+6zNfID94I0vPvpbPfeiP0cUbefCe3+XgsynKZoIJZjGQxQ++4Yf5yz//M4oNuzU3ltrsq/k3Xf+6137AIB4caWOHdk+KyzQuPaxmHhUVgvUwPQ448NuAlCDLiOQgcZu74CDE3chmCig+2CpPiNXSa/oWby9nJOYywBeKdaC+UL92U8rYHYUbnVmhpM/Ee1wOBKRmIEUMCz6aLEJeWbLTVPF+qF/JSfbENbj4kbj2YvVGCvfZSpk+zcYtKTeUeP34vngXzI/cJ0ZlRC3jOZ3NzHB6Z5WXJhJrP1+9GZdHZ9pUa1FS6q4rFsfl4Zf1ycQazz1dsp8l2S6EJ8alhES7B4qXp1+Ra1V+vVFHG7jwqLRyve70Gv98y6VGDp4dEmk9z1quuyfruSer/MkKef3M1NNrvkaSTBcSzwGGO1pGIRPdcE8dozrbuK3s9C3SYY18rgU9S4e90lPjXD3vdNMbx7Sln4guRCv4hDYelxOTTRMTflDcVt5e+oDHqCihimUVquFx+Pz1JhGnq0KdrZwbT2+j5eapVu9pPXPsR+v5L57r9BNCFr25QqFg1/chWMxdac80fJU5Kw2oJZGseG+rM1FNFIp7rLipPmsEkCAkJiO/qQol0aZWVY6cRWMLIz8u7MBFBMDxxeNCTxRAQi0vxbe18p9xdsrymxTpS5Wn8vADEyuO1WOkDerdc2IepPhchvW4Ot2yDmL6Mla5a+XBJjyrjkStDQE0OMQrqaZY7hkGijVQIWggqCeojw6AGlb1AitdTccaXsr/pCBYKV3LxweNBtUBpJqixEZWkcoJNGggkMc84DENiEKI2RumP5JoLZ3xyi0JVpIqJNhASLQ9lr4V5fXkZFX5kUDQkzduqJNYh++FIt8j5RdSaaEVyWP6se5zgsujM6YGgkAoGliKtEuSjAwg5WfRfj1CyPI3ZfrOu8gDU1LXJuS+IlRQH7e+qSeoFR09drqSvDo2qibtbA7LDRcc73zrLVhmQyaHABoLEdTzxOcejw+X2MjSgiAeM18UoOjl440LkcDFGqJ6AVMsAwmKkiBeueVtt2KZkYgj5L6KXhcKcj3+2U/HtCWSnMQwDVVH8MFHEolVZ0tbrdLrjS+mKGmM52AOyZVb3nYbllE1rpSi2BlePE989tMEzbGio2XkkWjFCoWWHYi6RCtimYoiProISNHttYyXWnTsW952GwwMNUEseoug4CWm98TnP110rpzgPD4JBA0IhtTUCSk7Uk28CoL6YbtIUCQTWq5DyAwXlJvfcguJJThcrPSCqp6AV8/jn/1UQbJY/6FIv5yklXkopZs88OkHjGBFJLzo9WwBnLpi13EgYAQJmHh8UaFec/7gD38fX/Umz1PPfhfTvGJ0yeq4N9SRSAsJDofD+ZS3/NxbSWmRuhQ/CCSSQhB8Fmilw00ZsbFi+jEfsbCf+Y3P4F2OJwYBGVgPU48VPQuJZdEgSEjQEEkspjif8I43v5OUlMSl5INAKgmEcmWs5gkqUXoFKaR2kf4nP/treOcx8bHczmMa80hZBwHUBLUkSoWQ4EKC+oS3/tLbSaVFqi3CwJOU6Vc8KVzPpah/ZwSJ677eZXzq85/Au6ySrEHL9IeySwqixrRLMisupLzrl29FMiURFyW1F1KX0lvp02q1sWBFZymHxFDUv5Frzqc+/2tF+4eiw5VcKKwC+/Y9Gru5xQp1roXP43JQXCss2Ihh5JWV3ZwnSwZFhULQnE/9+0/gNa8aoIRaLNjb33wzGhxqsXCzOkvoG+YDnc4MK8t9EpcSvNFut8mzvGrfag2z0Hu8egaaxd4jHq+eJz73yUKyBsqdz5HcUdy//c3vLNKPQ8CsmyX046kQ3U6XleUVEpeMuBnHRfRy/PSFXDa8ejIdjKT/+Gc/WTVweexw5GZM/+ZfuQX1CYm1SCxFvYNcILeR9KP0ieNdqKkndX0vaM7ArZBrhqkV5f80QQuVpSJXJJMGx9t/+R24ov7TkJLmbVxQBAg+4Io48oX4ZwQy5AFl/bseXnOCFOl//vGh2iSGPLbvUbNgReQUqSpVRGPPq0V7sSI00Kg0CVWi9QcPZU45BAyHgbJHaaXAVoJ1KC0YP+TEquG3cvcRK/SOeq8qFb9Rm1pMTwulXYv8aFWJdTKMmElsODyYFUOQyEgvtlKylO+Lnj5cjSiGYXNRv8HVlPcyPWrpT0aldBP94Ib1DUECXkMh2cqb65Irllertoiki+pMKNZyQ838tHrqWAZLKfW6YZmpCBYqpd9IqsqtP8GYEPTCKsU5ziggBj9LigawQmIM7x/9eZSMo0fxWo2I47Cx8lmUKEY1m1GLOowV+S6lSqnJyohZoz4bHpJ4vIzrva7CgROHeRWtqTW1WWVZtnoZyolDQVipflPP/5o1USNWqUNq1F0ZKulB6ukXZS7KW5JZKIfdmmQtD1LQ0bZZjZJW8VnOHOCq9JOCWGVJkiBRuS6yVxWgfH45Da3LEVuVVHnfONuHca7KqDGhIEkptssxPb4z6lyrz3yqJ5baqsShsiZHV03XVs1mjaEppP7sclq1ygwy+swqSpdJYRMa3ik21DFLyb3mk3AAAAXbSURBVFHO0qo7iy/HJ6xlGiXxxstQfSKlBjP0vavqkdoMsMx6rRxlvoZSLaoYsTbqo8do2nVIUd/xGZNGGRtpw6T8ouBjFVhMigeU08xyt4+ZVbVSHTZUy0T9PEGzAMWkoNxNbeX0baLkqFW0SFQoywO6a41pDHNdf716WBv9BBk29iRJIcKEDFGlYyM3SD271SdWf1ccUaJWO1ilRpbYneNsd1i+oXSxotdOMnxWtq56IctcWa0Gqu+GbBsREzLs2iNfTkiz1PdGbhypr9HOk0Q+ekSI27l8zWGwjC5TEqmWqqgQSl3NQhVjajQzCmYEo3JdFgwLAaliUq0emOrlKskabU5F2qukZNlzR2tm1bPGfjZaf6ulbi0TNboy7HTFz+qpl/eZgJdILBcEZzUDZAjViKCF3hjlsEdFoy6IROGiRRilSQSr8jPW5KVwt7KuynvHmaMTPhutkbGutDoTozkZeZeU7sxmhiuOOSsfKzYMgIbVRLwKeT6MoZW2WgwGA1qtVjRd+OJcvorpJSmi7cg5LWakoy1dFaTuVaFRguW5H+3ypwIZq5yT/u7UE5Cxv+MIGMGBC56Zfk7bFyaLmp41nAxEaiEegqEkBG3Rcx3i+onVTucYzeFaOa1UlVU3jH2w1npQfTg/Q1SBSESE3qAXz61Rx+7du2klKf2sz75H9rF7zx4efeRR9uyNf999x14+vu/j7N2zl3379vGe99wZjZjAvkf28e479uLU8dDDD3PXe+7ioYceJITAnr17ePjhj+FUV8XdqprWCvGqwk/8xE+QZRntdvssinkqWEdyncavIEp0JOBlwGxvmc/dcSebsj5BM9Baq5XKr0rUZywHMzJvHKPLy//Jmxhoa5UudPY41d55dkjqM4ayoXOfIyLc/+AD7N2zhyRNMYzde3dXPxSEPXv2xKxaVNI/vu+Rke8feOBBxCDPM+64404effTRmGjioj5Vx4TyisSQjiJR0k0LgoFoPKZFs2W2kbGVFcz6KFG/0uJI4iwfkA9yBKMlUcUYeCPpOBLzG0Cs84dKURr3larP8nq9Hvse2Qcw/LtvHyJSEcYskCYpt+++HQuxR959991keYYRK2337tvjvWE4iyxjcK2FMn6CS1yMkzUFl0scSaK0U0c3VQZLx8gXj5AvHWawsJ/sxH76x56jf+w5/OIh0nyZdr5C1/fp5H22poob9Ipj8aYXI1p4mqbVUJWkaRVtxqny7jvejVPHnr17EI0RaMphEMAHT5Znlc+PU8cjjzxCmqR0Wh0+9vDHCCGeG9hut4e2lXV2VIsoIXja7TaqjiRJcS65+K/E4ZyLFm9RpDuDzcxCdxbpzCGd2Xh1Z5HuHFnSIUu7LEubvuuy6B3amY9Sa2QmMV0YIVe/368Uc5/n3Hnne6rlCB88Dz/0cJRCwUjKyivg1LF3794Rh7Nbb3sXuc+rrf4PP/wxtIi/FaP1rV9rIXjy3FeRBcuZ6cV+Be/x3hM89CXlaGuWA+3NHG5t5WhnO8c62zne3c6x7nb2J5vZn2xhf/sKnu/u5ODsVexPd3JY5ulLQhmffhoh+/Z93OpD0yoFu5DM6jTGKs2y+N1JvFSDD8VwltDrrYycz6duyOlVulcNufe0WilZlpMkjuAv/oquGymVnLbPmMsy2j5D8agUBunSXqqKiWOQe8TiZMDh6GvKYrtLX9OxcEq1tE4i0U5thrxxSEZsGRNmbiWCD1XjlsRajxjls3yekybD4fa0MudcsaCqWLgQEZ1PH8MsKmIJXpWlNGUlsYmtHU2/Cq3aMxCCCJkVFu+1ErO1CXYx1FQCVKHTTzVD65HqssfQsgkoXpTgShKtVcOT7GsGpzAkno0H7EbjvIUKH4krf5mQc7hmd/I7V6P0UImvpxEXVRz6BuOYTlKVaIKlN9gwNJJrFdZaXzxdKXJ5DP3r4TIl13oEqpNotQvP6T3v8ibYpU+u9daj634zNk6g05VUdYKV0++zINclcPrG/wf6x+l7FFg/5wAAAABJRU5ErkJggg==;fontSize=30;" parent="1" vertex="1">
          <mxGeometry x="1530" y="390" width="151" height="177" as="geometry" />
        </mxCell>
        <mxCell id="PsIKEqwVILS5Xcvsca47-34" style="edgeStyle=orthogonalEdgeStyle;rounded=1;orthogonalLoop=1;jettySize=auto;html=1;exitX=1;exitY=0.5;exitDx=0;exitDy=0;fontSize=30;strokeColor=#A3A3A3;jumpSize=14;" parent="1" source="PsIKEqwVILS5Xcvsca47-36" target="PsIKEqwVILS5Xcvsca47-37" edge="1">
          <mxGeometry relative="1" as="geometry" />
        </mxCell>
        <mxCell id="PsIKEqwVILS5Xcvsca47-35" style="edgeStyle=orthogonalEdgeStyle;rounded=1;jumpSize=14;orthogonalLoop=1;jettySize=auto;html=1;exitX=1;exitY=0.5;exitDx=0;exitDy=0;entryX=0;entryY=0.5;entryDx=0;entryDy=0;strokeColor=#A3A3A3;fontSize=30;" parent="1" source="PsIKEqwVILS5Xcvsca47-36" target="PsIKEqwVILS5Xcvsca47-43" edge="1">
          <mxGeometry relative="1" as="geometry" />
        </mxCell>
        <mxCell id="PsIKEqwVILS5Xcvsca47-36" value="" style="shape=image;verticalLabelPosition=bottom;labelBackgroundColor=default;verticalAlign=top;aspect=fixed;imageAspect=0;image=data:image/png,iVBORw0KGgoAAAANSUhEUgAAAJcAAACxCAYAAADJai9SAAAgAElEQVR4nO2dabBl11Xff2vtc+7whp7UgyzLtoQtLMuTEOABUoFAhVQllQAphxSBADHGgyxL6m5LFrJly/KgyVJbxrZkYjtJURAIRYWQSlVSJCm+pJiM8YAnbMBCY8/Dm+695+y98mGfc+659933enzdfbvPv+v0u8O5Z0//vfbaa6+9trzxDfuMBmtATvKdAIYQEHqILID0ATBaBJsHayMIwgD0BEIfMIw2FjbHv8XzZCRNi5+vl4WLHElm117oPEwplLTVJR/0cDbA6QHQ50AOkKQJy705Arsw20FiKSqHEZ5BkkOAYWEHZteQhx0EEQxBTSqKQUEvm96+nwQ2X+g8TCmE/sAhGE6XQI/xoY/cQrt7hKXlZTS5mjt+9bdwyQxhAKpH+fBHb0PdfsAIYRd33fk7iG4ihHlcMo/lHiySK/4ppNeUQm56/f+e5vxfOAikacpg8Pe0Wt/i/gd+AZ9/i3s/eDudziy37r6PtPu93PWej7J5Zob73r8blee59/27AeGDH3yULN/BPff8BoPsBmDXyMONimdTS7AECRc6D1MKYzAYoOLBMiws0Jk5SpC/JWeGzsxx1OWkSUYIT6PueVxYRMkBRWWFdnqIRPcTeCk+BJBIqEisQoJhFcmmDcn09osLCxVBUJTNaP+lfOA9n+H+j7+Kjz36NoIIfrDIXXsep203YNmXCZkn0TbiZwGH+i6IogZqSjAHYoARKoKVqU1nGyUXOgPTCrNAlg3opkAA8wEJRshzAooYzM3PcfTwgNnZNuoSCFn56+KS2gWTp4bCtJJLRwt4sV2ni41+/hAGpGmLwALS+ls+fP87ENvMR+/9be7/wH8Bv4Vf/cAv4Ob+nn5YJGhK0AxzS5g7QXDLBIWAI6hhanEIRBATxBQ1h5hDLIEpvJK1K3k6e8uIgrIuf86ufAJk2YBWCqZKFlokYQdZ70qwBPPbWeoFBrmjo1fh/S5EMrw4BE+gjQ+7yG0XnjYmpSQbWrzMQEQYfjNdkJve8Idr1HIpui9eSJG9kk9ioxJpfSPkycsn62rSBnhEeogcR/VJPnL/T+P0edQgD7u4657fJ/e7aLs2vZXv8tDHfhbnno/k8lfyvvf+N3y4BrN5LLRimsVMcViuaaRVxKVNrpNKrlMh13qS3RNn2wZyEE2+hdNDOIwQriALr8CH7ZCDuiNI8k3UHUYJmN+OD6/CbOfwkWE0P9M6SywxtQq9AUHja7FRCmx8o5QJOAwFDLMdWD6HJ0cIGA4fUpIkQVKH2XZCuIkQsoLTKcjMyNOmnUzjmFpywaQ5VrFKV+gpcelko1qsNnwB0AE2EwkXMMtQGRBCwELAB0ea7IzfG0BAyAC/Qfm78JhacglxRBpO1I1QDHVihUhD1/j12aK+qBwXrsEglB96pLBZmQkiQpooZoO4iF2JKD981iWI6SWXgdZ0LhNFArTbGT58FzMjhCsx5s552pMnCoYUZClXPeKQGfU2M6tkXTUbvGRpFbFRXfu8wIrlkiAKkqJ0sOwQneSPePD+H0XlwPBeO/1lrmopZuwaJZZgaLzE4kWkWkmlWM3lJdV9lzqmVnJZOR5KDtJHxePE4/gmD9z/TwnyBVSfJvidhc+UIzZ59YRTS+gkJBgSyGr2KFnj6UZdXl1i+vsqTC25AAKGhWVEnqXVOobjEHOz38DpMqpzJO67eLsKYxcWuiCuYEOoOeadzJY16VNZ83sbe16kWdTJ6sOgXPLUmvJhEYR2usRHP/STpO5/cf8Db+RDH/lHdLp/T5Ic4MMf+RVUn8fCUvULGxvSTndp6CSWsZFLRkg4vC59WkVMteQSA7FnmZ/5Pzz80HWY/jaSLGH0cG4zps+BPIfKi4uZXPXLU1pSWZtIZ6YvXQ7Sqo6pJVepCil9nOyn2zlKbh5vM2T5NowXEcIVBGaBBFWHWV3nOd8NfXkRC6aUXGYBROM6nHUx/wKWFq4nDzvxNofhyP1LuPue/0sIr8bYAmYoHswKI2tpJmiwUZhKcolEVTGu7m1h4L+Pe+95gjxcjbd5ALx9Bx9uwGwnJg6EaNDkctJ6LiymcuHaIBolxSEs4vRpTHKCbcXoRDsmaZRqpFhBRi2HxcLIKWO7bcZTOVsj5+VO4UTXNS5evOQCCD7HJXPAy/C5EegCaaGPeVRyCoMFMNTTAlGljwve66ntDbnOBkl7mhchVCF4EEhFMXKGC8GljXy10XKo0k9tyacCyWY31F+mEyPONqwuyST5cbnLlPODZFM+AKaZXA0uViS79NL1J2pwYZHsyBcvdB4aXKJIrnRHLnQeGlyiSDbLkxc6Dw0uUSTOvn2h89DgEkWSa0OuBhuDZO7K/ELnocElimSpvbzqQ5viaHYNLh4kh7tXjHxgZg25GpwTJEd3/dCqxRCRZnmkwdlDtl79xpGVa5W4iVO0IViDs0Oy7SX/6mS7pxo0OCMkz+0vN8MP0cisBucCic+XYgxOiUMiSCHJGoo1ODsk3STFa20/n5VboBpyNTg7JDt3XI2X+mbRhlgNzg2S/c88s4pc5e6aBg3OBgkhBx0q9CIaNy+INt6pDc4KiWcBz3C3u6IxNGcZ+4pmI0ODM0PygmtnMDdKn+GWq3pgxoZgDU4PgvvHkTV1i7yNhTuLAUbPf+4aTDWSmRe/roqgB8VccURyWWPBb3BGSMRmRz4oyRXRsKrBmSNZFULR4l5lqX3aUKzBmSBGuZnAniYSTIOzRWMtbbBhaMjVYMOgrBNCSUUKT4kGDU4fCuufy3WpHXbU4PwhsWCIi29EC0ll8QBZH8LY2UzFLLLZwNHgFKDC8OiSbqfLwtISrXaL61/5aqxupS8w6VWDBpMg3avvM1PBJQkWhtvKTMZ3AZVn2ICM6GnNuNlgMqrZoorQ6XToZwM6nQ7Xfs/LUNHCt2vMgbBR8hucArSUVKrKsRPHmZuZ5UUvuZZvfP1rjJ64VcZuL32iG4/VButDfQioKEmSsmlujsXlJQ4dPMBMp0uwUOhjjmjMF0Tia8FddseNNDg9RFOEKNu27yRNW3Q7bY4eOUTAE2xAsBwzBVpEkilCAqQ0kqvBetAQPHPzm9i560q8z+l2W6QtELdCLofJ5QhelvHSw+sypn2s8lttyNVgbWi7leKznL/+xte5/pWvZPuuK8g5QSb7Sef2c/dH/x15+jy5O4B3B/DuCEFXMHyNZA0arIbOdDfx4mtfyqtecyNZlvHia3bRmTtBOvMsN9/xz1jMv8L89sOE1pO42f38wtv+OV5OYNKvznJu0GASZMs1j5k5w8gRzXnl9+/kB36kzdYXLLD/2LeYnd9Cv7+NT+77LG+7+RY68gI++dH/TpLvRK2N2FSeTdXgPEC9F/LMM8gG+OD56lf+DNMj9PKn2bKthWeBwCF+6W0/xezmjMceei9In/Jo3QYN1oJ67/EhEMxYXDhBCIEnHv80Pk+wfCvk21hayNi29QpOHFvEdTcj1kJIkMZjp8E6UCMDAirCzOwcS0sZt73rPkL/Sh689zfZ1H4VV17xGh578D8y17qau+58AAkziLVYyx2sMa82AFCTHiYx6K6qY+v81Zw4uJ1H7/kDZOWVPPS+3+PIU9uwpWv4+Id/l4NPCRo2IdaO3hNjGF+NbHD5QtovfL+pa2NA4sC1Agsrh5iZadPrB/LlJbpbZ1g5fghUmdv0AnxvLpJrZK928cBTSLTR1C4PJCoJGKgKZoGQC91kG74f0ACd2U2EQaDVnUWAvO9QhEnEgnL7//oQGoJdDkhEFFFBpDj+sogEJwgqIKarhzqDScQqcSoEq2M9T9gG0ws1GT3LudyvGP0hpNh9Xdsse4otvt5tpxois9HZphtJdAi0Yp+ixAg3Barh6wxFyOn8bJxIjdSafjSGqgYbhotm7aaRVJceLrjkOlXdrMH04aKQXA2JLk1ccMnV4NJFQ64GG4aGXA02DA25GmwYGnI12DBcFLPFBiWk9nf6w7M35DofkLVpEh0B6jvYy8HEiJ4n00uwZO3l4WbZ+JygRqyhg0CIDprSAwwJbQSHiYElCB3EHNO+T0FlVbCRoZNyE3T3DFEc1GVjxDKBIJ6gGUGPkydP8o69P4l3h/B6FK/7CXoIyLgUOrdaPEZq4tXgzDBR1ohhMiDoIrkc4Mpr4Pa734TOPEUmT5K758j1Od5x278l0FvrKVOFZrZ4HmAoRiDIMsEd4M4P/gw/9fM3kCXfJJl/hnff+zPMbDnI7Xf+PDPzOUafade3oFHozwPGVA3p4/UArn0kSjHr4VrCW299ExKO859/83+AbsFCXvP6nU5U8bkabCQESBDrQmjz2KOP0Ol0SGSewYrw3HNPYnICdAHTRUxXMMliLI4p1k5UmiiB5wHxwBuxFLUZ3vKWvfQWujyx7/fYPPMKXvaS1/O5x3+HkHf52X/zZrLFlQud4XOCRufacBgQMELc9GIzJP5qHnvgD+gf/x7uf+/vc/jpqzjx/FXs+8h/xfkX0e5eVexq16keFmXmmgemOPsXKUZMEMSZYvHOZIWgx4AcrIvgiMp7DpIh1kLDFah1iQdQTG/zNAr9RqDYW1cSa/ghBXm2Fq8T4uAR94CaeMQUzGH4aVa3gIZcG4b6xt9R2ZOgFuPLVuEQpJBQ1SGq9V9NL8Uacm04BKm27jHy/2jwvHhf3JA8/Gya0ZDrvOBU415PN5nG0cwWG2wYGsm1gYjnKk36Zlyfmn79ahIacm0UDJByOLSRL4ZUspFv5bRDuFycKM/obMi1gVgdKqowR4xJqtH3kWDTRrFJh7425NoQFPIqDGeDVoQIWk22ujuzFLQqwlhN0dKcqhLCaFitRqE/TyhtqeMumTL2r37vxY7Xv/GHJ34uEjtGI7k2BJPZIWue6Tw9EmocZoaIVOd0BjMww6k25Dp/mF4CrYU//eP/V72ujlYUwRfDYzMsNjgrmAV+4PVvJBQSrCSWSHNKwXmArXGd7L6LG8NDYB0LJ04A4JIEHzxmgVa73ZDr/GAyccodQrn5uHVxSogFhWQSodVq8fyzzwDwspdfT+IScu85dORQo3NtLEY9HErlN0IQc5FOwRcKymp718WASTasYFYNhYsLUXIlLiHLM9IkJXGuIddGQWqSKh7nHGdQYPiQ0z94mB3Xvpa03eHAwSeZ6XRYWVkqfh0YJdj4MtH5RTBbRTCnSj8b0KbNq2+8iVarxRf+9I9pp63iDm2GxY2AjJFARXAqpEnK8uJxtmyexW3pcPjo39BfeYbULbGyfBDImUSg0bOULgzBfAjVBXFYnOnO4POcLM8QEW563Ru47vobmN+0ubFzbQRWO/tRbDEWfB6YnZ2jt3yYdus47ZkBh499lfnuNmCWYFsI1qnWGFc7HNbfnd8hs7RlmQVEHOocZoGbfvD1HD9+nC9+4U/p9/skLiFttWh3Og25NgqVU6CVw2PAOUd/sETijvOBD/4iu65e4kP33cNTf/s087OvYKXXihszin0ZZlKEWrh4sGnTFl50zTVs2bKFEydOsLC4wN/89TcJIaDqAMizjGwwaMh17lHIG9PCbRkgQ/AsLC7SaS+DPEN39jv08y9y9z2vo3/8Ot5/9+/hbHOc4lu529qBDBe37QIq+iqCN2Nh4QRf+8qX8CFw3ctfwaH9+wnFeZ0qUlnotbFznVtobSYYhzWHmIvnJ1kgLB+hlfawcJBu+xCbNx2g3XqSrZuWOXrwOzhbwVmOWkBtOCGIW9OseuqFglNldnaW3Hte94Yf4tD+/fRWloFh2bUwUUBjoT8pJu1Ir1dg/TOIw1j83qGkqJSn6sLOK7cRsqO0kwEtzegvncB5T76ywK6tsyRhGRdWSILhTIikyovzMIexIy4EvUQElzjMjBtv+gH+4s/+hOWlxVWeEHU0w+KakGLLhAcZUJ6oC4JJCoCRF/e1EWlh1cJ0JIKKQyTj6Ilnme0uIOEQW644zsrykywvP8W2OYflfforTzE39xyDpEO/f5jcd8FmcNIm0AbawAwwD7QvyHwxyzPIYTDI+PpXv0LiTk6dZlPsBKgIZoJKm36+yJZtRm9wkEG+GDex2iyCkLZyujObOXYIWm4LZg4sEKyPmKLWRuQEL3ppn7e/80cY5H/J1S8MWHaUQe9Zup0T+HwZCW3UZslWOsx1r6TXS3n/vfvo5Zt54KH/wOLyPO++8xPk/hqMrSNxv04Na9nJzs5+VulYa6CRXBMQLOo3wTKQPsu9IywuPUl7roj6EOYxlOPLxzHdgclWkDkwx1Ar8sCAYAus9A+y3PsbZuefJdgyaiukuoAfLKCyTJIcQ8xYGhyjteXFGAnve++P4+2F3HXHT+Ja12F+B8JVU7I4FNGQaw0EyxBdQdwC77tvL0EOMDOfoRogdAkhpd/PcGzmnjsfI9gymItKvAgqHgtLiCyxZfMcV+26iv7Kk7zn1scYnIBff+Kn0GSZbHCIMMhptzpsms1ROU4rbbFj+yzPPHecjz18H8eXtnPb7s8ibm39Zn2sRcmzo+p6Ugsacq0BQxREAqpw1217kZk+aasfN7JaG6GNz5V8JWVu9iVY7kZsnKE0HIQEP+iQ9TaT2NU8+uB9SLZA3j+M5gOc65A4CB5mZlKCJQxy8GGGTVuvIdgW+oMZct8hPQU952JCo3OtQrnInCNqqHoGfom4NAPgwFoIaSGpUlrJLCFE/UMsDoeCoeaAHt4fwIen2brlCHtv/9dc8+LNpG6JEI5joYcPOUIAyTGEQEqweRYX57j3g59jpbeLdvdlLC3PE5g7A53rwqAh1yqU5ArRfimGD77YZp8ASfHXFbEeBKcOM49JjooH86gIEhwicGLxIC9/2Qs4fPjr9FaeopUuEfwimI+kwjDLQXy0aokjhJQtW6/i/R/4BFm+k5vfcRebtryQQDI1jjkNuSbCavat6NUApao+GoYSGFmiid9Y1foqCa1kNlrdbQXnBsASvd4CSkoIQAhYkYYhqEtBPWgPwyGyFWQGVAkWbW/T0GjTNYifN8jYu9KBJlrLI2pOf1b+RtEi7LqoIBLvX+ot01vps2luM8t9odPu4tIrCF7jc8WKHT+CGYhLUedx7R553gfr4pI2uR+A+akgFjTkWhP1HS0iOvR2WNM8Xi5SR1U+rt4Y4NHEMTOv5CwgqTEofLt6PkMQVLV6tCEM6EEISM8Xi8FGnvXj0LuhpT63uKiWf0LwvObGmwjBF451FxrjTXkSH3gprvIeMZAQg+fKoLgyTAIeH00LzhMkI0iGl4wgg/gej6EE0+p500QsuIgk1/gaXn238ah78HnLEaP+U7aO1BrDSXa1mgXMQHXSAwvHekpdzgp70rRR6yIiF8TK/MqXvoiqI/e+9vmF9CWvSaFTvv8sk5v44cXhT386uBjGnhGplfscp8prbryp8Hw0QvATvRM2GuW29Kic62lflzvOj+Qa73RjPCklkxVOZi5JUFVarZTllRXSJD0v2Vwbq+PVnBLW3L5/eeAMu9eonWe920prcqB2wJvUbhif9ovS7/f5wp//CQCv/b7vP7MsnjMUBaiOITuNa0LYkVO7Lg0kscmVMizsyTH0hRy63Q7jBJh4gg2K71NMAiY9YpD/BLEEtTS6rlBUp+jQUFk44okIWZbT7c6cy/KeJs6FW/HpSrzxtKaXbIrkRG9nN8GFdjzATxXkh1GHW0M0XkafoEfx7ihBe+SyyK5rlJvv/Je05o7h9ThBBiBWkCgKz8r4WNiIvvf6V/La7/tB/urLX8JpEVr7vGLUZflMLpEz0dWkprPJWF6mC8WwOGmqO0qkcbEtUnutoBL3EqgzAivc9u5foT27iHdP89TBP0Jmv8O/+LnX4Ft/R3AHMV3GxFdpgVQEa3e6OJcQQuC6l9/ADa9+7QWq3rMd2s4k15NIPZ1QLMFKX+1qaaNOrElYv9AGmC5z850/DfpF3nnXj5O3/4Lujq9x2/t+jN3vexOSHiFYr3rO7Nw8S8uLzMzOcv0Nr0JU+MZffYVvfu2rfO0rXzpX5T2POFPJV//tdEOj8BqVXOsTK6JuGrBg+BDIvSf3HlHl0X33gzvEO9/7iwzsOQ4f/zbz23J6+fP0s4O4ZAASEFHMjBe+6MX8g3/447zqNTei6vi773y7Mp5OU/jGUVz2Cr1VyvW5XGAQAiID2m3HwomcmfZOsuU5Unbwucf/E4sLW+mqREVfhG9/8+u02m1eet3L+eqX/7LaXbPe7pIGFzdUhEKBjP7fUHk0rXFF1G1TokLiHK00pZ2mBO/ZvftX6S3M8IkHfofvuerHYPlafv3j/5PZ9Hu59V33keh8sTtGKuX1hle/lq9/9cs41QnS6tLq1ZcD1FtWBJioH5lucRNmoaRPuqh9H9e/PCHEK1FB/SZ+6zNfID94I0vPvpbPfeiP0cUbefCe3+XgsynKZoIJZjGQxQ++4Yf5yz//M4oNuzU3ltrsq/k3Xf+6137AIB4caWOHdk+KyzQuPaxmHhUVgvUwPQ448NuAlCDLiOQgcZu74CDE3chmCig+2CpPiNXSa/oWby9nJOYywBeKdaC+UL92U8rYHYUbnVmhpM/Ee1wOBKRmIEUMCz6aLEJeWbLTVPF+qF/JSfbENbj4kbj2YvVGCvfZSpk+zcYtKTeUeP34vngXzI/cJ0ZlRC3jOZ3NzHB6Z5WXJhJrP1+9GZdHZ9pUa1FS6q4rFsfl4Zf1ycQazz1dsp8l2S6EJ8alhES7B4qXp1+Ra1V+vVFHG7jwqLRyve70Gv98y6VGDp4dEmk9z1quuyfruSer/MkKef3M1NNrvkaSTBcSzwGGO1pGIRPdcE8dozrbuK3s9C3SYY18rgU9S4e90lPjXD3vdNMbx7Sln4guRCv4hDYelxOTTRMTflDcVt5e+oDHqCihimUVquFx+Pz1JhGnq0KdrZwbT2+j5eapVu9pPXPsR+v5L57r9BNCFr25QqFg1/chWMxdac80fJU5Kw2oJZGseG+rM1FNFIp7rLipPmsEkCAkJiO/qQol0aZWVY6cRWMLIz8u7MBFBMDxxeNCTxRAQi0vxbe18p9xdsrymxTpS5Wn8vADEyuO1WOkDerdc2IepPhchvW4Ot2yDmL6Mla5a+XBJjyrjkStDQE0OMQrqaZY7hkGijVQIWggqCeojw6AGlb1AitdTccaXsr/pCBYKV3LxweNBtUBpJqixEZWkcoJNGggkMc84DENiEKI2RumP5JoLZ3xyi0JVpIqJNhASLQ9lr4V5fXkZFX5kUDQkzduqJNYh++FIt8j5RdSaaEVyWP6se5zgsujM6YGgkAoGliKtEuSjAwg5WfRfj1CyPI3ZfrOu8gDU1LXJuS+IlRQH7e+qSeoFR09drqSvDo2qibtbA7LDRcc73zrLVhmQyaHABoLEdTzxOcejw+X2MjSgiAeM18UoOjl440LkcDFGqJ6AVMsAwmKkiBeueVtt2KZkYgj5L6KXhcKcj3+2U/HtCWSnMQwDVVH8MFHEolVZ0tbrdLrjS+mKGmM52AOyZVb3nYbllE1rpSi2BlePE989tMEzbGio2XkkWjFCoWWHYi6RCtimYoiProISNHttYyXWnTsW952GwwMNUEseoug4CWm98TnP110rpzgPD4JBA0IhtTUCSk7Uk28CoL6YbtIUCQTWq5DyAwXlJvfcguJJThcrPSCqp6AV8/jn/1UQbJY/6FIv5yklXkopZs88OkHjGBFJLzo9WwBnLpi13EgYAQJmHh8UaFec/7gD38fX/Umz1PPfhfTvGJ0yeq4N9SRSAsJDofD+ZS3/NxbSWmRuhQ/CCSSQhB8Fmilw00ZsbFi+jEfsbCf+Y3P4F2OJwYBGVgPU48VPQuJZdEgSEjQEEkspjif8I43v5OUlMSl5INAKgmEcmWs5gkqUXoFKaR2kf4nP/treOcx8bHczmMa80hZBwHUBLUkSoWQ4EKC+oS3/tLbSaVFqi3CwJOU6Vc8KVzPpah/ZwSJ677eZXzq85/Au6ySrEHL9IeySwqixrRLMisupLzrl29FMiURFyW1F1KX0lvp02q1sWBFZymHxFDUv5Frzqc+/2tF+4eiw5VcKKwC+/Y9Gru5xQp1roXP43JQXCss2Ihh5JWV3ZwnSwZFhULQnE/9+0/gNa8aoIRaLNjb33wzGhxqsXCzOkvoG+YDnc4MK8t9EpcSvNFut8mzvGrfag2z0Hu8egaaxd4jHq+eJz73yUKyBsqdz5HcUdy//c3vLNKPQ8CsmyX046kQ3U6XleUVEpeMuBnHRfRy/PSFXDa8ejIdjKT/+Gc/WTVweexw5GZM/+ZfuQX1CYm1SCxFvYNcILeR9KP0ieNdqKkndX0vaM7ArZBrhqkV5f80QQuVpSJXJJMGx9t/+R24ov7TkJLmbVxQBAg+4Io48oX4ZwQy5AFl/bseXnOCFOl//vGh2iSGPLbvUbNgReQUqSpVRGPPq0V7sSI00Kg0CVWi9QcPZU45BAyHgbJHaaXAVoJ1KC0YP+TEquG3cvcRK/SOeq8qFb9Rm1pMTwulXYv8aFWJdTKMmElsODyYFUOQyEgvtlKylO+Lnj5cjSiGYXNRv8HVlPcyPWrpT0aldBP94Ib1DUECXkMh2cqb65Irllertoiki+pMKNZyQ838tHrqWAZLKfW6YZmpCBYqpd9IqsqtP8GYEPTCKsU5ziggBj9LigawQmIM7x/9eZSMo0fxWo2I47Cx8lmUKEY1m1GLOowV+S6lSqnJyohZoz4bHpJ4vIzrva7CgROHeRWtqTW1WWVZtnoZyolDQVipflPP/5o1USNWqUNq1F0ZKulB6ukXZS7KW5JZKIfdmmQtD1LQ0bZZjZJW8VnOHOCq9JOCWGVJkiBRuS6yVxWgfH45Da3LEVuVVHnfONuHca7KqDGhIEkptssxPb4z6lyrz3yqJ5baqsShsiZHV03XVs1mjaEppP7sclq1ygwy+swqSpdJYRMa3ik21DFLyb3mk3AAAAXbSURBVFHO0qo7iy/HJ6xlGiXxxstQfSKlBjP0vavqkdoMsMx6rRxlvoZSLaoYsTbqo8do2nVIUd/xGZNGGRtpw6T8ouBjFVhMigeU08xyt4+ZVbVSHTZUy0T9PEGzAMWkoNxNbeX0baLkqFW0SFQoywO6a41pDHNdf716WBv9BBk29iRJIcKEDFGlYyM3SD271SdWf1ccUaJWO1ilRpbYneNsd1i+oXSxotdOMnxWtq56IctcWa0Gqu+GbBsREzLs2iNfTkiz1PdGbhypr9HOk0Q+ekSI27l8zWGwjC5TEqmWqqgQSl3NQhVjajQzCmYEo3JdFgwLAaliUq0emOrlKskabU5F2qukZNlzR2tm1bPGfjZaf6ulbi0TNboy7HTFz+qpl/eZgJdILBcEZzUDZAjViKCF3hjlsEdFoy6IROGiRRilSQSr8jPW5KVwt7KuynvHmaMTPhutkbGutDoTozkZeZeU7sxmhiuOOSsfKzYMgIbVRLwKeT6MoZW2WgwGA1qtVjRd+OJcvorpJSmi7cg5LWakoy1dFaTuVaFRguW5H+3ypwIZq5yT/u7UE5Cxv+MIGMGBC56Zfk7bFyaLmp41nAxEaiEegqEkBG3Rcx3i+onVTucYzeFaOa1UlVU3jH2w1npQfTg/Q1SBSESE3qAXz61Rx+7du2klKf2sz75H9rF7zx4efeRR9uyNf999x14+vu/j7N2zl3379vGe99wZjZjAvkf28e479uLU8dDDD3PXe+7ioYceJITAnr17ePjhj+FUV8XdqprWCvGqwk/8xE+QZRntdvssinkqWEdyncavIEp0JOBlwGxvmc/dcSebsj5BM9Baq5XKr0rUZywHMzJvHKPLy//Jmxhoa5UudPY41d55dkjqM4ayoXOfIyLc/+AD7N2zhyRNMYzde3dXPxSEPXv2xKxaVNI/vu+Rke8feOBBxCDPM+64404effTRmGjioj5Vx4TyisSQjiJR0k0LgoFoPKZFs2W2kbGVFcz6KFG/0uJI4iwfkA9yBKMlUcUYeCPpOBLzG0Cs84dKURr3larP8nq9Hvse2Qcw/LtvHyJSEcYskCYpt+++HQuxR959991keYYRK2337tvjvWE4iyxjcK2FMn6CS1yMkzUFl0scSaK0U0c3VQZLx8gXj5AvHWawsJ/sxH76x56jf+w5/OIh0nyZdr5C1/fp5H22poob9Ipj8aYXI1p4mqbVUJWkaRVtxqny7jvejVPHnr17EI0RaMphEMAHT5Znlc+PU8cjjzxCmqR0Wh0+9vDHCCGeG9hut4e2lXV2VIsoIXja7TaqjiRJcS65+K/E4ZyLFm9RpDuDzcxCdxbpzCGd2Xh1Z5HuHFnSIUu7LEubvuuy6B3amY9Sa2QmMV0YIVe/368Uc5/n3Hnne6rlCB88Dz/0cJRCwUjKyivg1LF3794Rh7Nbb3sXuc+rrf4PP/wxtIi/FaP1rV9rIXjy3FeRBcuZ6cV+Be/x3hM89CXlaGuWA+3NHG5t5WhnO8c62zne3c6x7nb2J5vZn2xhf/sKnu/u5ODsVexPd3JY5ulLQhmffhoh+/Z93OpD0yoFu5DM6jTGKs2y+N1JvFSDD8VwltDrrYycz6duyOlVulcNufe0WilZlpMkjuAv/oquGymVnLbPmMsy2j5D8agUBunSXqqKiWOQe8TiZMDh6GvKYrtLX9OxcEq1tE4i0U5thrxxSEZsGRNmbiWCD1XjlsRajxjls3yekybD4fa0MudcsaCqWLgQEZ1PH8MsKmIJXpWlNGUlsYmtHU2/Cq3aMxCCCJkVFu+1ErO1CXYx1FQCVKHTTzVD65HqssfQsgkoXpTgShKtVcOT7GsGpzAkno0H7EbjvIUKH4krf5mQc7hmd/I7V6P0UImvpxEXVRz6BuOYTlKVaIKlN9gwNJJrFdZaXzxdKXJ5DP3r4TIl13oEqpNotQvP6T3v8ibYpU+u9daj634zNk6g05VUdYKV0++zINclcPrG/wf6x+l7FFg/5wAAAABJRU5ErkJggg==;fontSize=30;" parent="1" vertex="1">
          <mxGeometry x="1540" y="400" width="151" height="177" as="geometry" />
        </mxCell>
        <mxCell id="PsIKEqwVILS5Xcvsca47-37" value="&lt;font style=&quot;font-size: 30px;&quot;&gt;agent&lt;/font&gt;" style="rounded=1;whiteSpace=wrap;html=1;fillColor=#f8cecc;strokeColor=none;shadow=1;sketch=0;glass=0;fontSize=30;" parent="1" vertex="1">
          <mxGeometry x="1815" y="360" width="180" height="91.5" as="geometry" />
        </mxCell>
        <mxCell id="PsIKEqwVILS5Xcvsca47-38" style="edgeStyle=orthogonalEdgeStyle;rounded=1;jumpSize=14;orthogonalLoop=1;jettySize=auto;html=1;exitX=0.5;exitY=1;exitDx=0;exitDy=0;strokeColor=#A3A3A3;fontSize=30;" parent="1" source="PsIKEqwVILS5Xcvsca47-39" target="PsIKEqwVILS5Xcvsca47-37" edge="1">
          <mxGeometry relative="1" as="geometry" />
        </mxCell>
        <mxCell id="PsIKEqwVILS5Xcvsca47-39" value="teacher" style="rounded=1;whiteSpace=wrap;html=1;shadow=1;glass=0;sketch=0;fontSize=30;fillColor=#dae8fc;strokeColor=none;" parent="1" vertex="1">
          <mxGeometry x="1810" y="150" width="190" height="60" as="geometry" />
        </mxCell>
        <mxCell id="PsIKEqwVILS5Xcvsca47-40" value="d&lt;sub style=&quot;font-size: 30px;&quot;&gt;s &lt;/sub&gt;&amp;gt; c" style="text;html=1;align=center;verticalAlign=middle;resizable=0;points=[];autosize=1;strokeColor=none;fillColor=none;fontSize=30;" parent="1" vertex="1">
          <mxGeometry x="2074" y="120" width="100" height="60" as="geometry" />
        </mxCell>
        <mxCell id="PsIKEqwVILS5Xcvsca47-41" value="b &amp;gt; 0" style="text;html=1;align=center;verticalAlign=middle;resizable=0;points=[];autosize=1;strokeColor=none;fillColor=none;fontSize=30;" parent="1" vertex="1">
          <mxGeometry x="1790" y="285" width="90" height="50" as="geometry" />
        </mxCell>
        <mxCell id="PsIKEqwVILS5Xcvsca47-45" style="edgeStyle=orthogonalEdgeStyle;rounded=1;jumpSize=14;orthogonalLoop=1;jettySize=auto;html=1;exitX=1;exitY=0.5;exitDx=0;exitDy=0;strokeColor=#A3A3A3;fontSize=30;" parent="1" source="PsIKEqwVILS5Xcvsca47-43" target="PsIKEqwVILS5Xcvsca47-44" edge="1">
          <mxGeometry relative="1" as="geometry" />
        </mxCell>
        <mxCell id="PsIKEqwVILS5Xcvsca47-43" value="&lt;font style=&quot;font-size: 30px;&quot;&gt;Action-BYOL&lt;/font&gt;" style="rounded=1;whiteSpace=wrap;html=1;fillColor=#f8cecc;strokeColor=none;shadow=1;sketch=0;glass=0;fontSize=30;" parent="1" vertex="1">
          <mxGeometry x="1815" y="520" width="180" height="91.5" as="geometry" />
        </mxCell>
        <mxCell id="PsIKEqwVILS5Xcvsca47-49" style="edgeStyle=orthogonalEdgeStyle;rounded=1;jumpSize=14;orthogonalLoop=1;jettySize=auto;html=1;exitX=0.5;exitY=0;exitDx=0;exitDy=0;entryX=0.5;entryY=1;entryDx=0;entryDy=0;strokeColor=#A3A3A3;fontSize=30;" parent="1" source="PsIKEqwVILS5Xcvsca47-44" target="PsIKEqwVILS5Xcvsca47-48" edge="1">
          <mxGeometry relative="1" as="geometry" />
        </mxCell>
        <mxCell id="PsIKEqwVILS5Xcvsca47-54" style="edgeStyle=orthogonalEdgeStyle;rounded=1;jumpSize=14;orthogonalLoop=1;jettySize=auto;html=1;exitX=1;exitY=0.5;exitDx=0;exitDy=0;entryX=1;entryY=0.5;entryDx=0;entryDy=0;strokeColor=#A3A3A3;fontSize=30;" parent="1" source="PsIKEqwVILS5Xcvsca47-44" target="PsIKEqwVILS5Xcvsca47-50" edge="1">
          <mxGeometry relative="1" as="geometry" />
        </mxCell>
        <mxCell id="PsIKEqwVILS5Xcvsca47-44" value="feature" style="rounded=1;whiteSpace=wrap;html=1;shadow=1;glass=0;sketch=0;fontSize=30;fillColor=#fff2cc;strokeColor=none;" parent="1" vertex="1">
          <mxGeometry x="2104" y="544.25" width="210" height="43" as="geometry" />
        </mxCell>
        <mxCell id="PsIKEqwVILS5Xcvsca47-53" style="edgeStyle=orthogonalEdgeStyle;rounded=1;jumpSize=14;orthogonalLoop=1;jettySize=auto;html=1;exitX=0.5;exitY=0;exitDx=0;exitDy=0;entryX=0.5;entryY=1;entryDx=0;entryDy=0;strokeColor=#A3A3A3;fontSize=30;" parent="1" source="PsIKEqwVILS5Xcvsca47-48" target="PsIKEqwVILS5Xcvsca47-50" edge="1">
          <mxGeometry relative="1" as="geometry" />
        </mxCell>
        <mxCell id="PsIKEqwVILS5Xcvsca47-48" value="buffer" style="ellipse;whiteSpace=wrap;html=1;shadow=1;glass=0;sketch=0;fontSize=30;fillColor=#ffe6cc;strokeColor=none;" parent="1" vertex="1">
          <mxGeometry x="2141.5" y="370" width="135" height="80" as="geometry" />
        </mxCell>
        <mxCell id="PsIKEqwVILS5Xcvsca47-55" style="edgeStyle=orthogonalEdgeStyle;rounded=1;jumpSize=14;orthogonalLoop=1;jettySize=auto;html=1;exitX=0.5;exitY=0;exitDx=0;exitDy=0;entryX=1;entryY=0.5;entryDx=0;entryDy=0;strokeColor=#A3A3A3;fontSize=30;" parent="1" source="PsIKEqwVILS5Xcvsca47-50" target="PsIKEqwVILS5Xcvsca47-39" edge="1">
          <mxGeometry relative="1" as="geometry" />
        </mxCell>
        <mxCell id="PsIKEqwVILS5Xcvsca47-50" value="distance" style="rounded=1;whiteSpace=wrap;html=1;shadow=1;glass=0;sketch=0;fontSize=30;fillColor=#1ba1e2;strokeColor=#006EAF;fontColor=#ffffff;" parent="1" vertex="1">
          <mxGeometry x="2130.5" y="240" width="157" height="70" as="geometry" />
        </mxCell>
        <mxCell id="PsIKEqwVILS5Xcvsca47-56" value="&lt;b style=&quot;font-size: 30px;&quot;&gt;uncertainty based&lt;/b&gt;" style="text;html=1;align=center;verticalAlign=middle;resizable=0;points=[];autosize=1;strokeColor=none;fillColor=none;fontSize=30;shadow=1;glass=0;sketch=0;" parent="1" vertex="1">
          <mxGeometry x="224" y="685" width="280" height="50" as="geometry" />
        </mxCell>
        <mxCell id="PsIKEqwVILS5Xcvsca47-57" value="&lt;b style=&quot;font-size: 30px;&quot;&gt;novelty based&lt;/b&gt;" style="text;html=1;align=center;verticalAlign=middle;resizable=0;points=[];autosize=1;strokeColor=none;fillColor=none;fontSize=30;shadow=1;glass=0;sketch=0;" parent="1" vertex="1">
          <mxGeometry x="944" y="685" width="220" height="50" as="geometry" />
        </mxCell>
        <mxCell id="PsIKEqwVILS5Xcvsca47-58" value="&lt;b style=&quot;font-size: 30px;&quot;&gt;our method&lt;/b&gt;" style="text;html=1;align=center;verticalAlign=middle;resizable=0;points=[];autosize=1;strokeColor=none;fillColor=none;fontSize=30;shadow=1;glass=0;sketch=0;" parent="1" vertex="1">
          <mxGeometry x="1847" y="685" width="190" height="50" as="geometry" />
        </mxCell>
        <mxCell id="PsIKEqwVILS5Xcvsca47-59" value="state" style="text;html=1;align=center;verticalAlign=middle;resizable=0;points=[];autosize=1;strokeColor=none;fillColor=none;fontSize=30;" parent="1" vertex="1">
          <mxGeometry x="140.5" y="592.25" width="90" height="50" as="geometry" />
        </mxCell>
        <mxCell id="PsIKEqwVILS5Xcvsca47-60" value="state" style="text;html=1;align=center;verticalAlign=middle;resizable=0;points=[];autosize=1;strokeColor=none;fillColor=none;fontSize=30;" parent="1" vertex="1">
          <mxGeometry x="772.5" y="590" width="90" height="50" as="geometry" />
        </mxCell>
        <mxCell id="PsIKEqwVILS5Xcvsca47-61" value="state" style="text;html=1;align=center;verticalAlign=middle;resizable=0;points=[];autosize=1;strokeColor=none;fillColor=none;fontSize=30;" parent="1" vertex="1">
          <mxGeometry x="1570.5" y="590" width="90" height="50" as="geometry" />
        </mxCell>
      </root>
    </mxGraphModel>
  </diagram>
</mxfile>
